<svg xmlns="http://www.w3.org/2000/svg" xmlns:xlink="http://www.w3.org/1999/xlink" viewBox="0 0 170 182"><defs><style>.a{isolation:isolate;}.aa,.ad,.ae,.af,.ag,.ah,.ai,.aj,.ak,.al,.am,.ap,.aq,.ar,.aw,.ax,.ay,.b,.bb,.bh,.bi,.bo,.bp,.bq,.c,.i,.j,.l,.t,.u{fill-rule:evenodd;}.b{fill:url(#a);}.ae,.ag,.ai,.ap,.aq,.aw,.ax,.bg,.bh,.bj,.bk,.bm,.bt,.bw,.c,.g,.k,.s,.u,.y{mix-blend-mode:multiply;}.c{fill:url(#b);}.d{fill:url(#c);}.e{fill:url(#d);}.f{fill:url(#e);}.g{fill:url(#f);}.bc,.bd,.be,.bf,.h,.o,.p,.q,.r,.z{mix-blend-mode:overlay;opacity:0.37;}.h{fill:url(#g);}.i{fill:url(#h);}.j{fill:#662212;}.aw,.ax,.k{opacity:0.31;}.l{fill:url(#i);}.m{fill:#e6dcef;}.n{fill:#c7bad3;}.o{fill:url(#j);}.p{fill:url(#k);}.q{fill:url(#l);}.r{fill:url(#m);}.bg,.s{opacity:0.53;}.s{fill:url(#n);}.t{fill:url(#o);}.u{fill:url(#p);}.v{fill:url(#q);}.w{fill:url(#r);}.x{fill:url(#s);}.y{fill:url(#t);}.z{fill:url(#u);}.aa{fill:url(#v);}.ab{fill:none;}.ac{fill:url(#w);}.ad{fill:url(#x);}.ae{fill:url(#y);}.af{fill:url(#z);}.ag{fill:url(#aa);}.ah{fill:url(#ab);}.ai{fill:url(#ac);}.aj{fill:url(#ad);}.ak{fill:url(#ae);}.al{fill:url(#af);}.am{fill:url(#ag);}.an{fill:url(#ah);}.ao{fill:url(#ai);}.ap{fill:url(#aj);}.aq{fill:url(#ak);}.ar{fill:url(#al);}.as{fill:url(#am);}.at{fill:url(#an);}.au{fill:url(#ao);}.av{fill:url(#ap);}.aw{fill:url(#aq);}.ax{fill:url(#ar);}.ay{fill:url(#as);}.az{fill:url(#at);}.ba{fill:url(#au);}.bb{fill:url(#av);}.bc{fill:url(#aw);}.bd{fill:url(#ax);}.be{fill:url(#ay);}.bf{fill:url(#az);}.bg{fill:url(#ba);}.bh{opacity:0.42;fill:url(#bb);}.bi{fill:url(#bc);}.bj{fill:url(#bd);}.bk{fill:url(#be);}.bl,.bn{mix-blend-mode:screen;}.bl{fill:url(#bf);}.bm{fill:url(#bg);}.bn{fill:url(#bh);}.bo{fill:url(#bi);}.bp{fill:url(#bj);}.bq{fill:url(#bk);}.br{fill:#fff;}.bs{fill:url(#bl);}.bt{fill:url(#bm);}.bu{fill:url(#bn);}.bv{fill:url(#bo);}.bw{opacity:0.66;}.bx{fill:url(#bp);}.by{fill:url(#bq);}</style><radialGradient id="a" cx="83.01" cy="-877.33" r="103.64" gradientTransform="translate(-546.13 738.99) rotate(35.26)" gradientUnits="userSpaceOnUse"><stop offset="0" stop-color="#f4f1ff"/><stop offset="1" stop-color="#d1bde5"/></radialGradient><linearGradient id="b" x1="60.65" y1="-747.34" x2="97.5" y2="-728.16" gradientTransform="matrix(0.83, 0.55, -0.55, 0.83, -406.65, 695.09)" gradientUnits="userSpaceOnUse"><stop offset="0" stop-color="#7d54b8" stop-opacity="0"/><stop offset="1" stop-color="#353567"/></linearGradient><radialGradient id="c" cx="-33.86" cy="-732.84" r="77.43" gradientTransform="translate(-364.76 686.74) rotate(35.95)" xlink:href="#a"/><radialGradient id="d" cx="44.89" cy="71.51" r="29.16" gradientUnits="userSpaceOnUse"><stop offset="0" stop-color="#ffb500"/><stop offset="1" stop-color="#ff8425"/></radialGradient><linearGradient id="e" x1="78.75" y1="-867.12" x2="92.34" y2="-867.12" gradientTransform="translate(-546.13 738.99) rotate(35.26)" xlink:href="#a"/><radialGradient id="f" cx="317.85" cy="-816.38" r="31.78" gradientTransform="matrix(0.76, 0.43, -0.49, 0.87, -622.07, 641.81)" xlink:href="#a"/><radialGradient id="g" cx="128.91" cy="-819.65" r="18.88" gradientTransform="translate(-490.9 715.85) rotate(29.44)" gradientUnits="userSpaceOnUse"><stop offset="0.1" stop-color="#f4f1ff"/><stop offset="1" stop-color="#d1bde5"/></radialGradient><radialGradient id="h" cx="21.4" cy="61.64" r="13.2" xlink:href="#d"/><radialGradient id="i" cx="-1261.01" cy="602.84" r="50.68" gradientTransform="matrix(-0.02, -0.98, 0.99, 0, -611.85, -1137.7)" gradientUnits="userSpaceOnUse"><stop offset="0" stop-color="#7d54b8"/><stop offset="1" stop-color="#353567"/></radialGradient><radialGradient id="j" cx="373.24" cy="-366.54" r="4.96" gradientTransform="translate(-387.01 395.52) rotate(3.22)" xlink:href="#g"/><radialGradient id="k" cx="376.63" cy="-354" r="5.72" gradientTransform="translate(-387.01 395.52) rotate(3.22)" xlink:href="#g"/><radialGradient id="l" cx="383.97" cy="-355.02" r="4.28" gradientTransform="translate(-387.01 395.52) rotate(3.22)" xlink:href="#g"/><radialGradient id="m" cx="388.74" cy="-363.33" r="1.61" gradientTransform="translate(-387.01 395.52) rotate(3.22)" xlink:href="#g"/><linearGradient id="n" x1="-2961.07" y1="-30.07" x2="-2949.35" y2="-37.71" gradientTransform="matrix(-0.97, -0.23, -0.23, 0.97, -2878.04, -586.27)" gradientUnits="userSpaceOnUse"><stop offset="0" stop-color="#fff"/><stop offset="1" stop-color="#9579a7"/></linearGradient><radialGradient id="o" cx="279.4" cy="-862.34" r="73.73" gradientTransform="translate(-324.24 822.8) rotate(14.8)" xlink:href="#a"/><linearGradient id="p" x1="118.04" y1="-764.44" x2="85.11" y2="-734.15" gradientTransform="matrix(0.95, 0.33, -0.33, 0.95, -247.97, 781.41)" xlink:href="#b"/><radialGradient id="q" cx="81.71" cy="-764.8" r="32.18" gradientTransform="translate(-209.55 762.75) rotate(21.3)" xlink:href="#a"/><radialGradient id="r" cx="120.3" cy="85.98" r="22.02" xlink:href="#d"/><linearGradient id="s" x1="-430.99" y1="-476.54" x2="-418.87" y2="-476.54" gradientTransform="matrix(-0.83, 0.55, 0.55, 0.83, 46.28, 715.43)" xlink:href="#a"/><radialGradient id="t" cx="-306.72" cy="-478.53" r="28.34" gradientTransform="matrix(-0.78, 0.41, 0.46, 0.89, 125.32, 620.74)" xlink:href="#a"/><radialGradient id="u" cx="-417.74" cy="-481.44" r="16.84" gradientTransform="matrix(-0.89, 0.46, 0.46, 0.89, -8.17, 690.52)" xlink:href="#g"/><radialGradient id="v" cx="145.32" cy="65.55" r="13.05" xlink:href="#d"/><radialGradient id="w" cx="200.04" cy="-754.57" r="166.02" gradientTransform="translate(-324.24 822.8) rotate(14.8)" xlink:href="#a"/><linearGradient id="x" x1="196.41" y1="-710.62" x2="238.57" y2="-711.65" gradientTransform="translate(-324.24 822.8) rotate(14.8)" xlink:href="#a"/><linearGradient id="y" x1="101.89" y1="-663.32" x2="136.6" y2="-693.75" gradientTransform="matrix(0.95, 0.33, -0.33, 0.95, -247.97, 781.41)" xlink:href="#b"/><linearGradient id="z" x1="210.69" y1="-761.21" x2="221.12" y2="-800.57" gradientTransform="translate(-324.24 822.8) rotate(14.8)" xlink:href="#a"/><linearGradient id="aa" x1="85.2" y1="101.72" x2="85.2" y2="65.98" gradientTransform="matrix(1, 0, 0, 1, 0, 0)" xlink:href="#b"/><radialGradient id="ab" cx="260.82" cy="-734.96" r="148.8" gradientTransform="translate(-324.24 822.8) rotate(14.8)" xlink:href="#a"/><linearGradient id="ac" x1="141.05" y1="-688.85" x2="99.05" y2="-683.82" gradientTransform="matrix(0.95, 0.33, -0.33, 0.95, -247.97, 781.41)" xlink:href="#b"/><radialGradient id="ad" cx="75.79" cy="63.94" r="23.32" xlink:href="#d"/><radialGradient id="ae" cx="64.64" cy="133.81" r="53.12" gradientTransform="matrix(1, 0, 0, 1, 0, 0)" xlink:href="#a"/><radialGradient id="af" cx="123.36" cy="138.06" r="47.71" xlink:href="#d"/><radialGradient id="ag" cx="46.43" cy="142.57" r="45.53" xlink:href="#d"/><radialGradient id="ah" cx="282.57" cy="-717.79" r="37.11" gradientTransform="translate(-324.24 822.8) rotate(14.8)" xlink:href="#i"/><radialGradient id="ai" cx="209.91" cy="-733.72" r="59.08" gradientTransform="translate(-324.24 822.8) rotate(14.8)" xlink:href="#a"/><linearGradient id="aj" x1="99.43" y1="143.82" x2="58.92" y2="46.8" gradientTransform="matrix(1, 0, 0, 1, 0, 0)" xlink:href="#b"/><radialGradient id="ak" cx="212.77" cy="-795.6" r="4.87" gradientTransform="translate(-324.24 822.8) rotate(14.8)" xlink:href="#i"/><radialGradient id="al" cx="211.97" cy="-795.46" r="4.67" gradientTransform="translate(-324.24 822.8) rotate(14.8)" xlink:href="#d"/><linearGradient id="am" x1="152.4" y1="-785.88" x2="185.37" y2="-785.88" gradientTransform="matrix(0.94, 0.35, -0.35, 0.94, -371.82, 859.15)" xlink:href="#a"/><linearGradient id="an" x1="202.21" y1="-812.66" x2="215.93" y2="-812.66" gradientTransform="matrix(0.94, 0.35, -0.35, 0.94, -371.82, 859.15)" xlink:href="#a"/><radialGradient id="ao" cx="262.56" cy="-728.52" r="13.34" gradientTransform="translate(-324.24 822.8) rotate(14.8)" gradientUnits="userSpaceOnUse"><stop offset="0" stop-color="#fff"/><stop offset="0.87" stop-color="#fff" stop-opacity="0"/></radialGradient><radialGradient id="ap" cx="262.21" cy="-728.76" r="8.93" xlink:href="#ao"/><radialGradient id="aq" cx="203.63" cy="-753.79" r="43.84" gradientTransform="translate(-324.24 822.8) rotate(14.8)" xlink:href="#i"/><radialGradient id="ar" cx="-709.43" cy="-697.31" r="57.05" gradientTransform="translate(-622.38 805.51) rotate(94.58)" xlink:href="#i"/><radialGradient id="as" cx="-1148.6" cy="-304.61" r="45.2" gradientTransform="matrix(0.06, -0.98, -0.99, -0.03, -93.78, -1031.91)" xlink:href="#i"/><linearGradient id="at" x1="119.57" y1="-741.99" x2="137.85" y2="-723.81" gradientTransform="matrix(0.95, 0.33, -0.33, 0.95, -247.97, 781.41)" xlink:href="#a"/><radialGradient id="au" cx="117.83" cy="-723.97" r="10.27" gradientTransform="matrix(0.95, 0.33, -0.33, 0.95, -247.97, 781.41)" xlink:href="#a"/><radialGradient id="av" cx="123.53" cy="114.06" r="36.45" gradientTransform="matrix(1, 0, 0, 1, 0, 0)" xlink:href="#a"/><radialGradient id="aw" cx="321.67" cy="-375.86" r="4.96" gradientTransform="matrix(-0.95, -0.32, -0.32, 0.95, 347.59, 517.95)" xlink:href="#g"/><radialGradient id="ax" cx="325.07" cy="-363.33" r="5.72" gradientTransform="matrix(-0.95, -0.32, -0.32, 0.95, 347.59, 517.95)" xlink:href="#g"/><radialGradient id="ay" cx="332.4" cy="-364.35" r="4.28" gradientTransform="matrix(-0.95, -0.32, -0.32, 0.95, 347.59, 517.95)" xlink:href="#g"/><radialGradient id="az" cx="337.17" cy="-372.66" r="1.61" gradientTransform="matrix(-0.95, -0.32, -0.32, 0.95, 347.59, 517.95)" xlink:href="#g"/><linearGradient id="ba" x1="-2908.67" y1="-30.26" x2="-2896.95" y2="-37.91" gradientTransform="translate(3025.1 527.06) rotate(8.45)" xlink:href="#n"/><linearGradient id="bb" x1="137.86" y1="-880.74" x2="175.52" y2="-880.74" gradientTransform="matrix(0.94, 0.35, -0.35, 0.94, -371.82, 859.15)" xlink:href="#n"/><radialGradient id="bc" cx="-14.96" cy="-695.73" r="44.34" gradientTransform="matrix(0.87, 0.38, -0.41, 0.91, -171.82, 683.97)" xlink:href="#d"/><linearGradient id="bd" x1="-114.68" y1="-685.17" x2="-115.32" y2="-705.63" gradientTransform="translate(-103.84 714.35) rotate(24.01)" gradientUnits="userSpaceOnUse"><stop offset="0" stop-color="#7d54b8" stop-opacity="0.5"/><stop offset="1" stop-color="#353567"/></linearGradient><linearGradient id="be" x1="-94.79" y1="-645.83" x2="-113.02" y2="-641.22" gradientTransform="translate(-54.2 680.88) rotate(18.19)" xlink:href="#b"/><linearGradient id="bf" x1="-81.16" y1="-668.37" x2="-76.26" y2="-612.93" gradientTransform="translate(-54.2 680.88) rotate(18.19)" xlink:href="#b"/><linearGradient id="bg" x1="-94.57" y1="-650.33" x2="-61.66" y2="-645.96" gradientTransform="translate(-54.2 680.88) rotate(18.19)" xlink:href="#b"/><linearGradient id="bh" x1="-2.48" y1="-775.99" x2="-73.22" y2="-768.73" gradientTransform="translate(-209.55 762.75) rotate(21.3)" xlink:href="#b"/><radialGradient id="bi" cx="-1.52" cy="-782.75" r="136.56" gradientTransform="translate(-209.55 762.75) rotate(21.3)" xlink:href="#a"/><radialGradient id="bj" cx="-1.26" cy="-640.05" r="80.5" gradientTransform="matrix(0.98, 0.33, -0.31, 0.95, -81.32, 670.31)" gradientUnits="userSpaceOnUse"><stop offset="0" stop-color="#f4f1ff"/><stop offset="1" stop-color="#c9b1e3"/></radialGradient><radialGradient id="bk" cx="-8.63" cy="-700.9" r="46.19" gradientTransform="matrix(0.87, 0.38, -0.41, 0.91, -171.82, 683.97)" xlink:href="#bj"/><radialGradient id="bl" cx="-25.87" cy="-647.53" r="21" gradientTransform="matrix(0.03, 1.06, -1, 0.04, -530.96, 98.11)" xlink:href="#d"/><radialGradient id="bm" cx="-87.44" cy="-705.06" r="23.85" gradientTransform="matrix(0, 1.23, -1.09, 0, -654.1, 153.7)" xlink:href="#i"/><radialGradient id="bn" cx="-19.36" cy="-705.14" r="23.7" gradientTransform="matrix(0, 1.11, -1.09, 0, -653.14, 69.28)" xlink:href="#a"/><linearGradient id="bo" x1="-39.28" y1="-647.26" x2="-25.01" y2="-647.26" gradientTransform="translate(-530.04 110.47) rotate(88.12)" gradientUnits="userSpaceOnUse"><stop offset="0.28" stop-color="#f4f1ff"/><stop offset="1" stop-color="#d1bde5" stop-opacity="0"/></linearGradient><linearGradient id="bp" x1="225.11" y1="-802.32" x2="256.76" y2="-802.32" gradientTransform="translate(-324.24 822.8) rotate(14.8)" xlink:href="#n"/><linearGradient id="bq" x1="225.11" y1="-758.24" x2="256.76" y2="-758.24" gradientTransform="translate(-324.24 822.8) rotate(14.8)" xlink:href="#n"/></defs><g class="a"><path class="b" d="M11.92,77.74C11,88.32,27,109.72,39.24,113.61c2.55.82,6.66,2.7,10,3.57,23.51,6.07,19.21,1,23.48-2.07,2.59-1.82-7.16-12.07-7.16-12.07l11.1-22.73s-.32-.08-.9-.19a43.67,43.67,0,0,0-10.37-.76c-5.82.35-23.22-3.89-30.59-9.59s-9.08-9.7-11.19-10.36-5.24,2-5.24,2S12.87,66.58,11.92,77.74Z"/><path class="c" d="M11.92,77.74C11,88.32,25.81,107.67,37.5,112.9c28.15,12.61,27-.55,31.86-4,2.58-1.82-3.79-5.84-3.79-5.84l11.1-22.73s-.32-.08-.9-.19a43.67,43.67,0,0,0-10.37-.76c-5.82.35-23.22-3.89-30.59-9.59s-9.08-9.7-11.19-10.36-5.24,2-5.24,2S12.87,66.58,11.92,77.74Z"/><path class="d" d="M77,79.67a.54.54,0,0,0-.19-.07s-.34-.09-.93-.2a44.52,44.52,0,0,0-10.56-.78c-2.51.15-7.26-.59-12.39-1.93a64.65,64.65,0,0,1-14.83-5.63,23.67,23.67,0,0,1-2.86-1.87,54.92,54.92,0,0,1-8-7.51A13.07,13.07,0,0,0,24.48,59a3.56,3.56,0,0,0-.64-.28,5.22,5.22,0,0,0-4,.79,12,12,0,0,0-1.94,1.32l0,0a18.45,18.45,0,0,0-3,4.18,31.56,31.56,0,0,0-3.67,12.66c-.39,4.62,2.12,11.25,6.88,18.19a62.45,62.45,0,0,0,7.51,9,41.87,41.87,0,0,0,8.56,6.66c11.5,6.56,22.2,8.6,26.59,6.88,3.9-1.53,3.75-6.61,6-8.19,2.6-1.82-.7-6.56-.63-6.62a.82.82,0,0,0,.16-.22l11.1-22.73a.75.75,0,0,0,0-.64.71.71,0,0,0-.31-.33Z"/><path class="e" d="M43.68,73.71s2.92,6-2.36,18.46-16.22,12.2-16.22,12.2-.94,1.1.48,2.67a3.08,3.08,0,0,0,3.13,1.2,2.86,2.86,0,0,0,1.56,2c3.86,2.33,12.37-4.78,17.29-13.85,4.33-8,5.6-17.67,2.45-21.37a1.23,1.23,0,0,0-2.15,0A2.66,2.66,0,0,0,45.92,73,1.87,1.87,0,0,0,43.68,73.71Z"/><path class="f" d="M19.2,96.23C35.05,87,28.47,64.19,28.4,64L28,63.44c.06.23,6.29,23.24-9.12,32.23Z"/><path class="g" d="M22.9,72.45c-3.12,5.53-7.59,8.44-10.15,6.71S11.13,73,14.25,67.49s6.84-9.36,9.41-7.9C25.73,60.76,26,66.91,22.9,72.45Z"/><path class="h" d="M24,59.77c.68,0,5.19,4.6-.37,13.93s-12.92,8.11-12.27,3C14,86.77,29.19,69.07,24,59.77Z"/><path class="i" d="M18.8,59.88s3.77.47,4.65,3.3C24.76,67.41,18.61,80.06,12,77,4.62,73.55,18.8,59.88,18.8,59.88Z"/><path class="j" d="M20.3,61.59s-1,9.52-9.44,12.15C10.86,73.74,11.52,63,20.3,61.59Z"/><g class="k"><path class="l" d="M29.09,108a21.74,21.74,0,0,0,7.07-3.66,29.4,29.4,0,0,0,11-17.37A37.64,37.64,0,0,0,48,76.39c-.16-1.51-.2-1.34-.18-1.31.09.19,1.64,5.91-.72,13.81C45.09,96.61,38.69,106,29.09,108Z"/></g><path class="j" d="M10.88,73.72s4.56-.82,7.73-7a13.31,13.31,0,0,0,1.48-4.87c0-.38.17-.31.17-.3a13,13,0,0,1-1.38,5.46C17.61,70,13.77,73.53,10.88,73.72Z"/><path class="m" d="M3.16,63.76a.3.3,0,0,0,0,.1,7.82,7.82,0,0,0,2.64,4.52l.07.06a2.57,2.57,0,0,0,2.14.8,3.11,3.11,0,0,0,2.23-1.94A4.21,4.21,0,0,0,12,66.68a2.39,2.39,0,0,0,1-2.31c0-.1,0-.19,0-.26a2.31,2.31,0,0,0-.1-.43s-.21-.75-.37-1.63a11.3,11.3,0,0,1-.19-1.39,3.22,3.22,0,0,1,.05-1c.31-1.14-.35-2.6-2.8-3.48A5,5,0,0,0,6.15,56a2.16,2.16,0,0,0-1.31,1.54,4.21,4.21,0,0,0-.84.79,3,3,0,0,0-.53,1.79,3.41,3.41,0,0,0-.69,1.45A6.42,6.42,0,0,0,3.16,63.76Z"/><path class="n" d="M8,69.3l.21,0c1.1-.23,1.92-1.7,2-1.92a3.29,3.29,0,0,0,1.83-.68,2.58,2.58,0,0,0,.81-2.86,0,0,0,1,0-.09,0,2.49,2.49,0,0,1-.78,2.75,3.23,3.23,0,0,1-1.8.66.05.05,0,0,0,0,0s-.86,1.66-2,1.89A2.63,2.63,0,0,1,6,68.49l0,0a8.41,8.41,0,0,1-3-6.66,1.89,1.89,0,0,1,.57-1.62.08.08,0,0,0,0,0,1.91,1.91,0,0,1,.25-1.3,3,3,0,0,1,1.07-1.21l0,0a1.62,1.62,0,0,1,.49-.93c1.13-1.27,2.77-.92,4.22-.4,1.85.65,2.89,1.82,2.79,3.12a.05.05,0,0,0,0,0s.05,0,.05,0c.1-1.35-1-2.56-2.86-3.23-1.39-.5-3.15-.89-4.32.43a1.85,1.85,0,0,0-.51,1,3.14,3.14,0,0,0-1.08,1.24,2.14,2.14,0,0,0-.27,1.35A2.5,2.5,0,0,0,2.77,62a8.21,8.21,0,0,0,3.16,6.55l0,0A2.79,2.79,0,0,0,8,69.3Z"/><path class="m" d="M8.64,57.18l4.94.68s-.17-2-.14-2.59a8.71,8.71,0,0,0-.15-2.14,23.88,23.88,0,0,0-4.41-8.29C7.2,43.1,4.1,42,2.49,43.5s.76,3.38,3.17,6.41S8.14,55,8.64,57.18Z"/><path class="n" d="M13.46,55.06a.05.05,0,0,0,0-.05,10.09,10.09,0,0,0-.14-1.89,22.93,22.93,0,0,0-4.43-8.33C7.15,43,4.05,42,2.44,43.45c-1.32,1.24,0,2.72,1.71,4.76.47.55,1,1.11,1.46,1.74a12.6,12.6,0,0,1,2.75,6.21c.07.34.14.69.22,1a.07.07,0,0,0,.08,0,.07.07,0,0,0,.05-.08c-.08-.35-.15-.7-.22-1a12.62,12.62,0,0,0-2.78-6.26c-.5-.63-1-1.2-1.46-1.75C2.48,46.06,1.3,44.7,2.53,43.55c1.55-1.45,4.57-.46,6.3,1.34a22.66,22.66,0,0,1,4.39,8.25A9.15,9.15,0,0,1,13.35,55a.07.07,0,0,0,.07.07Z"/><path class="o" d="M2.69,44.62c.61-.53,8,5.47,7.29,11.08,0,0-.53,1.75-1-.09a15.09,15.09,0,0,0-3.48-6.85c-2.09-2.16-2.69-2.61-2.94-3.34S2.69,44.62,2.69,44.62Z"/><path class="m" d="M18.56,64.51a5.52,5.52,0,0,1-1.52,5,6.18,6.18,0,0,1-3.24,1.69c-2,.4-4-.26-4.46-1.87-.66-2.53,7.72-6.79,7.72-6.79A2.49,2.49,0,0,1,18.56,64.51Z"/><path class="m" d="M19.36,64.13a5.92,5.92,0,0,1-.2,1.18,4.93,4.93,0,0,1-1.37,2.21,7.89,7.89,0,0,1-.59.54,6.34,6.34,0,0,1-1,.68,3.5,3.5,0,0,1-1.45.47.05.05,0,0,1,0,0A4.26,4.26,0,0,1,8.79,70.8a10.9,10.9,0,0,1-4.17-3.88,7.91,7.91,0,0,1-1-2.42c-.47-2.09,3.46-4.56,5.93-6s2.84-4,3.75-3.5,1.26,2.06,2.79,3.09l.17.11A8,8,0,0,1,19.36,64.13Z"/><path class="m" d="M12.28,64.69c-.87-2.95,1.49-5.36,4.27-6.83s.7-4.3,3.45-5.4,4.07.67,4.25,1.49-.57,2.26-3.09,4.39-.83,4.48-1.9,6.77a11.28,11.28,0,0,1-.87,1.79c-1.29,1.79-3.52,2.49-4.41,1.45A9.86,9.86,0,0,1,12.28,64.69Z"/><path class="n" d="M16.05,58.16s0,0-.05,0a6.68,6.68,0,0,1-1.74-1.92,3.19,3.19,0,0,0-1-1.14.08.08,0,0,1,0-.1s0,0,.09,0a3.37,3.37,0,0,1,1,1.19A6.45,6.45,0,0,0,16.08,58a.08.08,0,0,1,0,.1Z"/><path class="n" d="M12,71.37a4.41,4.41,0,0,1-3.24-.51,12.06,12.06,0,0,1-5.13-5.47,11.79,11.79,0,0,0,5.19,5.35,4.18,4.18,0,0,0,5.88-1.56,0,0,0,0,1,.05,0A6.71,6.71,0,0,0,17.17,68a5.16,5.16,0,0,0,2.08-3,.06.06,0,0,1,.08,0s.06,0,.05.08a5.27,5.27,0,0,1-2.14,3,6.56,6.56,0,0,1-2.44,1.16A4.3,4.3,0,0,1,12,71.37Z"/><path class="n" d="M19.18,65.62h0s-.06-.06,0-.09a3.45,3.45,0,0,0,.12-.43.93.93,0,0,1,.06-.21,6.9,6.9,0,0,0,.32-2.7,4.13,4.13,0,0,1,1.5-3.9c3-2.49,3.2-3.78,3.08-4.33A2.47,2.47,0,0,0,23,52.48a3.47,3.47,0,0,0-2.94,0A2.68,2.68,0,0,0,18.35,55a3.33,3.33,0,0,1-1.77,2.88c-2.7,1.42-5.27,3.12-4.46,6.67a8,8,0,0,0,.67,1.94.06.06,0,0,1,0,.09.07.07,0,0,1-.09,0,8,8,0,0,1-.68-2c-.83-3.65,1.78-5.37,4.53-6.82A3.23,3.23,0,0,0,18.22,55,2.78,2.78,0,0,1,20,52.39a3.51,3.51,0,0,1,3,0,2.56,2.56,0,0,1,1.3,1.57c.22,1-.89,2.58-3.12,4.46a4,4,0,0,0-1.46,3.79,6.78,6.78,0,0,1-.33,2.75l-.05.2a2.54,2.54,0,0,1-.13.45A.07.07,0,0,1,19.18,65.62Z"/><path class="p" d="M9,58.23c-1.64,2.21-4.25,3.85-4.45,6-.27,2.69,5.51,7.68,6.55,5.4S8.52,65,9.09,63.13s5.24-4.41,4.29-5.82S10.35,56.46,9,58.23Z"/><path class="q" d="M13.81,66.63c-1.09-2.17-1.64-4.44,1.1-6.27s4.29-2.87,4.85-2.55-1.08,2.65-1.12,4.48-1,4.55-2.27,5.13A1.89,1.89,0,0,1,13.81,66.63Z"/><path class="r" d="M21.78,56.12c1.7-1.31,1.65-2.73-.07-3.2s-1.85,2.15-1.58,2.71A1.16,1.16,0,0,0,21.78,56.12Z"/><path class="m" d="M7,55.79c2.41.25,5.14,1.11,5.56,2.58s1,4.4-1.55,4.59h-.39c-2.47-.1-5.22-2.71-5.22-2.71Z"/><path class="m" d="M5.11,59c2.33.25,4.5,1,5.16,2.75s.6,3.84-.56,4.09-3,0-3.69-.8.31-1,.31-1a3.27,3.27,0,0,1-1.62-.74C4.11,62.68,5.11,59,5.11,59Z"/><path class="s" d="M9.64,56.33c1,.27,2.87,1.36,2.13,2.65s-3,1-4.15.52c1.28.81,2.42,2.56,2,4.11-.38,1.33-2.87,2-3.55.55-.73.41.27,1.17.66,1.37a4.57,4.57,0,0,0,2.42.37,1.62,1.62,0,0,0,1.31-.67,5,5,0,0,0,.17-2.41c.17.37.91.06,1.17,0a1.76,1.76,0,0,0,1-1.11,9.83,9.83,0,0,0,0-2.1C12.8,57.58,11.29,56.91,9.64,56.33Z"/><path class="n" d="M11.36,63a1.82,1.82,0,0,0,1.22-.74c.54-.77.55-2.07,0-3.88C12.19,56.8,9.32,56,7,55.72a.09.09,0,0,0-.08.06s0,.07.06.07c2.28.25,5.09,1,5.51,2.54.49,1.77.49,3,0,3.77A1.84,1.84,0,0,1,11,62.9h-.38a.09.09,0,0,0-.07.06.07.07,0,0,0,.07.07H11Z"/><path class="n" d="M9.65,65.9h.08a1.11,1.11,0,0,0,.75-.6,4.85,4.85,0,0,0-.15-3.59c-.57-1.55-2.28-2.47-5.21-2.79A.08.08,0,0,0,5,59,.07.07,0,0,0,5.1,59c2.88.32,4.55,1.2,5.11,2.71a4.71,4.71,0,0,1,.15,3.48,1,1,0,0,1-.66.53c-1.13.25-3-.05-3.63-.78a.61.61,0,0,1-.2-.54c.08-.25.47-.36.47-.36a.08.08,0,0,0,0-.07.06.06,0,0,0,0-.06,3.24,3.24,0,0,1-1.58-.73.07.07,0,0,0-.09,0,.07.07,0,0,0,0,.1A3.15,3.15,0,0,0,6.1,64a.62.62,0,0,0-.35.36.67.67,0,0,0,.22.66C6.62,65.83,8.45,66.13,9.65,65.9Z"/><path class="m" d="M3.9,61.19c1.93.21,3.73.79,4.28,2.28s.5,3.19-.46,3.4a3.78,3.78,0,0,1-3.07-.67c-.54-.63.26-.83.26-.83a2.09,2.09,0,0,1-1-.57C3.41,64.3,3.9,61.19,3.9,61.19Z"/><path class="n" d="M7.66,66.93h.07a.93.93,0,0,0,.63-.49,4,4,0,0,0-.12-3c-.48-1.29-1.9-2.05-4.33-2.32a.06.06,0,0,0-.06,0,0,0,0,0,0,0,.06c2.4.26,3.78,1,4.24,2.25a3.88,3.88,0,0,1,.13,2.88.82.82,0,0,1-.55.44,3.71,3.71,0,0,1-3-.65c-.15-.17-.21-.31-.17-.44s.39-.3.39-.3a.06.06,0,0,0,0-.06.12.12,0,0,0,0,0,2.77,2.77,0,0,1-1.31-.6.06.06,0,1,0-.08.08,2.62,2.62,0,0,0,1.19.59.59.59,0,0,0-.29.31.6.6,0,0,0,.18.55A3.8,3.8,0,0,0,7.66,66.93Z"/><path class="t" d="M150,81.76c.49,9.46-15.42,30.11-29.29,35.19-15.84,5.81-21.48.13-22,.22-7,1-13.13-16.08-13.13-16.08l6.23-19,.81-.14a38.79,38.79,0,0,1,9.27-.39c5.17.48,20.8-2.8,27.53-7.66s8.38-8.39,10.28-8.92,4.61,1.9,4.61,1.9S149.5,71.78,150,81.76Z"/><path class="u" d="M150,81.76c.49,9.46-15.42,30.11-29.29,35.19-15.84,5.81-22.38.46-22.87.54-7,1-12.23-16.4-12.23-16.4l6.23-19,.81-.14a38.79,38.79,0,0,1,9.27-.39c5.17.48,20.8-2.8,27.53-7.66s8.38-8.39,10.28-8.92,4.61,1.9,4.61,1.9S149.5,71.78,150,81.76Z"/><path class="v" d="M91.57,81.51a.71.71,0,0,0-.29.28.67.67,0,0,0,0,.57l9.24,20.58a.9.9,0,0,0,.14.2c.06.06-11.9,7.65-9.64,9.35,1.94,1.47,4,4,7.43,5.5,1.42,2,22.48,5.6,38.27-12.55a55.93,55.93,0,0,0,6.95-7.81c4.45-6,6.87-11.88,6.66-16a28.09,28.09,0,0,0-2.92-11.39,16.13,16.13,0,0,0-2.56-3.81l0,0a11.25,11.25,0,0,0-1.69-1.23,4.69,4.69,0,0,0-3.54-.82,3.4,3.4,0,0,0-.57.23,11.79,11.79,0,0,0-2.62,2.33,47.89,47.89,0,0,1-7.29,6.46A22.43,22.43,0,0,1,126.49,75a57.87,57.87,0,0,1-13.38,4.59c-4.61,1-8.87,1.57-11.1,1.37a39.36,39.36,0,0,0-9.44.39c-.52.08-.82.14-.83.15a.49.49,0,0,0-.17.06Z"/><path class="w" d="M121.47,77.16s-2.78,5.29,1.57,16.52,14.13,11.37,14.13,11.37.79,1-.52,2.33-2.67,1.15-2.67,1.15a1.92,1.92,0,0,1-1.09,2c-3.51,2-11.41-5-15.53-13.24-3.64-7.25-4.48-15.92-1.57-19.12a1.1,1.1,0,0,1,1.92.11,2.37,2.37,0,0,1,1.78-1.8A1.67,1.67,0,0,1,121.47,77.16Z"/><path class="x" d="M142.64,97.93c-13.86-8.7-7.34-28.82-7.28-29l.39-.45c-.07.2-6.28,20.53,7.2,29Z"/><path class="y" d="M140,76.63c2.63,5,6.53,7.74,8.86,6.27s1.62-5.42-1-10.44-5.83-8.54-8.16-7.32C137.84,66.12,137.4,71.6,140,76.63Z"/><path class="z" d="M139.42,65.29c-.6,0-4.75,3.95-.07,12.43s11.29,7.6,10.86,3C147.57,89.65,134.51,73.43,139.42,65.29Z"/><path class="aa" d="M144,65.54s-3.38.31-4.24,2.81c-1.28,3.74,3.83,15.18,9.77,12.65,6.72-2.87-5.53-15.46-5.53-15.46Z"/><path class="j" d="M142.66,67a22.65,22.65,0,0,0,0,2.34,10.34,10.34,0,0,0,8.09,8.77S150.44,68.52,142.66,67Z"/><path class="ab" d="M91.28,81.33c-3.51.84-14,3-21.24,1.13a13.18,13.18,0,0,1-3-1.17s-.2.27-.53.8a1.27,1.27,0,0,0-.13.19c-1.72,2.78-6.2,11.39-6.51,25.86,0,1.79,0,3.66.09,5.63,0,.69.08,1.4.14,2.12a117.91,117.91,0,0,0-5.93,32.74c0,1.8,0,3.62,0,5.44,0,0-.53,2.1-1.33,5.41-2.28,9.62-9.48,28.53-8.79,36.69.91,10.94,18.38,26.92,18.38,26.92l9.21-1.59s.28-2.25.85-5.81c1.42-9,4.64-26.32,9.64-36.48l8,.45h0s14.78,18.69,18.24,23.64,14.74,13.45,21,15.54l.38.11.08,0,.36.1c5.71,1.51,8.82-1.9,8.82-1.9s.07-1.25.16-3.24c.12-2.63.29-6.53.36-10.44.11-5.2.07-10.4-.4-12.58-.81-3.73-13.37-30.79-19.87-44.66l-3.85-8.16h0a52.68,52.68,0,0,1-3-6l-4-.13Z"/><path class="ac" d="M72.58,157.38c.8-3.31,3.93-8.84,3.93-8.84-.07-1.83-1.84-1.74-1.79-3.54.45-17.47,4.8-26.79,4.8-26.79,0-.72-9.54-5.58-9.58-6.28-.1-2,6.7-1.77,6.73-3.55.31-14.47-7.15-17.06-5.43-19.84,0-.06-1.71-3.1-1.67-3.16.34-.53,2.1,2.37,2.1,2.37.91.49-1.4-.83-.31-.54,7.22,1.91,16.39-5,19.9-5.88L91,80.7c-1.37.33-3.79.85-6.63,1.26-5.81.83-10.73.78-14.23-.15a12.44,12.44,0,0,1-2.86-1.1.47.47,0,0,0-.15-.06.66.66,0,0,0-.7.24s-.21.29-.55.82a1.27,1.27,0,0,1-.07.12l0,.06,0,0a39.44,39.44,0,0,0-3.85,8.69,61.74,61.74,0,0,0-2.76,17.5c0,1.86,0,3.77.09,5.68,0,.63.07,1.31.13,2-.26.73-1.5,4.41-2.77,9.75a118.41,118.41,0,0,0-3.14,21.56c0,.54,0,1,0,1.5,0,1.91,0,3.68,0,5.39-.12.44-.62,2.43-1.31,5.32S50.29,166.23,49,170.4c-2.86,9.41-6.12,20.08-5.63,25.82a22.62,22.62,0,0,0,3.34,9.1,65.5,65.5,0,0,0,6.34,8.83A107,107,0,0,0,62,223.57a.57.57,0,0,0,.27.16.88.88,0,0,0,.28,0l9.21-1.59a.65.65,0,0,0,.54-.57s.28-2.29.84-5.79c1.44-9.13,4.57-25.81,9.4-35.91l7.23.41c1.7,2.16,14.83,18.8,18,23.38,1.69,2.42,5.28,5.78,9.6,9s8.71,5.78,11.72,6.78a3.44,3.44,0,0,0,.42.14l.08,0,.36.1a10.42,10.42,0,0,0,7-.43,7.72,7.72,0,0,0,2.48-1.67.6.6,0,0,0,.17-.41s.08-1.28.17-3.24c.12-2.6.28-6.5.36-10.46.09-4.47.1-10.31-.42-12.74-.8-3.7-12.82-29.66-19.92-44.8L116,137.85a.83.83,0,0,0-.07-.13s-6.88-14.53-8.71-18.55l2.54,11.46c2,4.35-4,3-4,3l-.65,7.21s-.9,7.77,3.73,3.49a34.05,34.05,0,0,0,2.8,7.89c6.5,13.88,17.41,37,18.21,40.7.47,2.18,5.53,6.11,5.42,11.31-.08,3.91,4,7,3.86,9.67-.09,2-.16,3.23-.16,3.23s-3.11,3.42-8.83,1.91l-.35-.1-.08,0-.39-.12c-6.24-2.08-9.8-14.69-13.27-19.65-1.77-2.53-9.37-9-13.58-14.37A68,68,0,0,0,92.56,175l-2.44-.65-11.29.2c-5,10.16-9.48,31.38-10.9,40.39-.57,3.55,3.71,6.52,3.71,6.52l-9.21,1.59"/><path class="ad" d="M62.45,223.09l9.21-1.59A29.52,29.52,0,0,0,73,216c1.42-9,4.73-26.22,9.73-36.39l-.58-.39-28-25.13s-.53,2.1-1.33,5.41c-2.28,9.62-9.48,28.53-8.79,36.69C45,207.11,62.45,223.09,62.45,223.09Z"/><path class="ae" d="M62.45,223.09l9.21-1.59A29.52,29.52,0,0,0,73,216c1.42-9,4.73-26.22,9.73-36.39l-.58-.39-28-25.13s-.53,2.1-1.33,5.41c-2.28,9.62-9.48,28.53-8.79,36.69C45,207.11,62.45,223.09,62.45,223.09Z"/><path class="af" d="M54.19,154.07a60.25,60.25,0,0,0,26.48,25.05l1.48.09,8,.45a.32.32,0,0,1,0-.07.83.83,0,0,1,0-.13.7.7,0,0,1,0-.12,1.1,1.1,0,0,1,0-.16c.7-3.44,6.68-24.88,26.07-41a52,52,0,0,1-3.43-6.81c-.19-.47-.55-1.29-.77-1.8-1-2.37-2.89-5-4.24-8.69-3-8-8-21-11.53-30h0l-2.63-6.73c-.25-.64-.48-1.21-.66-1.66-.35-.93-.56-1.44-.56-1.44S75.2,85.76,67,81.29c0,0-.2.27-.53.8a1.27,1.27,0,0,0-.13.19c-1.72,2.78-7.56,10.16-7.86,24.62,0,1.79.68,4.68.78,6.65,0,.7.16,1.49.21,2.21a133.56,133.56,0,0,0-5.34,32.87C54.11,150.43,54.12,152.25,54.19,154.07Z"/><path class="ag" d="M54.19,154.07a60.25,60.25,0,0,0,26.48,25.05l1.48.09,8,.45a.32.32,0,0,1,0-.07.83.83,0,0,1,0-.13.7.7,0,0,1,0-.12,1.1,1.1,0,0,1,0-.16c.7-3.44,6.68-24.88,26.07-41a52,52,0,0,1-3.43-6.81c-.19-.47-.55-1.29-.77-1.8-1-2.37-2.89-5-4.24-8.69-3-8-8-21-11.53-30h0l-2.63-6.73c-.25-.64-.48-1.21-.66-1.66-.35-.93-.56-1.44-.56-1.44S75.2,85.76,67,81.29c0,0-.2.27-.53.8a1.27,1.27,0,0,0-.13.19,45.64,45.64,0,0,0-7.77,25.35c0,1.79.59,4,.69,5.92,0,.7.16,1.49.21,2.21a133.56,133.56,0,0,0-5.34,32.87C54.11,150.43,54.12,152.25,54.19,154.07Z"/><path class="ah" d="M90.12,179.66s14,18.69,17.46,23.65,15,13.75,21.26,15.83c.15.06.82-.2,1-.17,5.94,1.76,9.18-1.8,9.18-1.8s.07-1.25.16-3.24c.12-2.63.72-7.14.8-11a58.87,58.87,0,0,0-.84-12c-.81-3.73-13.37-30.78-19.87-44.66l-3.85-8.16c-19.54,9.8-24.58,37.2-25.18,41.1a.44.44,0,0,0,0,.15.7.7,0,0,0,0,.12.83.83,0,0,0,0,.13A.42.42,0,0,0,90.12,179.66Z"/><path class="ai" d="M90.12,179.66s14,18.69,17.46,23.65,15,13.75,21.26,15.83c.15.06.82-.2,1-.17,5.94,1.76,9.18-1.8,9.18-1.8s.07-1.25.16-3.24c.12-2.63.72-7.14.8-11a58.87,58.87,0,0,0-.84-12c-.81-3.73-13.37-30.78-19.87-44.66l-3.85-8.16c-19.54,9.8-24.58,37.2-25.18,41.1a.44.44,0,0,0,0,.15.7.7,0,0,0,0,.12.83.83,0,0,0,0,.13A.42.42,0,0,0,90.12,179.66Z"/><path class="aj" d="M88.88,82.9s-9.14,4.58-12.56,4.95S67,81.3,67,81.3,74,82.64,88.88,82.9Z"/><path class="ak" d="M68.62,82.37s-11.81,15.2-9.17,33.15c0,0-10.2-21.54,4.92-33.67l2.76-.52Z"/><path class="al" d="M118.48,143.16s-14.42,7.08-26.22,40.31a2.2,2.2,0,0,1-1.93-.85,2.49,2.49,0,0,1-.63-2.32s5.17-35,26-43a1.83,1.83,0,0,1,1.69,3.06,1.35,1.35,0,0,1,1.46.95A1.79,1.79,0,0,1,118.48,143.16Z"/><path class="am" d="M53.49,147.11s12.29,26.23,29.05,32.77c0,0,.26.3,0,.91s-.62.63-.62.63-25.5-8.3-29.89-24c-1-3.56,1.46-3.36,1.46-3.36a7.39,7.39,0,0,1-1.29-3.3A4,4,0,0,1,53.49,147.11Z"/><path class="an" d="M136.08,181.42s2.27,10.88-9.18,17.11a25.69,25.69,0,0,1-22.09,1.09,4.56,4.56,0,0,0,1.07,3.24,5.26,5.26,0,0,0,2.38,1.76s-.58.87,1.61,2.93c3,2.79,12.74,2.91,21.43-1.61,7-3.63,9.94-11.23,10-12.92a4.23,4.23,0,0,0-1.65-3.62,8,8,0,0,0-.45-4.77A7.08,7.08,0,0,0,136.08,181.42Z"/><path class="ao" d="M82.54,179.88l.56,0c-.1-.17-10.59-18.23-12.79-30.92-1.9-11-1.2-16.67-.23-24.55.37-3,.79-6.35,1.09-10.4A178.67,178.67,0,0,1,75.06,88.2l-.57-.14a180.92,180.92,0,0,0-3.9,26c-.3,4-.72,7.4-1.08,10.37-1,7.92-1.68,13.65.23,24.72C72,161.9,82.44,179.71,82.54,179.88Z"/><path class="ap" d="M77.18,109.35a7.43,7.43,0,1,0,6.06-8.59A7.43,7.43,0,0,0,77.18,109.35Z"/><path class="aq" d="M79.88,108.77a4.87,4.87,0,1,0,4-5.62A4.87,4.87,0,0,0,79.88,108.77Z"/><path class="ar" d="M79.27,108.66a4.67,4.67,0,1,0,3.81-5.39A4.66,4.66,0,0,0,79.27,108.66Z"/><path class="as" d="M64,185.28a110.77,110.77,0,0,0,15.14,1.64l0-.58c-.26,0-25.5-.85-31.45-8.67l-.46.35C50.17,181.83,57.26,184,64,185.28Z"/><path class="at" d="M97.65,189.33l.34.43A41.9,41.9,0,0,1,101.61,177c4.86-10.45,21.83-21.37,22-21.48l-.32-.49c-.17.11-17.29,11.12-22.22,21.73A37.25,37.25,0,0,0,97.65,189.33Z"/><circle class="au" cx="114.48" cy="185.99" r="14.11"/><circle class="av" cx="114.61" cy="185.52" r="9.44"/><path class="aw" d="M53.48,154s3.44,9.76,15.65,18.55c8.54,6.15,8.82,5.74,8.82,5.74S58.47,169.55,53.48,154Z"/><path class="ax" d="M116.67,140.57s-10.84,5.62-19.41,23.56c-6,12.53-5.78,14.59-5.78,14.59S97.67,150.68,116.67,140.57Z"/><g class="k"><path class="ay" d="M133.26,108.43a19.6,19.6,0,0,1-6.2-3.47,26.26,26.26,0,0,1-9.28-15.79,33.61,33.61,0,0,1-.52-9.43c.18-1.34.22-1.19.2-1.16s-1.63,5.22.25,12.33C119.32,97.84,124.76,106.41,133.26,108.43Z"/></g><path class="j" d="M150.66,78.07a9,9,0,0,1-6.79-5.66,11.58,11.58,0,0,1-1.06-5c0-.34-.15-.28-.15-.27a10,10,0,0,0,.8,5.55C145.54,76.83,148.08,78,150.66,78.07Z"/><path class="az" d="M107.42,119.73s1.53,4.41,3.37,8.63a97.13,97.13,0,0,0,4.85,8.74"/><path class="ba" d="M107.44,119.72,109.5,124c.61,1.48,6.15,13.11,6.15,13.11s0,0,0,0h0c-.85-1.38-1.67-2.76-2.47-4.16s-1.58-2.8-2.26-4.26-1.24-3-1.83-4.45-1.13-3-1.66-4.51c0,0,0,0,0,0Z"/><path class="bb" d="M102,80l-8,2c-5,19,14.43,39.7,13.8,38.55C101,105,102,80,102,80Z"/><path class="m" d="M159.64,72.92a.35.35,0,0,0,0,.08,7.81,7.81,0,0,1-4.13,3.22l-.09,0a2.56,2.56,0,0,1-2.28,0,3.12,3.12,0,0,1-1.36-2.63,4.12,4.12,0,0,1-1.39-1.22,2.39,2.39,0,0,1,0-2.51,2.42,2.42,0,0,1,.12-.23,2.1,2.1,0,0,1,.25-.36s.47-.62,1-1.38a13.25,13.25,0,0,0,.68-1.21,3.26,3.26,0,0,0,.32-1c.14-1.18,1.29-2.3,3.9-2.2a4.94,4.94,0,0,1,3.18,1.13,2.16,2.16,0,0,1,.65,1.91,4.34,4.34,0,0,1,.49,1,3,3,0,0,1-.17,1.86,3.37,3.37,0,0,1,.11,1.6A6.35,6.35,0,0,1,159.64,72.92Z"/><path class="n" d="M153.05,76.26l-.18-.11a3.9,3.9,0,0,1-1.18-2.54,3.24,3.24,0,0,1-1.45-1.31,2.57,2.57,0,0,1,.3-3,0,0,0,0,1,.07,0,0,0,0,0,1,0,.07,2.5,2.5,0,0,0-.29,2.84,3.24,3.24,0,0,0,1.43,1.28s0,0,0,0,.19,1.86,1.15,2.49a2.59,2.59,0,0,0,2.31.19h0a8.43,8.43,0,0,0,5.28-5.06,1.82,1.82,0,0,0,.06-1.72s0,0,0,0a2,2,0,0,0,.24-1.31,3.08,3.08,0,0,0-.54-1.51.11.11,0,0,1,0,0,1.69,1.69,0,0,0-.11-1c-.58-1.6-2.23-1.88-3.77-1.94-2-.08-3.36.62-3.75,1.87,0,0,0,0-.06,0s0,0,0-.06c.4-1.29,1.84-2,3.84-1.94,1.49.06,3.26.34,3.86,2a1.82,1.82,0,0,1,.12,1.08,3.16,3.16,0,0,1,.55,1.55,2.15,2.15,0,0,1-.25,1.35,2.54,2.54,0,0,1-.06,2,8.21,8.21,0,0,1-5.36,4.92h0A2.82,2.82,0,0,1,153.05,76.26Z"/><path class="m" d="M157,64.78l-4.83-1.2s.9-1.82,1.08-2.35a9,9,0,0,1,.94-1.94,23.88,23.88,0,0,1,7.16-6.07c2.21-1,5.5-.87,6.43,1.12s-1.95,2.86-5.31,4.78S158.25,62.93,157,64.78Z"/><path class="n" d="M153.28,61a.06.06,0,0,1,0-.06,9.92,9.92,0,0,1,.82-1.71,23,23,0,0,1,7.2-6.1c2.33-1,5.58-.84,6.51,1.15.77,1.65-.95,2.55-3.34,3.79-.64.34-1.3.68-2,1.08a12.59,12.59,0,0,0-4.85,4.75l-.59.88a.06.06,0,0,1-.09,0,.07.07,0,0,1,0-.09l.59-.88a12.71,12.71,0,0,1,4.9-4.8c.69-.4,1.36-.74,2-1.08,2.41-1.25,4-2.08,3.28-3.61-.9-1.93-4.06-2.12-6.34-1.09a22.67,22.67,0,0,0-7.13,6A9.4,9.4,0,0,0,153.4,61a.07.07,0,0,1-.08,0Z"/><path class="bc" d="M167.16,55.31c-.38-.73-9.49,2.11-10.88,7.59,0,0-.15,1.82.95.28A15.07,15.07,0,0,1,163,58.1c2.73-1.22,3.46-1.42,4-2S167.16,55.31,167.16,55.31Z"/><path class="m" d="M145.06,67.91a5.5,5.5,0,0,0-.45,5.23A6.19,6.19,0,0,0,147,75.92c1.75,1.11,3.84,1.24,4.84-.1,1.55-2.1-4.66-9.16-4.66-9.16A2.49,2.49,0,0,0,145.06,67.91Z"/><path class="m" d="M144.45,67.26a6.25,6.25,0,0,0-.25,1.18,4.91,4.91,0,0,0,.45,2.56c.1.23.22.47.35.71a5.7,5.7,0,0,0,.68,1,3.5,3.5,0,0,0,1.17,1v0a4.27,4.27,0,0,0,5,3.64,10.83,10.83,0,0,0,5.3-2.06A8,8,0,0,0,159,73.44c1.2-1.77-1.53-5.52-3.31-7.74s-1.16-4.77-2.19-4.64-1.93,1.45-3.74,1.84l-.19,0A8,8,0,0,0,144.45,67.26Z"/><path class="m" d="M150.82,70.41c1.9-2.42.6-5.54-1.44-7.93s.94-4.25-1.21-6.29-4-.89-4.5-.2-.31,2.32,1.25,5.24-.89,4.47-.74,7a10.54,10.54,0,0,0,.14,2c.54,2.14,2.36,3.62,3.57,3A10,10,0,0,0,150.82,70.41Z"/><path class="n" d="M149.73,63h.05a6.77,6.77,0,0,0,2.33-1.15,3.43,3.43,0,0,1,1.36-.69.07.07,0,0,0,.06-.07.08.08,0,0,0-.08-.06,3.57,3.57,0,0,0-1.42.71,6.4,6.4,0,0,1-2.28,1.13.07.07,0,0,0-.05.08S149.72,62.94,149.73,63Z"/><path class="n" d="M148.61,76.72a4.47,4.47,0,0,0,3.2.72,12.07,12.07,0,0,0,6.79-3.18,11.81,11.81,0,0,1-6.8,3,4.19,4.19,0,0,1-4.89-3.63s0,0,0-.05a6.3,6.3,0,0,1-1.82-1.95,5.15,5.15,0,0,1-.84-3.54.08.08,0,0,0-.06-.08.07.07,0,0,0-.07.06,5.29,5.29,0,0,0,.85,3.63,6.71,6.71,0,0,0,1.85,2A4.29,4.29,0,0,0,148.61,76.72Z"/><path class="n" d="M144.06,68.72h0a.07.07,0,0,0,.07-.07,2.28,2.28,0,0,1,0-.45,1.14,1.14,0,0,0,0-.21,6.58,6.58,0,0,1,.7-2.63,4.14,4.14,0,0,0,0-4.18c-1.83-3.41-1.57-4.69-1.26-5.16a2.49,2.49,0,0,1,1.69-.92,3.47,3.47,0,0,1,2.72,1.12,2.69,2.69,0,0,1,.62,3,3.31,3.31,0,0,0,.58,3.32c2,2.33,3.74,4.85,1.67,7.85a7.66,7.66,0,0,1-1.33,1.56.06.06,0,0,0,0,.09.06.06,0,0,0,.09,0,7.89,7.89,0,0,0,1.36-1.58c2.12-3.08.33-5.65-1.68-8a3.21,3.21,0,0,1-.55-3.21,2.79,2.79,0,0,0-.66-3.09A3.5,3.5,0,0,0,145.4,55a2.58,2.58,0,0,0-1.79,1c-.57.84-.13,2.72,1.25,5.3a3.93,3.93,0,0,1-.05,4.06A7.08,7.08,0,0,0,144.1,68s0,.12,0,.2a3.75,3.75,0,0,0-.05.47A.09.09,0,0,0,144.06,68.72Z"/><path class="bd" d="M156.22,65.6c.7,2.66,2.52,5.15,1.93,7.21-.76,2.6-8,5.1-8.09,2.58s4.13-3.28,4.3-5.25-3.24-6-1.83-7S155.66,63.48,156.22,65.6Z"/><path class="be" d="M148.68,71.64c1.82-1.61,3.17-3.51,1.3-6.23s-2.93-4.25-3.57-4.17,0,2.87-.61,4.59-.78,4.58.21,5.6A1.88,1.88,0,0,0,148.68,71.64Z"/><path class="bf" d="M145.16,58.93c-1.09-1.84-.52-3.15,1.25-3s.92,2.68.46,3.11A1.17,1.17,0,0,1,145.16,58.93Z"/><path class="m" d="M159,64.09c-2.33-.65-5.19-.87-6.12.35s-2.57,3.71-.26,4.83a2.75,2.75,0,0,0,.36.15c2.33.82,5.85-.59,5.85-.59Z"/><path class="m" d="M159.6,67.75c-2.26-.62-4.54-.78-5.82.65s-2,3.34-1,4,2.84,1.08,3.73.62.08-1,.08-1a3.38,3.38,0,0,0,1.77-.09C159.16,71.56,159.6,67.75,159.6,67.75Z"/><path class="bg" d="M156.36,63.62c-1.05-.13-3.17.19-3,1.67s2.42,2,3.67,2c-1.49.27-3.19,1.48-3.35,3.09-.14,1.38,1.94,2.89,3.09,1.82.53.65-.68,1-1.12,1a4.51,4.51,0,0,1-2.38-.55,1.64,1.64,0,0,1-1-1.1c-.11-.82.46-1.59.73-2.31-.29.28-.87-.29-1.06-.48a1.76,1.76,0,0,1-.55-1.41,10.87,10.87,0,0,1,.78-2C153,63.61,154.62,63.54,156.36,63.62Z"/><path class="n" d="M152.31,69.16a1.85,1.85,0,0,1-.86-1.14c-.22-.91.25-2.13,1.39-3.63,1-1.28,3.95-1,6.2-.36a.06.06,0,1,1,0,.12c-2.2-.62-5.11-.9-6.05.33-1.12,1.45-1.58,2.64-1.38,3.51a1.88,1.88,0,0,0,1.1,1.22,3.68,3.68,0,0,0,.35.15.06.06,0,0,1,0,.12,2.39,2.39,0,0,1-.37-.15Z"/><path class="n" d="M152.82,72.51l-.07-.05a1.1,1.1,0,0,1-.48-.83,4.87,4.87,0,0,1,1.46-3.28c1.11-1.23,3-1.45,5.88-.66a.06.06,0,0,1,0,.08.07.07,0,0,1-.08,0c-2.8-.77-4.68-.56-5.75.63a4.74,4.74,0,0,0-1.43,3.18,1,1,0,0,0,.42.73c1,.65,2.81,1.07,3.67.62a.6.6,0,0,0,.38-.42c0-.27-.3-.51-.31-.52a.07.07,0,0,1,0-.08.06.06,0,0,1,.08,0,3.29,3.29,0,0,0,1.73-.1.07.07,0,1,1,.05.13,3.17,3.17,0,0,1-1.59.14.67.67,0,0,1,.19.47.73.73,0,0,1-.45.53C155.66,73.55,153.84,73.16,152.82,72.51Z"/><path class="m" d="M159.9,70.25c-1.87-.52-3.76-.65-4.82.54s-1.65,2.77-.83,3.32a3.8,3.8,0,0,0,3.1.52c.73-.38.07-.87.07-.87a2.05,2.05,0,0,0,1.14-.16C159.21,73.33,159.9,70.25,159.9,70.25Z"/><path class="n" d="M154.28,74.2l-.06,0a.93.93,0,0,1-.4-.69A4,4,0,0,1,155,70.75c.92-1,2.51-1.21,4.88-.55,0,0,0,0,0,.06a0,0,0,0,1-.06,0c-2.32-.64-3.88-.47-4.77.52a4,4,0,0,0-1.19,2.64.85.85,0,0,0,.35.61,3.74,3.74,0,0,0,3,.51c.2-.1.31-.22.32-.35s-.25-.42-.26-.43,0,0,0-.06a0,0,0,0,1,.06,0,2.8,2.8,0,0,0,1.44-.08.05.05,0,0,1,.07,0,.05.05,0,0,1,0,.07,2.65,2.65,0,0,1-1.32.12.56.56,0,0,1,.16.39.59.59,0,0,1-.38.44A3.81,3.81,0,0,1,154.28,74.2Z"/><path class="bh" d="M108.71,80.39S89.18,95.83,74.52,102s-6-21.63-6-21.63L82.8,82.17Z"/><path class="bi" d="M40.3,60.92c0,.15.13,1,.19,1.16a49.32,49.32,0,0,1,4,5.5s.54.45.8.71A41.86,41.86,0,0,0,62.08,79.23c11.49,4,28.56,6.07,41.76,0S124.35,50.11,123,41.66c-.35-2.26-2.22-1.53-3.17-4.9-2.58-9.16-4.21-20.11-16.67-26-9.41-4.41-22.12-8.26-33-7.18a54,54,0,0,0-9.67,1.75c-1.79.54-3,0-4.24.79l-.32,1a10.72,10.72,0,0,0-1.15.72C38.16,21.57,37.58,50.31,40.3,60.92Z"/><path class="bj" d="M41.75,60c0,.14.07.28.12.42,1.92,3.26,9.07,12.26,24.9,12.05a28.53,28.53,0,0,0,26-16.2l3.74.18c.52-2.44,1.11-4.67,1.73-6.69,3.45-11.31,7.88-16.14,8.19-17.82C106.82,30,105.2,18,93,10.43A41.31,41.31,0,0,0,70,4.6a45.26,45.26,0,0,0-8.6,1.62A21.2,21.2,0,0,0,57.06,8l-.5.31a8.94,8.94,0,0,0-1,.69C49.14,14.36,45.22,22.33,43,30.54,39.92,42.12,40.26,54.19,41.75,60Z"/><path class="bk" d="M41.8,60c0,.14.07.28.12.42,1.92,3.26,9.07,12.26,24.91,12a28.53,28.53,0,0,0,26-16.2l3.74.18c.52-2.45,1.11-4.67,1.73-6.69,3.45-11.32,7.89-16.14,8.19-17.82.36-2-1.26-13.95-13.45-21.52a41.31,41.31,0,0,0-23-5.83,45.26,45.26,0,0,0-8.6,1.62,20.66,20.66,0,0,0-4.36,1.81l-.5.31a8.94,8.94,0,0,0-1,.69c-6.47,5.33-10.39,13.3-12.58,21.51C40,42.14,40.31,54.21,41.8,60Z"/><path class="bl" d="M41.63,61.19c0,.14.08.28.13.42,1.91,3.27,9.06,12.27,24.9,12a28.53,28.53,0,0,0,26-16.2l3.74.19Q97.22,54,98.16,51c3.45-11.32,7.88-16.15,8.18-17.83.36-2-1.26-14-13.45-21.51a41.23,41.23,0,0,0-23-5.84A45.26,45.26,0,0,0,61.3,7.4a20.65,20.65,0,0,0-4.36,1.82l-.5.31a8.89,8.89,0,0,0-.95.68C49,15.55,45.11,23.51,42.91,31.72,39.81,43.3,40.14,55.37,41.63,61.19Z"/><path class="bm" d="M41.63,60.19c0,.14.08.28.13.42,1.91,3.27,9.06,12.27,24.9,12a28.53,28.53,0,0,0,26-16.2l3.74.19Q97.22,53,98.16,50c3.45-11.32,7.88-16.15,8.18-17.83.36-2-1.26-14-13.45-21.51a41.23,41.23,0,0,0-23-5.84A45.26,45.26,0,0,0,61.3,6.4a20.65,20.65,0,0,0-4.36,1.82l-.5.31a8.89,8.89,0,0,0-.95.68C49,14.55,45.11,22.51,42.91,30.72,39.81,42.3,40.14,54.37,41.63,60.19Z"/><path class="bn" d="M59.21,66.39c-.05-.14-.08-.28-.12-.42-1.49-5.83-1.83-17.89,1.27-29.48,2.2-8.2,6.12-16.17,12.58-21.51a8.89,8.89,0,0,1,1-.68l.5-.31a20.88,20.88,0,0,1,4.36-1.82,46.21,46.21,0,0,1,8.6-1.62,49.11,49.11,0,0,1,5.33.15l-.51-.32a41.31,41.31,0,0,0-23-5.84,46.05,46.05,0,0,0-8.6,1.62A20.65,20.65,0,0,0,56.22,8l-.5.31a8.89,8.89,0,0,0-.95.68c-6.46,5.34-10.38,13.31-12.58,21.51C39.09,42.07,39.42,54.13,40.91,60c.05.14.08.28.13.42,1.86,3.17,8.67,11.76,23.6,12A22.71,22.71,0,0,1,59.21,66.39Z"/><path class="bo" d="M124,33.8c-2.43-9.2-8.1-20.87-20.56-26.72-9.41-4.42-23.1-5.81-34-4.73A48.29,48.29,0,0,0,60.3,4.08,21.91,21.91,0,0,0,55.65,6l-.53.33a10,10,0,0,0-1,.72C37.5,20.77,36.62,50.82,39.33,61.43a36.1,36.1,0,0,0,4.47,7.29s.12.15.37.4A45,45,0,0,0,61.56,80.49c11.5,4.06,29.37,6.33,42.56.22S129,52.42,124,33.8ZM66.44,72.44c-15.83.22-23-8.78-24.9-12,0-.13-.08-.28-.12-.42-1.49-5.82-1.83-17.88,1.28-29.47C44.89,22.29,48.81,14.33,55.28,9a8.89,8.89,0,0,1,.95-.68l.5-.31a20.43,20.43,0,0,1,4.36-1.82,45.9,45.9,0,0,1,8.6-1.62,41.33,41.33,0,0,1,23,5.84c12.19,7.57,13.81,19.53,13.45,21.51-.31,1.68-4.74,6.51-8.19,17.83-.62,2-1.21,4.24-1.74,6.69l-3.73-.19A28.51,28.51,0,0,1,66.44,72.44Z"/><path class="bp" d="M44.07,69.09A44.89,44.89,0,0,0,61.46,80.46C73,84.51,91,87.1,104,80.67c24.15-11.91,26.09-51,14.47-50.33S100,59.85,100,59.85L95.76,58.6S89.05,75.34,70.11,77.53C53.53,79.44,45.86,70.86,44.07,69.09Z"/><path class="bq" d="M110.3,76.41c-5.2,3-11.68,0-9.87-15.79,3-26.2,19.38-30.35,19.38-30.35-17.58-3-22.06,27.38-22.06,27.38,0,1.19,0,2.3,0,3.34v.11C98.07,83.26,109.31,77,110.3,76.41Z"/><path class="br" d="M101.29,11.54s-11.14-7.4-19-9.08C82.3,2.46,110.7,5.8,101.29,11.54Z"/><polygon class="br" points="106.23 41.81 103.38 40.24 101.75 43.55 104.56 44.79 106.23 41.81"/><ellipse class="bs" cx="114.17" cy="54.92" rx="15.71" ry="8.52" transform="translate(23.4 143.31) rotate(-69.93)"/><ellipse class="bt" cx="114.92" cy="55.2" rx="10.57" ry="6.14" transform="translate(23.65 144.21) rotate(-69.94)"/><ellipse class="bu" cx="115.78" cy="55.42" rx="10.5" ry="5.55" transform="translate(23.99 145.15) rotate(-69.93)"/><ellipse class="bv" cx="115.76" cy="55.42" rx="10.57" ry="5.58" transform="translate(23.98 145.13) rotate(-69.93)"/><g class="bw"><path class="bx" d="M128.7,112.74a2.67,2.67,0,0,0,.26-.17Z"/><path class="by" d="M139.49,207.19h0s-6.92,9.87-18.91,5.8c-9.53-3.24-22.65-23-21-36,2-16.08,14-26.67,20.26-31.1-.44-.94-1.32-2.73-1.32-2.73a2.25,2.25,0,0,0,.29-2,1.68,1.68,0,0,0-1.38-.82,2,2,0,0,0,.22-2.1,1.84,1.84,0,0,0-1.91-1s-4.34-8.19-8.44-17.9a34.68,34.68,0,0,0,20.91-6.51C90,117,108.71,80.39,108.71,80.39c-4.43.87-8.39.45-8.58.23-1.53-1.77-4.9,1.48-4.9,1.48l-1.31.16c0,.44-.13,1-.21,1.77a105.72,105.72,0,0,0-.24,20.51v0c15,29.25-2.39,98-35.42,49.62-1.82-2.67-3.73-6-4.53-7.18-1,1.11-2.31,3.14,0,6.93a1.66,1.66,0,0,0-1.68,2,16.93,16.93,0,0,0,.58,2.54c.7,10.63,13.81,18.64,18.75,34.6,2.71,8.76.63,22.59.63,22.59l.74-.13c1.42-9,5-25.53,10-35.7l7.16.42a2.7,2.7,0,0,0,.74,2.35,2.4,2.4,0,0,0,1.82.82l12.55,16.15a4.84,4.84,0,0,0,1.07,3.24,4.63,4.63,0,0,0,2.48,1.79s-.54.76.88,2.27a8.75,8.75,0,0,0,3.64,2.1s8.72,7.42,14.55,9.86c.15.07,2.26,0,2.41,0l9.34-5C139.3,211.19,139.42,211.1,139.49,207.19Z"/></g></g></svg>