<svg xmlns="http://www.w3.org/2000/svg" xmlns:xlink="http://www.w3.org/1999/xlink" viewBox="0 0 40 74"><defs><style>.a{isolation:isolate;}.b{fill:#ff8425;}.c{fill:#5f6cd0;mix-blend-mode:screen;opacity:0.37;}.d{fill:url(#a);}.e{fill:url(#b);}.f,.j,.k,.x{fill:#4b288c;}.ac,.af,.ag,.f,.h,.l,.o,.w,.x{mix-blend-mode:multiply;}.f,.n,.w{opacity:0.3;}.g{fill:url(#c);}.h,.k,.l,.x,.z{opacity:0.2;}.h{fill:url(#d);}.i{fill:url(#e);}.j{opacity:0.1;}.l{fill:url(#f);}.m{fill:url(#g);}.n{fill:#fff;}.n,.z{mix-blend-mode:soft-light;}.ac,.af,.ag,.o{opacity:0.15;}.o{fill:url(#h);}.p{fill:url(#i);}.q{fill:url(#j);}.r{fill:url(#k);}.s{fill:url(#l);}.t{fill:url(#m);}.u{fill:url(#n);}.v{fill:url(#o);}.w{fill:#4a3da1;}.y{fill:url(#p);}.aa{fill:url(#q);}.ab{fill:url(#r);}.ac{fill:url(#s);}.ad{fill:url(#t);}.ae{fill:url(#u);}.af{fill:url(#v);}.ag{fill:url(#w);}.ah{fill:url(#x);}</style><linearGradient id="a" x1="7.96" y1="54.97" x2="12.94" y2="54.97" gradientUnits="userSpaceOnUse"><stop offset="0" stop-color="#8853c2"/><stop offset="0.55" stop-color="#4b288c"/><stop offset="1" stop-color="#4568af"/></linearGradient><linearGradient id="b" x1="27.39" y1="54.97" x2="32.37" y2="54.97" xlink:href="#a"/><linearGradient id="c" x1="10.45" y1="25.4" x2="10.45" y2="42.84" gradientUnits="userSpaceOnUse"><stop offset="0" stop-color="#fff"/><stop offset="1" stop-color="#bdcaed"/></linearGradient><linearGradient id="d" x1="9.48" y1="32.77" x2="11.56" y2="32.77" gradientUnits="userSpaceOnUse"><stop offset="0" stop-color="#fff"/><stop offset="1" stop-color="#4b288c"/></linearGradient><linearGradient id="e" x1="27.79" y1="32.76" x2="31.97" y2="32.76" xlink:href="#c"/><linearGradient id="f" x1="29.13" y1="32.77" x2="31.21" y2="32.77" xlink:href="#d"/><linearGradient id="g" x1="31.55" y1="25.49" x2="12.02" y2="25.49" gradientUnits="userSpaceOnUse"><stop offset="0" stop-color="#8853c2"/><stop offset="0.57" stop-color="#4b288c"/><stop offset="0.82" stop-color="#4b288c"/><stop offset="1" stop-color="#4568af"/></linearGradient><linearGradient id="h" x1="16.77" y1="25.49" x2="22.98" y2="25.49" xlink:href="#d"/><linearGradient id="i" x1="1.39" y1="31.05" x2="20.17" y2="31.05" xlink:href="#c"/><linearGradient id="j" x1="-6.95" y1="47.67" x2="12.3" y2="47.67" gradientUnits="userSpaceOnUse"><stop offset="0" stop-color="#c07cf4"/><stop offset="1" stop-color="#4b288c"/></linearGradient><linearGradient id="k" x1="0.92" y1="49.91" x2="20.17" y2="49.91" xlink:href="#c"/><linearGradient id="l" x1="44.6" y1="31.25" x2="11.8" y2="30.99" xlink:href="#c"/><linearGradient id="m" x1="41.39" y1="48.1" x2="20.39" y2="47.32" xlink:href="#j"/><linearGradient id="n" x1="39.01" y1="49.91" x2="20.44" y2="49.91" xlink:href="#c"/><linearGradient id="o" x1="26.61" y1="53.63" x2="11.98" y2="53.92" xlink:href="#j"/><linearGradient id="p" x1="23.86" y1="14.4" x2="15.46" y2="14.4" xlink:href="#j"/><linearGradient id="q" x1="16.95" y1="30.97" x2="26.66" y2="30.97" xlink:href="#c"/><linearGradient id="r" x1="23.24" y1="20.01" x2="16.37" y2="20.2" xlink:href="#j"/><linearGradient id="s" x1="18.18" y1="30.97" x2="22.71" y2="30.97" xlink:href="#d"/><linearGradient id="t" x1="14.77" y1="49.08" x2="19.8" y2="49.08" xlink:href="#c"/><linearGradient id="u" x1="20.54" y1="49.08" x2="28.09" y2="49.08" xlink:href="#c"/><linearGradient id="v" x1="15.32" y1="49.08" x2="18.67" y2="49.08" xlink:href="#d"/><linearGradient id="w" x1="22.44" y1="49.08" x2="25.42" y2="49.08" xlink:href="#d"/><linearGradient id="x" x1="19.43" y1="49.12" x2="21.32" y2="49.12" xlink:href="#c"/></defs><g class="a"><rect class="b" x="8.88" y="55.69" width="3.29" height="18.31"/><rect class="b" x="28.23" y="55.69" width="3.29" height="18.31"/><rect class="b" x="16.12" y="54.72" width="7.58" height="19.31"/><rect class="c" x="18.9" y="54.72" width="3.58" height="19.31"/><rect class="c" x="10.55" y="54.62" width="0.87" height="19.38"/><rect class="c" x="28.99" y="54.62" width="1.08" height="19.38"/><polygon class="d" points="8.6 54.21 7.96 55.73 12.94 55.73 12.29 54.21 8.6 54.21"/><polygon class="e" points="28.04 54.21 27.39 55.73 32.37 55.73 31.72 54.21 28.04 54.21"/><polygon class="f" points="12.29 54.21 8.6 54.21 8.34 54.83 12.55 54.83 12.29 54.21"/><polygon class="f" points="31.72 54.21 28.04 54.21 27.77 54.83 31.99 54.83 31.72 54.21"/><polygon class="f" points="12.29 54.21 10.44 54.21 10.44 55.73 12.94 55.73 12.29 54.21"/><polygon class="f" points="31.72 54.21 29.88 54.21 29.88 55.73 32.37 55.73 31.72 54.21"/><path class="g" d="M12.54,13.89c0-1-2.09-2.57-2.09-2.57s-2.1,1.59-2.1,2.57V54.21h4.19Z"/><path class="h" d="M12.54,13.89c0-1-1.89-2.48-2.08-2.56V54.21h2.08Z"/><path class="i" d="M32,13.89c0-1-2.09-2.57-2.09-2.57s-2.09,1.59-2.09,2.57V54.21H32Z"/><path class="j" d="M27.79,19.27V54.21H32V22.44Z"/><path class="k" d="M12.54,50.32H8.35v1.42h4.19Z"/><path class="k" d="M32,50.32H27.79v1.42H32Z"/><path class="l" d="M32,13.89c0-1-1.95-2.51-2.08-2.57V54.21H32Z"/><path class="m" d="M26.34,12.53V50H14V12.53c0-.29,0-.57,0-.85s0-.42,0-.62A13.21,13.21,0,0,1,20.17,1a13.42,13.42,0,0,1,6.1,10.06c0,.2,0,.41.05.62S26.34,12.24,26.34,12.53Z"/><path class="n" d="M14.72,49.55V12.1A13.43,13.43,0,0,1,20.21,1l0,0A13.32,13.32,0,0,0,14,12.53V50H26.34v-.43Z"/><path class="o" d="M26.34,12.53A13.48,13.48,0,0,0,20.17,1l0,0V50h6.21Z"/><path class="p" d="M20.17,15.62,15.69,28.4s-1.67,7.78-3.21,9-6.35,4.7-10.43,7.83a2.7,2.7,0,0,0-.66,1.3H20.17Z"/><path class="q" d="M1.39,46.49a19.59,19.59,0,0,0-.47,2.35l19.25,0V46.49Z"/><polygon class="r" points="0.92 48.84 0.92 48.84 1.54 51.01 20.17 51.01 20.17 48.82 0.92 48.84"/><path class="s" d="M38.28,45.19c-4.08-3.13-8.77-6.57-10.42-7.83s-3.22-9-3.22-9L20.17,15.62V46.49H38.94A2.7,2.7,0,0,0,38.28,45.19Z"/><path class="t" d="M20.17,46.49v2.33l19.24,0a17.58,17.58,0,0,0-.47-2.35Z"/><polygon class="u" points="39.41 48.84 39.41 48.84 38.79 51.01 20.17 51.01 20.17 48.82 39.41 48.84"/><path class="v" d="M23.05,52.62H17.28a2.11,2.11,0,0,0-2.1,2.1v.13h10v-.13A2.1,2.1,0,0,0,23.05,52.62Z"/><path class="f" d="M23.05,52.62H17.28a2.09,2.09,0,0,0-1.65.81H24.7A2.12,2.12,0,0,0,23.05,52.62Z"/><path class="w" d="M26.32,11.68H14c0-.21,0-.42,0-.62H26.27C26.29,11.26,26.31,11.47,26.32,11.68Z"/><rect class="w" x="8.35" y="15.04" width="4.19" height="0.31"/><rect class="w" x="8.35" y="16.93" width="4.19" height="0.31"/><rect class="w" x="8.35" y="31.36" width="4.19" height="0.31"/><rect class="w" x="27.79" y="31.36" width="4.18" height="0.31"/><rect class="w" x="27.79" y="15.04" width="4.18" height="0.31"/><rect class="w" x="27.79" y="16.93" width="4.18" height="0.31"/><path class="x" d="M25.86,45V22.07A13.12,13.12,0,0,0,24.42,16c-1.05-2-2.41-3.14-3.07-3.14s-2,1.11-3.08,3.14a13.19,13.19,0,0,0-1.43,6.12V45L15,46.6V51h12.8V46.6Z"/><path class="y" d="M20.17,12.81c-.66,0-2,1.12-3.09,3.18h6.16C22.18,14,20.82,12.81,20.17,12.81Z"/><path class="z" d="M20.17,12.81h0V16h3.07C22.18,14,20.82,12.81,20.17,12.81Z"/><path class="aa" d="M17.08,16a13.6,13.6,0,0,0-1.43,6.22V46h9V22.21A13.67,13.67,0,0,0,23.24,16Z"/><path class="ab" d="M17.78,21a.47.47,0,0,1-.3-.1.53.53,0,0,1-.15-.75l.45-.69a.56.56,0,0,1,.46-.24h3.9a.55.55,0,0,1,.46.24l.46.69a.55.55,0,0,1-.16.75.53.53,0,0,1-.75-.15l-.3-.44H18.53l-.3.44A.54.54,0,0,1,17.78,21Z"/><path class="ac" d="M24.67,22.21A13.67,13.67,0,0,0,23.24,16h-3.1V46h4.53Z"/><polygon class="ad" points="15.86 45.32 13.77 47.11 13.77 52.84 19.91 52.84 19.91 45.32 15.86 45.32"/><polygon class="ae" points="26.56 47.11 24.46 45.32 19.91 45.32 19.91 52.84 26.56 52.84 26.56 47.11"/><polygon class="k" points="20.24 43.35 20.24 52.84 21.61 52.84 21.61 43.98 20.89 43.35 20.24 43.35"/><rect class="af" x="16.76" y="45.32" width="3.35" height="7.53"/><polygon class="ag" points="26.56 47.11 24.46 45.32 23.57 45.32 23.57 52.84 26.56 52.84 26.56 47.11"/><rect class="w" x="13.77" y="47.38" width="12.79" height="0.31"/><rect class="w" x="15.65" y="37.27" width="9.02" height="0.31"/><rect class="w" x="15.65" y="28.6" width="9.02" height="0.31"/><rect class="ah" x="19.43" y="43.35" width="1.47" height="11.53"/></g></svg>