<svg xmlns="http://www.w3.org/2000/svg" xmlns:xlink="http://www.w3.org/1999/xlink" viewBox="0 0 141 106"><defs><style>.a{isolation:isolate;}.b{fill:#27221e;}.c{fill:#ffe3f3;}.d{fill:#bc93ab;}.e{fill:#e6c2d6;}.f{fill:url(#a);}.g{fill:url(#b);}.h{fill:#ffbd1a;}.i{fill:#dbb9cc;}.j{fill:#cb9fb8;}.k{fill:#3a273d;}.l{fill:url(#j);}.m{fill:#c098b0;}.n{fill:#d6b3c7;}.o{fill:#291b2b;}.p{fill:url(#k);}.q{fill:#ffc0e7;mix-blend-mode:screen;opacity:0.2;}.r{fill:url(#l);}.s{fill:url(#m);}.t{fill:url(#n);}.u{fill:url(#o);}.v{fill:url(#p);}.w{fill:url(#q);}.x{fill:url(#r);}.y{fill:url(#s);}.z{fill:url(#t);}.aa{fill:url(#u);}.ab{fill:url(#v);}.ac{fill:url(#w);}.ad{fill:#1f1421;}.ae{fill:#ed2c2c;}.af{fill:#0e0b0a;}</style><radialGradient id="a" cx="79.92" cy="39.43" r="72.69" gradientUnits="userSpaceOnUse"><stop offset="0" stop-color="#f4f1ff"/><stop offset="1" stop-color="#d1bde5"/></radialGradient><radialGradient id="b" cx="126.08" cy="38.4" r="36.98" xlink:href="#a"/><linearGradient id="j" x1="89.62" y1="50.79" x2="94.44" y2="50.79" gradientUnits="userSpaceOnUse"><stop offset="0" stop-color="#bc93ab"/><stop offset="1" stop-color="#dbb9cc"/></linearGradient><linearGradient id="k" x1="58.51" y1="31.02" x2="62.86" y2="31.02" gradientUnits="userSpaceOnUse"><stop offset="0" stop-color="#bc93ab"/><stop offset="1" stop-color="#dbb9cc"/></linearGradient><linearGradient id="l" x1="46.46" y1="28.24" x2="75.02" y2="28.24" gradientUnits="userSpaceOnUse"><stop offset="0.07" stop-color="#ffa756" stop-opacity="0"/><stop offset="0.58" stop-color="#8f56c7" stop-opacity="0.69"/></linearGradient><linearGradient id="m" x1="59.87" y1="27.95" x2="61.5" y2="27.95" xlink:href="#k"/><linearGradient id="n" x1="92.09" y1="11.5" x2="96.44" y2="11.5" xlink:href="#k"/><linearGradient id="o" x1="80.04" y1="8.71" x2="108.59" y2="8.71" xlink:href="#l"/><linearGradient id="p" x1="93.45" y1="8.43" x2="95.08" y2="8.43" xlink:href="#k"/><linearGradient id="q" x1="123.5" y1="29.72" x2="127.84" y2="29.72" xlink:href="#k"/><linearGradient id="r" x1="111.45" y1="26.93" x2="140" y2="26.93" xlink:href="#l"/><linearGradient id="s" x1="124.85" y1="26.65" x2="126.48" y2="26.65" xlink:href="#k"/><linearGradient id="t" x1="34.44" y1="79.94" x2="76.98" y2="28.24" gradientUnits="userSpaceOnUse"><stop offset="0.07" stop-color="#ffa756" stop-opacity="0"/><stop offset="1" stop-color="#8f56c7" stop-opacity="0.69"/></linearGradient><linearGradient id="u" x1="89.85" y1="49.15" x2="94.2" y2="49.15" xlink:href="#k"/><linearGradient id="v" x1="77.8" y1="46.37" x2="106.35" y2="46.37" xlink:href="#l"/><linearGradient id="w" x1="91.21" y1="46.08" x2="92.84" y2="46.08" xlink:href="#k"/></defs><g class="a"><path class="b" d="M96.47,33.25a2.37,2.37,0,0,1-2.14,0,.66.66,0,0,1,0-1.24,2.37,2.37,0,0,1,2.14,0A.66.66,0,0,1,96.47,33.25Z"/><path class="b" d="M96.91,32.62v.56a.75.75,0,0,1-.44.63,2.37,2.37,0,0,1-2.14,0,.79.79,0,0,1-.45-.61v-.56a.79.79,0,0,0,.45.61,2.37,2.37,0,0,0,2.14,0A.76.76,0,0,0,96.91,32.62Z"/><path class="c" d="M96.28,12.73a.38.38,0,0,1-.32-.19A.38.38,0,0,1,96.1,12l9-5.17a.44.44,0,0,0,.22-.39V4.72a.38.38,0,0,1,.75,0V6.47a1.18,1.18,0,0,1-.6,1l-9,5.18A.41.41,0,0,1,96.28,12.73Z"/><path class="c" d="M92,12.52a.41.41,0,0,1-.18,0l-9-5.18a1.18,1.18,0,0,1-.6-1V4.72a.38.38,0,0,1,.75,0V6.26a.44.44,0,0,0,.22.39l9,5.17a.38.38,0,0,1,.14.51A.39.39,0,0,1,92,12.52Z"/><path class="c" d="M126.38,30.1a.37.37,0,0,1-.18-.69l9-5.17a.44.44,0,0,0,.22-.39V22.58a.38.38,0,0,1,.75,0v1.27a1.18,1.18,0,0,1-.6,1l-9,5.18A.41.41,0,0,1,126.38,30.1Z"/><path class="d" d="M59.67,31.2a.41.41,0,0,1-.19-.05l-9-5.18a1.17,1.17,0,0,1-.59-1V23.69a.37.37,0,0,1,.37-.37.38.38,0,0,1,.37.37V25a.44.44,0,0,0,.22.38l9,5.18A.37.37,0,0,1,60,31,.37.37,0,0,1,59.67,31.2Z"/><g class="a"><path class="d" d="M92.87,11.79l-1-.18v1.61a1,1,0,0,0,.43.79,2.17,2.17,0,0,1,.86,1.64L93.3,14l.3-1.78Z"/><path class="e" d="M96.64,11.62v1.61a1.08,1.08,0,0,1-.41.76,2.29,2.29,0,0,0-.85,1.71l-.32-1.62c0-.61-.13-1.6.44-2.1a3.4,3.4,0,0,1,1.13-.36Z"/><path class="f" d="M95.43,20.15l0-6.06a2.24,2.24,0,0,1,.85-1.71,1,1,0,0,0,.39-.86,1.3,1.3,0,0,0-.71-.89,3.25,3.25,0,0,0-1.43-.4c-1.45-.09-2.67.56-2.67,1.38a1.06,1.06,0,0,0,.43.8A2.11,2.11,0,0,1,93.1,14l0,6.11a3.15,3.15,0,0,1-.31,1.37l-.73,1.56,1.75.5,2.63-.51-.73-1.55A3.31,3.31,0,0,1,95.43,20.15Z"/></g><g class="a"><path class="g" d="M58.23,31.13v1.6a1.23,1.23,0,0,0,.71,1,3.51,3.51,0,0,0,1.71.41A3.62,3.62,0,0,0,62,33.89a7.73,7.73,0,0,1,2.82-.48h10.6a8.25,8.25,0,0,1,3.93,1.05l1.07.58v-4.4Z"/><path class="f" d="M77.74,30.29l2.68-.41,0,2.54L77.75,32a15.34,15.34,0,0,0-2.36-.18H64.83a7.68,7.68,0,0,0-2.81.49,3.85,3.85,0,0,1-1.37.24,3.37,3.37,0,0,1-1.7-.41,1.13,1.13,0,0,1-.7-1.14c.12-.66,1.07-1.19,2.21-1.23A3.78,3.78,0,0,1,62,30a8.23,8.23,0,0,0,3,.5H75.38A15.34,15.34,0,0,0,77.74,30.29Z"/></g><g class="a"><path class="g" d="M125.63,31.13a3.64,3.64,0,0,1-1.37-.25,7.77,7.77,0,0,0-2.82-.48H110.88a15.34,15.34,0,0,0-2.36.18l-2.68.41v2.65l1.06-.58A8.31,8.31,0,0,1,110.85,32h10.58a7.73,7.73,0,0,1,2.82.49,3.85,3.85,0,0,0,1.37.24c1.33,0,2.4-.62,2.4-1.38V29.74C128,30.51,127,31.13,125.63,31.13Z"/><path class="f" d="M128,29.58a1.33,1.33,0,0,0-.69-.83,3.49,3.49,0,0,0-1.54-.41,3.86,3.86,0,0,0-1.49.23,8.31,8.31,0,0,1-3,.5H110.87a15.43,15.43,0,0,1-2.36-.18l-2.68-.42-.13,1.26.14,1.26,2.68-.41a15.34,15.34,0,0,1,2.36-.18h10.56a7.77,7.77,0,0,1,2.82.48,3.64,3.64,0,0,0,1.37.25C127.05,31.13,128.18,30.42,128,29.58Z"/></g><g class="a"><polygon class="d" points="99.24 29.36 93.46 29.23 105.02 35.91 105.44 31.91 99.24 29.36"/><polygon class="g" points="105.85 31.01 105.85 35.42 105.02 35.91 105.02 31.49 105.85 31.01"/><polygon class="h" points="93.85 39.26 104.41 33.16 92.6 26.35 82.04 32.44 93.85 39.26"/><path class="g" d="M95,37.34l-.15,2.89,10.3-6L105,31.49C98.23,32,95.63,33.43,95,37.34Z"/><polygon class="i" points="95 37.34 95 41.76 94.17 42.24 94.16 37.83 95 37.34"/><polygon class="g" points="89.78 37.83 89.79 42.24 80.42 36.84 80.42 33.64 80.42 32.42 89.78 37.83"/><polygon class="j" points="94.16 37.83 94.17 42.24 90.52 42.24 89.79 42.24 89.78 37.83 94.16 37.83"/><polygon class="f" points="105.84 28.47 96.48 23.07 92.1 23.07 91.27 23.55 81.24 29.4 80.41 29.88 80.42 32.42 89.78 37.83 94.16 37.83 95 37.34 105.02 31.49 105.85 31.01 105.85 30.04 105.84 28.47"/></g><path class="k" d="M97.12,30.43,94.44,32a2,2,0,0,1-1.83,0L89.87,30.4c-.51-.29-.51-.76,0-1.06l2.68-1.55a2.05,2.05,0,0,1,1.84,0l2.73,1.59A.55.55,0,0,1,97.12,30.43Z"/><g class="a"><path class="e" d="M93,39.08a4.8,4.8,0,0,0-.36,1.65l.51,1.59a2.43,2.43,0,0,1,1-1.86l0,0V37.82Z"/><path class="d" d="M90.78,39.15l-1-1.33v2.61l.07,0a2.45,2.45,0,0,1,1,1.84v0l.4-1.5A5.27,5.27,0,0,0,90.78,39.15Z"/><path class="l" d="M94.43,49.38c-.07.67-1,1.22-2.12,1.29a3.57,3.57,0,0,1-2-.4,1.24,1.24,0,0,1-.71-1v1.6a1.21,1.21,0,0,0,.71,1,3.66,3.66,0,0,0,2,.4c1.14-.08,2-.63,2.12-1.29v-1.7A.28.28,0,0,1,94.43,49.38Z"/><path class="c" d="M94,48.52a2.34,2.34,0,0,1-.88-1.72l0-6a3.29,3.29,0,0,1,.3-1.37l.74-1.56L92,36.39l-2.25,1.43.74,1.56a3.3,3.3,0,0,1,.32,1.36l0,6.12a2.1,2.1,0,0,1-.82,1.63,1.06,1.06,0,0,0-.43.8,1.24,1.24,0,0,0,.71,1,3.57,3.57,0,0,0,2,.4c1.15-.07,2-.62,2.12-1.29A1,1,0,0,0,94,48.52Z"/></g><path class="m" d="M81.39,55.89A1.18,1.18,0,0,1,80.2,54.7v-.45a.37.37,0,0,1,.37-.37.38.38,0,0,1,.37.37v.45a.47.47,0,0,0,.22.39.46.46,0,0,0,.45,0l8.15-4.71a.37.37,0,0,1,.5.14.38.38,0,0,1-.13.51L82,55.73A1.16,1.16,0,0,1,81.39,55.89Z"/><path class="n" d="M102.77,55.89a1.14,1.14,0,0,1-.59-.16L94,51a.37.37,0,0,1,.37-.65l8.15,4.71a.44.44,0,0,0,.44,0,.45.45,0,0,0,.23-.39v-.59a.37.37,0,0,1,.37-.37.38.38,0,0,1,.37.37v.59a1.18,1.18,0,0,1-1.19,1.19Z"/><path class="d" d="M51.29,38.58a1.18,1.18,0,0,1-1.19-1.19v-.55a.38.38,0,0,1,.37-.37.37.37,0,0,1,.37.37v.55a.45.45,0,0,0,.22.39.46.46,0,0,0,.45,0l8.15-4.71a.37.37,0,0,1,.5.14.37.37,0,0,1-.13.51l-8.15,4.7A1.16,1.16,0,0,1,51.29,38.58Z"/><path class="c" d="M135.13,37.28a1.24,1.24,0,0,1-.59-.16l-8.15-4.71a.37.37,0,0,1-.14-.5.38.38,0,0,1,.51-.14l8.15,4.7a.42.42,0,0,0,.44,0,.41.41,0,0,0,.22-.38v-.8a.38.38,0,0,1,.75,0v.8a1.19,1.19,0,0,1-.6,1A1.24,1.24,0,0,1,135.13,37.28Z"/><path class="o" d="M87,39.93l-3.56-2a1.25,1.25,0,0,1-.6-1V35.72c0-.33.27-.44.6-.25L87,37.52a1.25,1.25,0,0,1,.6.95v1.21C87.61,40,87.34,40.12,87,39.93Z"/><path class="p" d="M58.51,29.77V31a1.09,1.09,0,0,0,.64.9,3.39,3.39,0,0,0,3.07,0,1.08,1.08,0,0,0,.64-.87V29.8Z"/><path class="c" d="M62.22,30.67a.93.93,0,0,0,0-1.77,3.39,3.39,0,0,0-3.07,0,.93.93,0,0,0,0,1.77A3.39,3.39,0,0,0,62.22,30.67Z"/><path class="b" d="M59.87,27.85v1.74a.41.41,0,0,0,.24.34,1.29,1.29,0,0,0,1.15,0,.4.4,0,0,0,.24-.33V27.86Z"/><ellipse class="q" cx="60.74" cy="28.24" rx="14.27" ry="8.24"/><path class="r" d="M60.65,28.22H46.46c0-2.1,1.4-4.19,4.16-5.79Zm.05.07-10,5.79a20.74,20.74,0,0,0,10,2.4Zm.13,0,10,5.79c2.76-1.6,4.15-3.7,4.16-5.79Zm0-.08,10-5.78a20.52,20.52,0,0,0-10-2.4Z"/><path class="s" d="M59.87,27.4V28a.4.4,0,0,0,.24.33,1.23,1.23,0,0,0,1.15,0A.4.4,0,0,0,61.5,28v-.62Z"/><path class="c" d="M61.26,27.74c.32-.19.32-.48,0-.67a1.29,1.29,0,0,0-1.15,0c-.32.19-.32.48,0,.67A1.29,1.29,0,0,0,61.26,27.74Z"/><path class="t" d="M92.09,10.25v1.23a1.1,1.1,0,0,0,.64.9,3.39,3.39,0,0,0,3.07,0,1.11,1.11,0,0,0,.64-.88V10.27Z"/><path class="c" d="M95.8,11.15a.94.94,0,0,0,0-1.78,3.39,3.39,0,0,0-3.07,0,.94.94,0,0,0,0,1.78A3.39,3.39,0,0,0,95.8,11.15Z"/><path class="b" d="M93.45,8.32v1.75a.38.38,0,0,0,.24.33,1.23,1.23,0,0,0,1.15,0,.4.4,0,0,0,.24-.32V8.33Z"/><path class="q" d="M104.41,14.54c5.58-3.22,5.58-8.43,0-11.66S89.8-.34,84.22,2.88s-5.57,8.44,0,11.66S98.83,17.76,104.41,14.54Z"/><path class="u" d="M94.23,8.69H80c0-2.09,1.4-4.19,4.16-5.79Zm0,.07-10,5.79a20.52,20.52,0,0,0,10,2.4Zm.13,0,10,5.79c2.76-1.6,4.14-3.69,4.15-5.79Zm0-.07,10-5.79a20.48,20.48,0,0,0-10-2.4Z"/><path class="v" d="M93.45,7.87V8.5a.4.4,0,0,0,.24.34,1.29,1.29,0,0,0,1.15,0,.4.4,0,0,0,.24-.33V7.88Z"/><path class="c" d="M94.84,8.21a.35.35,0,0,0,0-.66,1.23,1.23,0,0,0-1.15,0,.35.35,0,0,0,0,.66A1.23,1.23,0,0,0,94.84,8.21Z"/><path class="w" d="M123.5,28.47V29.7a1.05,1.05,0,0,0,.63.9,3.41,3.41,0,0,0,3.08,0,1.07,1.07,0,0,0,.63-.88V28.49Z"/><ellipse class="c" cx="125.67" cy="28.48" rx="2.17" ry="1.25"/><path class="b" d="M124.85,26.55v1.74a.43.43,0,0,0,.24.34,1.29,1.29,0,0,0,1.15,0,.4.4,0,0,0,.24-.33V26.56Z"/><ellipse class="q" cx="125.72" cy="26.93" rx="14.27" ry="8.24"/><path class="x" d="M125.63,26.91H111.45c0-2.09,1.39-4.18,4.15-5.79Zm.05.08-10,5.79a20.7,20.7,0,0,0,10,2.4Zm.13,0,10,5.79C138.6,31.14,140,29.05,140,27Zm0-.08,10-5.79a20.74,20.74,0,0,0-10-2.4Z"/><path class="y" d="M124.85,26.1v.62a.4.4,0,0,0,.24.34,1.29,1.29,0,0,0,1.15,0,.4.4,0,0,0,.24-.33v-.62Z"/><path class="c" d="M126.24,26.44c.32-.19.32-.49,0-.67a1.23,1.23,0,0,0-1.15,0c-.32.18-.32.48,0,.67A1.29,1.29,0,0,0,126.24,26.44Z"/><polygon class="z" points="82.8 35.77 1.26 56.47 67.08 104.06 87.71 38.54 82.8 35.77"/><path class="aa" d="M89.85,47.9v1.23a1.09,1.09,0,0,0,.64.9,3.39,3.39,0,0,0,3.07,0,1.1,1.1,0,0,0,.64-.87V47.92Z"/><ellipse class="c" cx="92.03" cy="47.91" rx="2.17" ry="1.25"/><path class="b" d="M91.21,46v1.74a.41.41,0,0,0,.24.34,1.29,1.29,0,0,0,1.15,0,.4.4,0,0,0,.24-.33V46Z"/><ellipse class="q" cx="92.08" cy="46.37" rx="14.27" ry="8.24"/><path class="ab" d="M92,46.34H77.8c0-2.09,1.4-4.18,4.16-5.79Zm.05.08L82,52.21a20.74,20.74,0,0,0,10,2.4Zm.13,0,10,5.79c2.76-1.61,4.15-3.7,4.15-5.79Zm0-.08,10-5.79a20.7,20.7,0,0,0-10-2.4Z"/><path class="ac" d="M91.21,45.53v.62a.4.4,0,0,0,.24.34,1.23,1.23,0,0,0,1.15,0,.4.4,0,0,0,.24-.33v-.62Z"/><path class="c" d="M92.6,45.87c.32-.19.32-.49,0-.67a1.29,1.29,0,0,0-1.15,0c-.32.18-.32.48,0,.67A1.29,1.29,0,0,0,92.6,45.87Z"/><path class="ad" d="M86.31,39.12l-2.22-1.29a.4.4,0,0,1-.2-.31v-.34c0-.11.09-.15.2-.09l2.22,1.29a.4.4,0,0,1,.2.31V39C86.51,39.14,86.42,39.18,86.31,39.12Z"/><path class="ae" d="M84.39,37.57c0,.06,0,.11,0,.11a.19.19,0,0,1-.13-.11c0-.06,0-.12,0-.12S84.36,37.51,84.39,37.57Z"/><path class="af" d="M84.89,37.86c0,.06,0,.11,0,.11a.16.16,0,0,1-.13-.11c0-.07,0-.12,0-.12A.18.18,0,0,1,84.89,37.86Z"/><path class="af" d="M85.38,38.14c0,.07,0,.12,0,.12a.18.18,0,0,1-.14-.12c0-.06,0-.11,0-.11A.16.16,0,0,1,85.38,38.14Z"/></g></svg>