<svg xmlns="http://www.w3.org/2000/svg" viewBox="0 0 15.3 13.89"><defs><style>.a{isolation:isolate;}.b{mix-blend-mode:screen;opacity:0.15;}.c{fill:#4dffff;}.d{opacity:0.37;}</style></defs><g class="a"><g class="b"><path class="c" d="M7.37.48a6.63,6.63,0,0,1,4.69,11.31,6.62,6.62,0,0,1-9.38,0A6.63,6.63,0,0,1,7.37.48Z"/></g><path class="c" d="M13.76,3l.09.15-.4.24-.09-.13Zm.33.57a1.09,1.09,0,0,1,.08.15L13.75,4s-.05-.09-.08-.14Zm.28.6a.77.77,0,0,1,.07.16L14,4.52l-.06-.15Zm.23.62c0,.05,0,.11.05.16l-.45.14c0-.06,0-.11,0-.16Zm.17.63a1.36,1.36,0,0,1,0,.17l-.46.1a1.24,1.24,0,0,1,0-.16Z"/><g class="d"><path class="c" d="M7.37,1.19a5.92,5.92,0,0,1,4.19,10.1h0A5.92,5.92,0,1,1,7.37,1.19Zm4,9.93a5.68,5.68,0,0,0-8-8,5.68,5.68,0,0,0,8,8Z"/></g><path class="c" d="M7.49,1.56h.1V1.8H7.49Zm-.24,0V1.8H7.16V1.57Zm.58,0h.1l0,.24H7.81Zm-.92,0,0,.24H6.84l0-.24Zm1.25,0h.1l0,.24-.09,0Zm-1.58,0,0,.23-.09,0,0-.23Zm1.92.06.09,0-.05.23-.09,0Zm-2.26,0,0,.23-.09,0,0-.23Zm2.59.08.09,0L8.85,2,8.76,2Zm-2.92,0L6,2,5.9,2l-.08-.23Zm3.24.09.09,0-.08.22-.09,0Zm-3.56,0,.08.22-.09,0L5.5,1.89ZM9.47,2l.09,0-.1.22-.08,0ZM5.28,2l.08.22-.08,0L5.19,2Zm4.5.14.08,0-.1.21-.09,0ZM5,2.11l.1.21L5,2.37l-.11-.22Zm5.11.16.08,0L10,2.52l-.08,0Zm-5.41,0,.11.2-.08,0-.12-.21Zm5.7.17.08.05-.13.2-.08,0Zm-6,0,.13.2-.08,0-.13-.2Zm6.26.19.08.06-.14.19-.08-.06Zm-6.54,0,.14.19-.07.06L4,2.69Zm6.81.21L11,2.9l-.16.18L10.76,3Zm-7.08,0L4,3l-.07.06L3.76,2.9Zm7.33.22.07.07-.16.17L11,3.24Zm-7.58,0,.16.18-.06.06-.17-.17Zm7.82.24.07.07-.18.16-.06-.07Zm-8.06,0,.17.16-.06.07-.18-.16Zm-.22.25.18.16-.06.07-.19-.15Zm8.51,0,.06.08-.18.15-.06-.07Zm.21.27.05.08L11.7,4l0-.07Zm-8.93,0L3.1,4,3,4,2.85,3.9ZM12,4.1l.05.08-.2.12-.05-.07Zm-9.32,0,.2.13-.05.08-.2-.13Zm9.49.29.05.08L12,4.58l0-.08Zm-9.66,0,.21.11,0,.09-.21-.12Zm9.82.3,0,.08-.21.1,0-.08Zm-10,0,.22.1,0,.09-.22-.1ZM12.5,5l0,.09-.22.09,0-.09ZM2.25,5l.21.09,0,.08-.22-.08Zm10.37.31,0,.09-.23.07,0-.08Zm-10.49,0,.22.08,0,.09L2.1,5.41Zm10.59.32,0,.1-.23.06,0-.09ZM2,5.64l.23.06,0,.09L2,5.73ZM12.8,6l0,.1-.24,0V6ZM2,6l.23,0,0,.09-.23,0Zm10.91.32v.1l-.24,0V6.33Zm-11,0,.23,0v.09l-.23,0Zm11,.33v.1h-.23V6.65Zm-11,0,.24,0v.1l-.24,0ZM12.91,7v.09h-.24V7ZM1.83,7h.24v.09H1.83Zm10.85.33h.23v.1h-.24ZM2.07,7.3v.09l-.23,0v-.1Zm10.58.32.24,0v.1l-.24,0Zm-10.56,0v.1l-.23,0V7.65Zm10.52.32.24,0,0,.09L12.6,8Zm-10.48,0,0,.1-.24,0V8Zm10.42.32.23.05,0,.09-.23-.05Zm-10.36,0,0,.09L2,8.41l0-.1Zm10.28.31.23.07,0,.09-.22-.07Zm-10.2,0,0,.08-.23.07,0-.09Zm10.1.3L12.6,9l0,.09L12.34,9Zm-10,0L2.4,9l-.22.08,0-.09Zm9.89.3.22.09,0,.09-.22-.09Zm-9.77,0,0,.08-.22.1,0-.09Zm9.63.29.21.1,0,.09-.21-.11Zm-9.5,0,0,.08-.21.11,0-.09ZM12,9.76l.2.12-.05.08-.2-.12Zm-9.19,0,0,.08-.2.13-.05-.09Zm9,.28.2.13-.06.08-.19-.14ZM3,10l0,.07-.19.14-.06-.08Zm8.66.26.19.14-.06.08-.19-.15Zm-8.48,0,.06.07L3,10.52l0-.08Zm.21.25.06.07-.18.16-.06-.07Zm8.07,0,.18.16-.07.07-.17-.16Zm-7.85.24.06.07L3.45,11,3.39,11Zm7.63,0,.17.17-.07.07L11.2,11l-.08-.09ZM3.79,11l.07.06-.16.18-.07-.07ZM11,11l.16.17-.08.07-.15-.18ZM4,11.23l.08.06L4,11.47l-.08-.06Zm6.67,0,.15.18-.08.06-.14-.18Zm-6.41.19.08.05-.14.19-.08-.05Zm6.15,0,.14.2-.08,0-.13-.19Zm-5.88.18.08,0-.12.21-.09,0Zm5.62,0,.12.21-.08,0-.12-.2Zm-5.34.16.08,0L4.81,12l-.08,0Zm5.06,0L10,12l-.09,0-.11-.21Zm-4.77.14.08,0-.09.22-.09,0Zm4.48,0,.1.22-.09,0L9.52,12ZM5.42,12l.09,0-.08.22-.09,0Zm3.89,0,.08.22-.09,0-.08-.22Zm-3.58.1.09,0-.07.23-.09,0Zm3.27,0,.08.22-.1,0-.06-.23Zm-3,.08.09,0,0,.23-.1,0Zm2.65,0,.06.23-.09,0-.06-.23Zm-2.33.06.09,0,0,.23h-.1Zm2,0,0,.23-.09,0,0-.24Zm-1.7,0h.09l0,.23h-.1Zm1.38,0,0,.23H8l0-.23ZM7,12.4h.09v.23H7Zm.74,0v.24H7.66l0-.23Zm-.42,0h.09v.24h-.1Z"/><path class="c" d="M8.89,6.1l-.2-.34a.11.11,0,0,0-.15,0l-.28.16a1,1,0,0,0-.42-.24V5.31a.11.11,0,0,0-.11-.11h-.4a.11.11,0,0,0-.11.11v.32a1,1,0,0,0-.42.24l-.28-.16a.11.11,0,0,0-.15,0l-.2.34a.12.12,0,0,0,0,.16l.27.15a1,1,0,0,0,0,.25,1,1,0,0,0,0,.24l-.27.16a.11.11,0,0,0,0,.15l.2.35a.11.11,0,0,0,.15,0l.28-.16a1,1,0,0,0,.42.25V8a.11.11,0,0,0,.11.11h.4A.11.11,0,0,0,7.84,8V7.69a1,1,0,0,0,.42-.25l.28.16a.11.11,0,0,0,.15,0l.2-.35a.11.11,0,0,0,0-.15L8.58,6.9a1,1,0,0,0,0-.24,1,1,0,0,0,0-.25l.27-.15A.12.12,0,0,0,8.89,6.1ZM7.53,7.18A.52.52,0,0,1,7,6.66a.52.52,0,0,1,1,0A.52.52,0,0,1,7.53,7.18ZM8.74,9.91a.08.08,0,0,1-.07-.08v-.7a3.1,3.1,0,0,1,.58-1v0c.07-.08.12-.16.18-.24a2.53,2.53,0,0,0,.34-2,2,2,0,0,0-1.1-1.37,2.33,2.33,0,0,0-3,.54,2,2,0,0,0-.4,1.32.45.45,0,0,1-.12.33l-.38.44a.3.3,0,0,0-.07.26.3.3,0,0,0,.14.22l.26.17a.09.09,0,0,1,0,.06v.81a.52.52,0,0,0,.52.52h.46a.07.07,0,0,1,.07.08v.49a.08.08,0,0,1-.08.08A.08.08,0,0,1,6,9.83V9.41H5.66A.67.67,0,0,1,5,8.73V8l-.22-.15a.44.44,0,0,1-.21-.32.48.48,0,0,1,.11-.38l.38-.44a.36.36,0,0,0,.08-.23A2.15,2.15,0,0,1,5.56,5a2.5,2.5,0,0,1,3.19-.58A2.23,2.23,0,0,1,9.93,5.91,2.67,2.67,0,0,1,9.56,8l-.17.24,0,0a4.88,4.88,0,0,0-.55.88v.69A.09.09,0,0,1,8.74,9.91Z"/></g></svg>