<svg xmlns="http://www.w3.org/2000/svg" xmlns:xlink="http://www.w3.org/1999/xlink" viewBox="0 0 42 32"><defs><style>.a{fill:#ceccea;}.b{fill:url(#a);}.c{fill:url(#b);}.d{fill:url(#c);}.e{fill:url(#d);}.f{fill:#edeafc;}.g{fill:url(#e);}.h{opacity:0.6;fill:url(#f);}.i{fill:url(#g);}.j{fill:url(#h);}.k{fill:url(#i);}.l{fill:#d8d4f4;}.m{fill:url(#j);}.n{fill:#ece9fc;}.o{fill:url(#k);}.p{fill:url(#l);}.q{fill:url(#m);}.r{fill:url(#n);}.s{isolation:isolate;}.ab,.ah,.ai,.an,.ao,.at,.aw,.ay,.be,.bg,.ca,.ce,.cj,.cl,.ct,.cv,.db,.t,.u,.w{mix-blend-mode:multiply;}.t,.u{opacity:0.2;}.t{fill:url(#o);}.u{fill:url(#p);}.v{clip-path:url(#q);}.ab,.ah,.dc,.w{fill:#ede9fc;}.w{opacity:0.92;}.x{clip-path:url(#s);}.y{fill:#43435b;}.z{fill:#ff901c;}.aa{clip-path:url(#t);}.ab{opacity:0.58;}.ac{fill:#fff;}.ac,.bs{opacity:0.5;}.ad{fill:url(#u);}.ae{clip-path:url(#w);}.af{fill:#ff911b;mix-blend-mode:color-dodge;opacity:0.15;}.ag{clip-path:url(#x);}.ai{fill:url(#y);}.aj{clip-path:url(#z);}.ak{clip-path:url(#aa);}.al{clip-path:url(#ac);}.am{fill:url(#ad);}.ao,.as,.at,.ax,.ay,.be,.bg,.ca,.ce,.cj,.ck,.cl,.ct,.cv,.da,.db{fill-rule:evenodd;}.ao,.at,.ay,.be,.bg,.ca,.ce,.cj,.cl,.ct,.cv,.db{opacity:0.31;}.ao{fill:url(#ae);}.ap{fill:url(#af);}.aq{fill:#ff931a;}.ar{fill:url(#ag);}.as{fill:url(#ah);}.at{fill:url(#ai);}.au,.cm{opacity:0.62;}.au{fill:url(#aj);}.av{fill:url(#ak);}.aw{fill:url(#al);}.ax{fill:url(#am);}.ay{fill:url(#an);}.az{fill:#1b2c59;}.ba{clip-path:url(#ao);}.bb{fill:url(#ap);}.bc{clip-path:url(#ar);}.bd{fill:url(#as);}.be{fill:url(#at);}.bf{fill:url(#au);}.bg{fill:url(#av);}.bh{clip-path:url(#ax);}.bi{fill:url(#ay);}.bj{fill:url(#az);}.bk{fill:url(#ba);}.bl{fill:#adaacc;}.bm{clip-path:url(#bc);}.bn{mix-blend-mode:screen;fill:url(#bd);}.bo{clip-path:url(#be);}.bp{fill:url(#bf);}.bq{clip-path:url(#bh);}.br{clip-path:url(#bj);}.bs{fill:url(#bk);}.bt{fill:url(#bl);}.bu{fill:#43a4d7;}.bv{clip-path:url(#bn);}.bw{clip-path:url(#bp);}.bx{fill:url(#bq);}.by{clip-path:url(#bs);}.bz{fill:url(#bt);}.ca{fill:url(#bu);}.cb{clip-path:url(#bv);}.cc{clip-path:url(#bx);}.cd{fill:url(#by);}.ce{fill:url(#bz);}.cf{fill:url(#ca);}.cg{fill:url(#cb);}.ch{fill:url(#cc);}.ci{fill:url(#cd);}.cj{fill:url(#ce);}.ck{fill:url(#cf);}.cl{fill:url(#cg);}.cm{fill:url(#ch);}.cn{fill:url(#ci);}.co{fill:url(#cj);}.cp{clip-path:url(#ck);}.cq{fill:url(#cl);}.cr{clip-path:url(#cn);}.cs{fill:url(#co);}.ct{fill:url(#cp);}.cu{fill:url(#cq);}.cv{fill:url(#cr);}.cw{clip-path:url(#ct);}.cx{fill:url(#cu);}.cy{fill:url(#cv);}.cz{fill:url(#cw);}.da{fill:url(#cx);}.db{fill:url(#cy);}</style><radialGradient id="a" cx="2.91" cy="23.18" r="2.67" gradientUnits="userSpaceOnUse"><stop offset="0" stop-color="#ffb500"/><stop offset="1" stop-color="#ff8425"/></radialGradient><radialGradient id="b" cx="85.23" cy="-58.38" r="6.79" gradientTransform="translate(-78.33 63.98) rotate(5.41)" gradientUnits="userSpaceOnUse"><stop offset="0" stop-color="#f4f1ff"/><stop offset="1" stop-color="#c1bdeb"/></radialGradient><radialGradient id="c" cx="66.62" cy="-72.78" r="6.94" gradientTransform="translate(-70.17 73.37) rotate(4.85)" xlink:href="#b"/><radialGradient id="d" cx="26.42" cy="2.41" r="3.36" gradientUnits="userSpaceOnUse"><stop offset="0" stop-color="#02fffa"/><stop offset="1" stop-color="#7d54b8"/></radialGradient><radialGradient id="e" cx="22.93" cy="22.35" r="8.73" gradientTransform="matrix(1, 0, 0, 1, 0, 0)" xlink:href="#b"/><linearGradient id="f" x1="23.38" y1="19.01" x2="26.99" y2="17.42" gradientUnits="userSpaceOnUse"><stop offset="0" stop-color="#fff"/><stop offset="1" stop-color="#484582"/></linearGradient><radialGradient id="g" cx="25.24" cy="18.8" r="4.13" gradientTransform="matrix(1, 0, 0, 1, 0, 0)" xlink:href="#b"/><radialGradient id="h" cx="28.26" cy="18.76" r="9.52" xlink:href="#d"/><radialGradient id="i" cx="25.5" cy="10.4" r="3.12" gradientTransform="matrix(1, 0, 0, 1, 0, 0)" xlink:href="#b"/><radialGradient id="j" cx="21.89" cy="14.04" r="1.45" gradientTransform="matrix(1, 0, 0, 1, 0, 0)" xlink:href="#b"/><radialGradient id="k" cx="30.37" cy="14.65" r="5.71" gradientTransform="matrix(1, 0, 0, 1, 0, 0)" xlink:href="#b"/><radialGradient id="l" cx="21.39" cy="9.3" r="6.44" gradientTransform="matrix(1, 0, 0, 1, 0, 0)" xlink:href="#b"/><radialGradient id="m" cx="10.62" cy="2.78" r="1.72" xlink:href="#a"/><radialGradient id="n" cx="3.7" cy="13.36" r="1.45" gradientTransform="matrix(1, 0, 0, 1, 0, 0)" xlink:href="#b"/><linearGradient id="o" x1="83.3" y1="-116.47" x2="111.27" y2="-116.47" gradientTransform="translate(-101.81 123.32) rotate(11.11)" gradientUnits="userSpaceOnUse"><stop offset="0" stop-color="#475b6f"/><stop offset="1" stop-color="#fff" stop-opacity="0"/></linearGradient><linearGradient id="p" x1="27.55" y1="26.33" x2="40.31" y2="29.03" gradientTransform="matrix(1, 0, 0, 1, 0, 0)" xlink:href="#o"/><clipPath id="q"><path class="a" d="M5.39,11.34a10,10,0,0,0-.65,1.58,4.78,4.78,0,0,0,0,1.75c0,.2-1.1,3.87-1.16,4.12s-.51.91-.74,1.64S1.73,24,2,24.1A1.62,1.62,0,0,0,2.83,24c.12-.09,2.39-3.6,2.59-4s1.66-3.36,1.66-3.36S8.21,13,8.29,12.33,5.39,11.34,5.39,11.34Z"/></clipPath><clipPath id="s"><path class="b" d="M3,19.93a2.78,2.78,0,0,1,1.12.19,1.8,1.8,0,0,1,.74.82,24.6,24.6,0,0,0-1.88,3.5,1.1,1.1,0,0,0,.34,1.1c.31.34.23.38.55.38a.32.32,0,0,1,.27.46,5.23,5.23,0,0,1-1.25.06,1.7,1.7,0,0,1-1-.21c-.31-.24-.93-.69-.83-.91a6.37,6.37,0,0,0,.59-1.2c.13-.45.49-2.2.68-2.67S3,19.93,3,19.93Z"/></clipPath><clipPath id="t"><path class="l" d="M9.11,12.27S10,16.9,10,17.35s-.06,1.41-.06,1.58.48,5.34.48,5.34-.17.62-.68.73-.36-.25-.36-.25S8.15,21.1,8.1,20.48A6.41,6.41,0,0,0,7.84,19c-.14-.43-1.59-4.19-1.67-4.3a2.09,2.09,0,0,1-.53-1.63A7.62,7.62,0,0,1,6,11.42l3.19.14Z"/></clipPath><radialGradient id="u" cx="10.54" cy="23.57" r="2.6" xlink:href="#a"/><clipPath id="w"><path class="q" d="M9.75,1.26a3.46,3.46,0,0,1-.34,2.56,6.17,6.17,0,0,1-.59-1.49C8.87,2.23,9.75,1.26,9.75,1.26Z"/></clipPath><clipPath id="x"><path class="f" d="M6.77,3.4a.77.77,0,0,1-.41-.69C5.83-.6,9.16-.36,9.84,1.25c.09.21,0,.3,0,.3A4.06,4.06,0,0,1,9,2.3a.11.11,0,0,0,0,.13,5.71,5.71,0,0,1,.47,1.24.64.64,0,0,1-.18.53,1.47,1.47,0,0,1-.89.07A6.23,6.23,0,0,1,6.77,3.4Z"/></clipPath><linearGradient id="y" x1="6.21" y1="4.05" x2="8.78" y2="4.05" gradientUnits="userSpaceOnUse"><stop offset="0" stop-color="#7d54b8" stop-opacity="0.5"/><stop offset="1" stop-color="#353567"/></linearGradient><clipPath id="z"><path class="l" d="M5.7,4.54a1.83,1.83,0,0,0-.79,1.72c0,.76,0,4.29,0,4.68s0,1.16,0,1.16A7.46,7.46,0,0,1,8,12.1a6.61,6.61,0,0,1,1.3.62s.26-3,.43-4.46c.14-1.15.26-2.5-.15-3.06a2,2,0,0,0-1.17-.82c-.39-.06-2-.21-2-.21Z"/></clipPath><clipPath id="aa"><path class="f" d="M6.42,6.59c-.18-.27-.26-.41-1-.37s-.8.73-1,1.12c-.24.55-1,2.89-1,2.89l-.29,3.08s.67-.07.81.28c0,0,.72-2.62.88-2.95a20.6,20.6,0,0,1,1-1.87C6.15,8.4,6.86,7.23,6.42,6.59Z"/></clipPath><clipPath id="ac"><path class="r" d="M3.14,13.34l0,.32-.17.58a3,3,0,0,0,.1.83.48.48,0,0,0,.53.18c.3,0,.26-.25.27-.41s0-.53,0-.53l.21.45c.11.24.23.07.1-.51L4,13.61l.46-1.75a1.36,1.36,0,0,0-1.15-.4Z"/></clipPath><radialGradient id="ad" cx="3.72" cy="13.6" r="0.47" xlink:href="#a"/><radialGradient id="ae" cx="-1349.17" cy="-303.1" r="1.55" gradientTransform="matrix(-0.84, 0.31, -0.16, -0.93, -1184.76, 146.15)" gradientUnits="userSpaceOnUse"><stop offset="0" stop-color="#7d54b8"/><stop offset="1" stop-color="#353567"/></radialGradient><radialGradient id="af" cx="73.1" cy="-107.29" r="1.07" gradientTransform="translate(-94.76 -76.6) rotate(92.64)" xlink:href="#ae"/><linearGradient id="ag" x1="-27.41" y1="-778.61" x2="-26.89" y2="-778.61" gradientTransform="translate(-768.45 54.98) rotate(88.12)" gradientUnits="userSpaceOnUse"><stop offset="0.28" stop-color="#f4f1ff"/><stop offset="1" stop-color="#d1bde5" stop-opacity="0"/></linearGradient><radialGradient id="ah" cx="-98.43" cy="552.5" r="3.42" gradientTransform="matrix(0.7, -0.29, 0.14, 0.83, -4.1, -472.06)" xlink:href="#a"/><radialGradient id="ai" cx="-17.58" cy="-360.59" r="2.69" gradientTransform="matrix(0.67, -0.4, 0.23, 0.78, 100.52, 289.12)" xlink:href="#ae"/><linearGradient id="aj" x1="-466.51" y1="377.12" x2="-464.64" y2="377.93" gradientTransform="translate(215.96 -546.76) rotate(-30.44)" gradientUnits="userSpaceOnUse"><stop offset="0" stop-opacity="0"/><stop offset="1"/></linearGradient><radialGradient id="ak" cx="10.16" cy="5.43" r="4.19" gradientUnits="userSpaceOnUse"><stop offset="0" stop-color="#02313b"/><stop offset="1" stop-color="#7d54b8"/></radialGradient><linearGradient id="al" x1="5.25" y1="9.28" x2="8.41" y2="10.41" xlink:href="#y"/><radialGradient id="am" cx="9.77" cy="12.99" r="3.11" xlink:href="#a"/><radialGradient id="an" cx="-765.28" cy="-1047.38" r="4.16" gradientTransform="matrix(-0.87, -0.16, -0.12, 1.12, -784.25, 1068.81)" xlink:href="#ae"/><clipPath id="ao"><path class="n" d="M9.4,4.61c-.35-.16-.52-.25-1.2.22s-.34,1.25-.27,1.75c.1.71.78,3.64.78,3.64l1.75,3.33s.53-.61.9-.34c0,0-.92-3.1-1-3.54a22.22,22.22,0,0,1-.15-2.53C10.27,6.61,10.25,5,9.4,4.61Z"/></clipPath><radialGradient id="ap" cx="82.49" cy="-72.79" r="7.84" gradientTransform="translate(-78.33 63.98) rotate(5.41)" xlink:href="#a"/><clipPath id="ar"><path class="c" d="M10.34,13.49l.27.69.23.35a.91.91,0,0,1,.28.72c0,.12.27.26.53,0a.73.73,0,0,0,.29-.66,5,5,0,0,0-.07-.77,3.66,3.66,0,0,0-.51-.68l-.61-2a1.57,1.57,0,0,0-1.41.31Z"/></clipPath><radialGradient id="as" cx="83" cy="-62.64" r="2.42" gradientTransform="translate(-78.33 63.98) rotate(5.41)" xlink:href="#a"/><radialGradient id="at" cx="-701.97" cy="-226.22" r="2.9" gradientTransform="matrix(-0.54, 0.73, -0.65, -0.68, -514.93, 366.08)" xlink:href="#ae"/><radialGradient id="au" cx="84.44" cy="-59.22" r="1.37" gradientTransform="translate(-78.33 63.98) rotate(5.41)" xlink:href="#a"/><radialGradient id="av" cx="-609.71" cy="-289.67" r="1.84" gradientTransform="matrix(-0.4, 0.81, -0.76, -0.55, -451.97, 349.04)" xlink:href="#ae"/><clipPath id="ax"><path class="d" d="M2.83,4.06C2,6.28,2.66,11,2.75,11.63s.34.6,1.18.65l2.59.15a.81.81,0,0,0,.91-.9A43.44,43.44,0,0,1,7.7,6.15c.17-.75.42-2.1.42-2.1A3.65,3.65,0,0,0,5.85,3.2C4.36,3.12,3.07,3.42,2.83,4.06Z"/></clipPath><radialGradient id="ay" cx="65.78" cy="-69.16" r="5.08" gradientTransform="translate(-70.17 73.37) rotate(4.85)" xlink:href="#a"/><radialGradient id="az" cx="67.95" cy="-76.79" r="18.8" gradientTransform="translate(-70.17 73.37) rotate(4.85)" gradientUnits="userSpaceOnUse"><stop offset="0" stop-color="#f4f1ff"/><stop offset="1" stop-color="#d1bde5"/></radialGradient><radialGradient id="ba" cx="61.48" cy="-81.07" r="14.01" gradientTransform="translate(-70.17 73.37) rotate(4.85)" xlink:href="#a"/><clipPath id="bc"><path class="e" d="M27.62,4a3.11,3.11,0,0,1-.3,2.31,5.51,5.51,0,0,1-.54-1.34C26.83,4.85,27.62,4,27.62,4Z"/></clipPath><radialGradient id="bd" cx="26.16" cy="3.93" r="3.97" xlink:href="#d"/><clipPath id="be"><path class="f" d="M24.94,5.9a.71.71,0,0,1-.38-.62c-.47-3,2.53-2.76,3.14-1.31.08.18,0,.26,0,.26a3.48,3.48,0,0,1-.76.68A.11.11,0,0,0,27,5a6.28,6.28,0,0,1,.42,1.11.56.56,0,0,1-.17.48,1.19,1.19,0,0,1-.8.06A5.32,5.32,0,0,1,24.94,5.9Z"/></clipPath><radialGradient id="bf" cx="24.34" cy="7.96" r="3.6" xlink:href="#ak"/><clipPath id="bh"><path class="g" d="M25.74,14.05a13.2,13.2,0,0,1,.49,1.66c0,.33.09,3.16.08,3.28,0,.59.13,3.86.13,3.86s-.22.55-.59.63a.39.39,0,0,1-.49-.23,13.42,13.42,0,0,1-.72-2,16.07,16.07,0,0,0-.34-2c-.1-.31-.79-3-.85-3.22a12.4,12.4,0,0,1-.25-1.5,2.26,2.26,0,0,1,.23-1.08l2.33.1Z"/></clipPath><clipPath id="bj"><path class="h" d="M25.74,14.05a13.2,13.2,0,0,1,.49,1.66c0,.33.09,3.16.08,3.28,0,.59.13,3.86.13,3.86s-.22.55-.59.63a.39.39,0,0,1-.49-.23,13.42,13.42,0,0,1-.72-2,16.07,16.07,0,0,0-.34-2c-.1-.31-.79-3-.85-3.22a12.4,12.4,0,0,1-.25-1.5,2.26,2.26,0,0,1,.23-1.08l2.33.1Z"/></clipPath><linearGradient id="bk" x1="24.35" y1="21.21" x2="27.96" y2="19.62" xlink:href="#f"/><radialGradient id="bl" cx="28.01" cy="20.74" r="5.04" xlink:href="#d"/><clipPath id="bn"><path class="i" d="M24.15,13.37a4.44,4.44,0,0,0,0,1.77,1.59,1.59,0,0,0,.64.79c0,.17-.58,3.36-.62,3.58s-.39.83-.54,1.48-.71,3.2-.49,3.24a1.36,1.36,0,0,0,.73-.17c.1-.08,1.85-3.28,2-3.63s1.31-3.76,1.31-3.76a10.16,10.16,0,0,0,.21-2.85C27.35,13.28,24.15,13.37,24.15,13.37Z"/></clipPath><clipPath id="bp"><path class="j" d="M23.79,20.46a2.23,2.23,0,0,1,.93.14,2.23,2.23,0,0,1,.72.6,25.44,25.44,0,0,0-1.26,2.95c-.05.48-.08.64.2.93s.46.63.73.63.17.36.12.43a4.17,4.17,0,0,1-1.05.05,1.68,1.68,0,0,1-.85-.36c-.27-.2-1-.44-.93-.65A7.11,7.11,0,0,1,23,23.81c.11-.38.21-1.56.35-2C23.54,21.18,23.79,20.46,23.79,20.46Z"/></clipPath><radialGradient id="bq" cx="27.61" cy="3.93" r="5.1" xlink:href="#ak"/><clipPath id="bs"><path class="k" d="M24.05,6.93a1.67,1.67,0,0,0-.71,1.53c0,.68,0,3.82,0,4.18a5.58,5.58,0,0,1-.12,1,7.21,7.21,0,0,1,2.84,0,10.47,10.47,0,0,1,1.32.52s.06-2.66.22-3.94c.12-1,.23-2.23-.14-2.73a1.75,1.75,0,0,0-1-.73c-.35,0-1.82-.19-1.82-.19Z"/></clipPath><radialGradient id="bt" cx="-476.91" cy="325.61" r="3.1" gradientTransform="matrix(0.52, -0.85, 0.74, 0.44, 32.87, -539.88)" xlink:href="#d"/><radialGradient id="bu" cx="-1057.36" cy="-31.95" r="2.44" gradientTransform="matrix(-0.89, 0.18, -0.03, -0.94, -914.97, 175.83)" xlink:href="#ae"/><clipPath id="bv"><path class="f" d="M24.61,7.27c-.18-.27-.26-.41-1-.37s-.8.74-1,1.13c-.24.55-1,2.88-1,2.88L21.37,14s.67-.07.81.29c0,0,.72-2.62.88-2.95a17.65,17.65,0,0,1,1-1.88C24.34,9.09,25.05,7.92,24.61,7.27Z"/></clipPath><clipPath id="bx"><path class="m" d="M21.33,14l0,.31-.17.58a2.67,2.67,0,0,0,.1.84.49.49,0,0,0,.53.18c.3,0,.26-.26.27-.41S22,15,22,15l.21.46c.11.23.22.07.1-.51l-.16-.64.47-1.75a1.34,1.34,0,0,0-1.15-.41Z"/></clipPath><radialGradient id="by" cx="-506.37" cy="730.39" r="1.97" gradientTransform="matrix(0.4, -0.92, 0.79, 0.34, -353.41, -695.58)" xlink:href="#d"/><radialGradient id="bz" cx="-1369.29" cy="-310.49" r="1.55" xlink:href="#ae"/><radialGradient id="ca" cx="91.36" cy="-108.54" r="0.91" gradientTransform="translate(-77.24 -92.07) rotate(92.64)" xlink:href="#ae"/><radialGradient id="cb" cx="91.55" cy="-108.51" r="0.69" gradientTransform="translate(-77.2 -92.1) rotate(92.64)" xlink:href="#d"/><linearGradient id="cc" x1="-9.22" y1="-778.46" x2="-8.77" y2="-778.46" gradientTransform="translate(-750.93 39.52) rotate(88.12)" xlink:href="#ag"/><radialGradient id="cd" cx="-506.31" cy="280.89" r="3.45" gradientTransform="matrix(0.47, -0.88, 0.88, 0.47, 19.95, -559.37)" xlink:href="#d"/><radialGradient id="ce" cx="-1002.56" cy="-26.9" r="2.72" gradientTransform="matrix(-0.97, 0.18, -0.16, -0.98, -946.08, 173.4)" xlink:href="#ae"/><radialGradient id="cf" cx="237.65" cy="547.18" r="3.42" gradientTransform="matrix(0.63, -0.19, -0.02, 0.84, -116.49, -398.48)" xlink:href="#d"/><radialGradient id="cg" cx="316.03" cy="-319.62" r="2.69" gradientTransform="matrix(0.63, -0.3, 0.07, 0.8, -154.09, 366.97)" xlink:href="#ae"/><linearGradient id="ch" x1="-312.24" y1="350.44" x2="-310.64" y2="351.13" gradientTransform="translate(189.76 -423.04) rotate(-20.95)" xlink:href="#aj"/><radialGradient id="ci" cx="28.45" cy="7.91" r="4.19" xlink:href="#ak"/><radialGradient id="cj" cx="28.48" cy="13.36" r="4.15" xlink:href="#ak"/><clipPath id="ck"><path class="n" d="M27.44,7.08c-.31-.11-.45-.17-1,.28s-.18,1.07-.09,1.49c.14.58.94,3,.94,3L29,14.48s.4-.55.73-.36c0,0-1-2.52-1.09-2.88a18.3,18.3,0,0,1-.33-2.11C28.33,8.68,28.18,7.32,27.44,7.08Z"/></clipPath><radialGradient id="cl" cx="28.06" cy="2.54" r="6.59" xlink:href="#d"/><clipPath id="cn"><path class="o" d="M28.93,14.43l.28.57.22.27a.75.75,0,0,1,.29.58c0,.1.25.2.45,0a.6.6,0,0,0,.19-.57,4.52,4.52,0,0,0-.12-.64,3,3,0,0,0-.48-.53l-.67-1.63a1.31,1.31,0,0,0-1.16.37Z"/></clipPath><radialGradient id="co" cx="-903.64" cy="87.13" r="3.1" gradientTransform="matrix(-0.27, -0.96, 0.83, -0.24, -285.31, -839.62)" xlink:href="#d"/><radialGradient id="cp" cx="-599.53" cy="-216.98" r="2.44" gradientTransform="matrix(-0.47, 0.77, -0.71, -0.62, -406.16, 341.92)" xlink:href="#ae"/><radialGradient id="cq" cx="-996.21" cy="43.9" r="1.97" gradientTransform="matrix(-0.44, -0.9, 0.77, -0.39, -441.13, -864.81)" xlink:href="#d"/><radialGradient id="cr" cx="-507.9" cy="-262.28" r="1.55" gradientTransform="matrix(-0.32, 0.85, -0.81, -0.48, -345.09, 319.01)" xlink:href="#ae"/><clipPath id="ct"><path class="p" d="M21.64,7c-.58,2.11.38,6.41.52,7s.36.54,1.14.51l2.41-.06a.76.76,0,0,0,.77-.91,42.43,42.43,0,0,1-.18-5c.1-.71.23-2,.23-2A3.4,3.4,0,0,0,24.36,6C23,6,21.81,6.41,21.64,7Z"/></clipPath><radialGradient id="cu" cx="20.61" cy="12.66" r="4.71" xlink:href="#d"/><radialGradient id="cv" cx="22.63" cy="5.58" r="17.46" gradientTransform="matrix(1, 0, 0, 1, 0, 0)" xlink:href="#az"/><radialGradient id="cw" cx="16.62" cy="1.6" r="13.01" xlink:href="#d"/><radialGradient id="cx" cx="29.19" cy="13.26" r="4.78" xlink:href="#d"/><radialGradient id="cy" cx="-806.82" cy="-1051.57" r="3.57" gradientTransform="matrix(-0.85, -0.16, -0.12, 1.12, -785.02, 1068.81)" xlink:href="#ae"/></defs><g class="s"><path class="t" d="M11.37,24.9c-.06,0-.57.56-.51.68-1-2,.11-1.11-.11-.26-.1.4-.52-.06-1.07,1.12l.44-.06,2,.76.42.17-4.21-.66a.36.36,0,0,0-.22,0c-.83-.11-2.15-.29-2.63-.34L5,26.3l-.39-.08c-.53-.13-.68-.19-.83-.33s-.23-.13-.08-.17-.18-.15-.29-.16H3.34l.13,0-.25,0-1,.31.27.51a2.74,2.74,0,0,0,.38,0c.25,0,.91.13,1.37.22S6.46,27,7,27.08l1.71.29h0l1.29.21c.24.05,3.52.71,4.18.86h0a.2.2,0,0,0,.08,0h.07s-.05,0,0,0a.38.38,0,0,0,.14,0,11.87,11.87,0,0,0,1.34.36l-.16.05-.48-.07h0l-.11,0H15l-.1,0H14.8c-.11,0-.28-.11-.42-.15-.46-.17-.66-.2-.5-.12l.1.05-.13,0a3.69,3.69,0,0,0-.52-.11c-.11,0-.35,0-.4,0s0,.05.12.1,0,0,0,.06a6.47,6.47,0,0,0,.7.23l.61.12.19,0h0l.09,0h0s0,0,0,0h0l.27.07H15l.86.5.23-.1.21.07A64,64,0,0,0,23,31.42a3,3,0,0,0,.43,0l.62.07,1.26-.19.13-.07,1.58.53,1.65,0-.1,0,.18,0h0c.32-.08.91-.25.9-.46S28.9,31,28.9,31l-.39,0-2.08-.52-.07.05-.31-.06-.21,0c0-.05.05-.15,0-.17l-1.4-.6-2.52-.76s-1.65-.52-1.62-.46h0l-.7-.27L19.07,28s0,0,0,0l-.08,0s0,0,0,0l-.09,0h0a2.28,2.28,0,0,0-.36-.23c-.13-.06-.51-.16-.66-.21a3,3,0,0,0-.74-.13c-.26,0-.32,0-.28.06l-.19,0,1.3.72.22.09h-.07c-.68-.24-2.08-.73-2.83-.94-1-.28-4.17-1.29-4.29-1.27l-.08,0c-.84-.25,1.43,0,1.28-.1s.14-.22.24-.26.49-.11.44-.18a.76.76,0,0,0-.47-.17l-.21-.07A7.43,7.43,0,0,0,11.37,24.9Zm17.28,6.93a4.86,4.86,0,0,1-.56-.1,3.23,3.23,0,0,0,.79,0A1.27,1.27,0,0,1,28.65,31.83Z"/><path class="u" d="M37.5,27.46l.26.08s-.13.06-.17.07h.07s0,0,0,0h0l.1.07.14.1h0a4.28,4.28,0,0,1,.73.2l1,.32.13.2s-.48,0-.48,0h-.14l.33,0,.25,0h.18l1.35.25.58,0s.52.08-.11.14c-.47.05-1.59.05-2.13.05h-.12L37.53,29l-.83-.26h-.15l-2-.06-.57-.07-.41,0A17.52,17.52,0,0,1,31.16,28l-.67-.13h0l-1.2-.23h0c-.06,0,0,0,0,0H29.1l-.14,0-.5-.08a1.64,1.64,0,0,1-.38-.11l.09,0s0,0,.07,0l.54,0a3.39,3.39,0,0,1,.42.07l.1,0v0s.17,0,.37.06l.05,0h.77l-.16,0h-.06c-.07,0,0,0,0,0h-.1l0,0h0l-1-.39h-.08c-.11,0-.05,0-.05,0h-.16c-.06,0,0,0,0,0h0l-.09,0-1.24-.17-.94-.14c-.37-.05-1.15-.21-1.49-.26s-.9-.1-1.37-.18h0c-.08,0-.13,0-.11,0l.95-.11H26l.32,0h-.17c.12,0,.33,0,.09,0a.57.57,0,0,0-.37.08s-.05,0,0,0h0c.05,0,.68.1,1.37.18a4.34,4.34,0,0,0-.66-.38c-.14,0,1.13,0,1.41,0s1.63.11,1.63.11h-.08c.28,0,.5.06.43.08s-.66,0-.84,0a2.45,2.45,0,0,0-.54.05s.68.19,1.06.28h.2s.52.14,1,.25l.77.07a8.35,8.35,0,0,1,1.57.33l-.23,0,.56.08s.55.09,1.17.22c.31,0,.23.05.23.05l.23,0c.16,0,.08,0,.08,0l.82.18,0,0,.06,0,.2,0-.12-.16.23-.22h.17a2.44,2.44,0,0,1,.46,0A2.23,2.23,0,0,1,37.5,27.46Zm2.58,1.63c-.32,0-.67,0-1-.05l.44.06Z"/><path class="a" d="M5.39,11.34a10,10,0,0,0-.65,1.58,4.78,4.78,0,0,0,0,1.75c0,.2-1.1,3.87-1.16,4.12s-.51.91-.74,1.64S1.73,24,2,24.1A1.62,1.62,0,0,0,2.83,24c.12-.09,2.39-3.6,2.59-4s1.66-3.36,1.66-3.36S8.21,13,8.29,12.33,5.39,11.34,5.39,11.34Z"/><g class="v"><path class="w" d="M6.06,13.24S4.61,18.61,4.44,19.1s.07.8-.21,1.36.38,1.08.38,1.08.45.1.51,0L7.6,16.6,6.83,14l-1.19-.87s1-.61.53-.37S6.06,13.24,6.06,13.24Z"/></g><path class="b" d="M3,19.93a2.78,2.78,0,0,1,1.12.19,1.8,1.8,0,0,1,.74.82,24.6,24.6,0,0,0-1.88,3.5,1.1,1.1,0,0,0,.34,1.1c.31.34.23.38.55.38a.32.32,0,0,1,.27.46,5.23,5.23,0,0,1-1.25.06,1.7,1.7,0,0,1-1-.21c-.31-.24-.93-.69-.83-.91a6.37,6.37,0,0,0,.59-1.2c.13-.45.49-2.2.68-2.67S3,19.93,3,19.93Z"/><g class="x"><path class="y" d="M.62,25.52a.83.83,0,0,1,.59-.21,2.32,2.32,0,0,1,1,.54c.25.25.24.38.62.43s1.55.16,1.55.16l-.13.21H2.14Z"/></g><path class="z" d="M4.42,20.48a41.15,41.15,0,0,0-2,4.59l.1.14a33.41,33.41,0,0,1,2.11-4.46Z"/><path class="l" d="M9.11,12.27S10,16.9,10,17.35s-.06,1.41-.06,1.58.48,5.34.48,5.34-.17.62-.68.73-.36-.25-.36-.25S8.15,21.1,8.1,20.48A6.41,6.41,0,0,0,7.84,19c-.14-.43-1.59-4.19-1.67-4.3a2.09,2.09,0,0,1-.53-1.63A7.62,7.62,0,0,1,6,11.42l3.19.14Z"/><g class="aa"><path class="ab" d="M5.16,12.72a6.48,6.48,0,0,0,1.5,1.66c.74.45,1.39.54,1.87,1.27s.27,2.89.5,3.25a2.18,2.18,0,0,1,.28,1.27c0,.6-.56,3.7-.56,3.7L7.17,18.42Z"/><path class="ac" d="M8.94,12.4l.72,4.46a7.75,7.75,0,0,1,.1,1.56c0,.81-.28,3.18.61,3,.17,0-.24-3.76-.24-4.87a21.49,21.49,0,0,0-.65-3.91A3.25,3.25,0,0,0,8.94,12.4Z"/></g><path class="ad" d="M8.15,21.07a2.88,2.88,0,0,1,1.16-.28c.42,0,.87,0,.87,0a30,30,0,0,0,.32,3.56c.17.31.9.33,1.15.36s.88-.09,1.08.08.33.47,0,.7a4.85,4.85,0,0,1-1.52.69,5,5,0,0,1-1.58.19c-.25-.05-.18-1-.35-1.41s-.69-1.75-.89-2.48A7.13,7.13,0,0,1,8.15,21.07Z"/><path class="q" d="M9.75,1.26a3.46,3.46,0,0,1-.34,2.56,6.17,6.17,0,0,1-.59-1.49C8.87,2.23,9.75,1.26,9.75,1.26Z"/><g class="ae"><path class="af" d="M9.64,1.31A4.72,4.72,0,0,1,9.32,3.8l.39.09L10,1.5Z"/></g><path class="f" d="M6.77,3.4a.77.77,0,0,1-.41-.69C5.83-.6,9.16-.36,9.84,1.25c.09.21,0,.3,0,.3A4.06,4.06,0,0,1,9,2.3a.11.11,0,0,0,0,.13,5.71,5.71,0,0,1,.47,1.24.64.64,0,0,1-.18.53,1.47,1.47,0,0,1-.89.07A6.23,6.23,0,0,1,6.77,3.4Z"/><g class="ag"><path class="ah" d="M7.13-.1S6,1.49,8.15,2.29A2.13,2.13,0,0,1,9.4,3.84c0,.21-.2.78-.37.72S5.84,3.37,5.82,3.31,5.46,1,5.46,1Z"/><path class="y" d="M9.08,4.17c.06-.11,0-.21-.36-.57a3.2,3.2,0,0,0-1.65-.83c-.47,0-.7.18-.53.41a2.43,2.43,0,0,0,.87.64c.35.17.52.4.85.43S9,4.27,9.08,4.17Z"/><path class="ac" d="M6.73,0A5.52,5.52,0,0,1,8.85.53a1.59,1.59,0,0,1,.87,1.28l.73-.26S10.62.85,9.61.3A6,6,0,0,0,6.73,0Z"/></g><path class="ai" d="M8.78,4.9a6.59,6.59,0,0,1-.46-1.16c-.09-.55-1.52-.57-1.51-.52l-.6,1.32Z"/><path class="l" d="M5.7,4.54a1.83,1.83,0,0,0-.79,1.72c0,.76,0,4.29,0,4.68s0,1.16,0,1.16A7.46,7.46,0,0,1,8,12.1a6.61,6.61,0,0,1,1.3.62s.26-3,.43-4.46c.14-1.15.26-2.5-.15-3.06a2,2,0,0,0-1.17-.82c-.39-.06-2-.21-2-.21Z"/><g class="aj"><path class="ah" d="M6.22,12.19S9,9.81,9.14,9.11a8,8,0,0,1,.31-1.44c.26-.65-.11-2.46-.93-2.75s-2-.5-2.48.21-.71,4.91-.68,5.7l.06,1.58Z"/><path class="ac" d="M9.9,7.75s-.14.43-.4,1.4a20.65,20.65,0,0,0-.56,3.25c0,.41.52.73.52.73s.46,0,.46-.36S9.9,7.75,9.9,7.75Z"/></g><path class="f" d="M6.42,6.59c-.18-.27-.26-.41-1-.37s-.8.73-1,1.12c-.24.55-1,2.89-1,2.89l-.29,3.08s.67-.07.81.28c0,0,.72-2.62.88-2.95a20.6,20.6,0,0,1,1-1.87C6.15,8.4,6.86,7.23,6.42,6.59Z"/><g class="ak"><path class="ah" d="M3.87,11.73c-.12-.34-.35-1.35.1-1.49s.11-1.07.68-1.45a1,1,0,0,1,1.1,0l-.34,2.08A14.6,14.6,0,0,0,4.5,12C4.38,12.28,3.87,11.73,3.87,11.73Z"/></g><path class="r" d="M3.14,13.34l0,.32-.17.58a3,3,0,0,0,.1.83.48.48,0,0,0,.53.18c.3,0,.26-.25.27-.41s0-.53,0-.53l.21.45c.11.24.23.07.1-.51L4,13.61l.46-1.75a1.36,1.36,0,0,0-1.15-.4Z"/><g class="al"><path class="ah" d="M4,14.73a1.9,1.9,0,0,0,0-.79c-.1-.27-.08-.34-.25-.34s-.34-.08-.41.09-.24.25-.24.48a3.41,3.41,0,0,0,.1,1c.08.19.15.34.25.34s.29-.17.41-.23S4,14.73,4,14.73Z"/><path class="ah" d="M3.8,11.32a9,9,0,0,0-.19,1.76c.07.23.41.38.55.28a4.83,4.83,0,0,0,.68-1.44A5.19,5.19,0,0,0,3.8,11.32Z"/></g><path class="am" d="M3.12,13.47a.64.64,0,0,1,.5-.1.45.45,0,0,1,.41.36s0,0,.07,0a.12.12,0,0,0,0-.1.1.1,0,0,0,0-.06c0-.13-.19-.31-.46-.37a.55.55,0,0,0-.57.12,0,0,0,0,0,0,.06.1.1,0,0,0-.05.07C3.09,13.46,3.12,13.47,3.12,13.47Z"/><g class="an"><path class="ao" d="M4.1,13.58A.49.49,0,0,0,4,13.41a.66.66,0,0,0-.51-.16.88.88,0,0,0-.29.07l0,0a.68.68,0,0,1,.37-.11A.6.6,0,0,1,4.1,13.58Z"/></g><ellipse class="ap" cx="8.79" cy="2.22" rx="0.58" ry="0.31" transform="translate(5.09 10.49) rotate(-80.05)"/><ellipse class="aq" cx="8.82" cy="2.22" rx="0.39" ry="0.23" transform="translate(5.11 10.52) rotate(-80.05)"/><ellipse class="ar" cx="8.85" cy="2.22" rx="0.39" ry="0.21" transform="translate(5.13 10.56) rotate(-80.04)"/><path class="as" d="M4.69,14.4a2,2,0,0,0,1.64.18s0,0,0,0,0,.05,0,.05-1.13.58-1.67.11c-.12-.11,0-.19,0-.19s-.06,0-.06-.07A.1.1,0,0,1,4.69,14.4Z"/><path class="at" d="M4.65,14.58a1.5,1.5,0,0,0,1,.19,1.68,1.68,0,0,0,.46-.09A1.72,1.72,0,0,1,4.65,14.58Z"/><path class="au" d="M6.33,14.58a2,2,0,0,1-1.64-.18s-.12.08-.05.16,0,0,0,0-.09.08,0,.19c.54.47,1.67-.11,1.67-.11s0,0,0-.05S6.33,14.58,6.33,14.58Z"/><path class="av" d="M7.79,4S9,4.26,9.26,4.8s0,.79,0,.79L7.4,5.06Z"/><path class="aw" d="M8.87,9s-2.28,2.48-1.75,3c.06.06,2.2-1.93,2.1-2.9S8.87,9,8.87,9Z"/><path class="ax" d="M9.3,12.45s-1.66,2.13-3.16,2.08c0,0,0,0,0,.09s0,.09,0,.09,2.14.18,3.07-1.14c.28-.38.09-.51.09-.51a.8.8,0,0,0,.12-.24A.33.33,0,0,0,9.3,12.45Z"/><path class="ay" d="M9.21,13.17a3.57,3.57,0,0,1-1.8,1.2c-.86.25-.86.2-.86.2A3.59,3.59,0,0,0,9.21,13.17Z"/><ellipse class="az" cx="10.85" cy="13.43" rx="0.55" ry="0.38" transform="translate(-5.02 6.63) rotate(-27.87)"/><path class="n" d="M9.4,4.61c-.35-.16-.52-.25-1.2.22s-.34,1.25-.27,1.75c.1.71.78,3.64.78,3.64l1.75,3.33s.53-.61.9-.34c0,0-.92-3.1-1-3.54a22.22,22.22,0,0,1-.15-2.53C10.27,6.61,10.25,5,9.4,4.61Z"/><g class="ba"><path class="ah" d="M9.15,12.11s.58-2,.59-2.27.08-1.81,0-2.25-.58-.5-.86-1A2.88,2.88,0,0,1,9,4.83c.05-.17-.23-.33-.66-.2-.28.08-.55.24-.76.87-.11.35-.26,1.36-.26,1.36L8.9,11.72Z"/><path class="bb" d="M8.4,5.58a.69.69,0,0,1,.39-.89c.62-.26,1,.36,1.15.81a4.92,4.92,0,0,1,.18.91c-.23-.16-.72-.16-1.49.12Z"/><path class="ac" d="M8.69,4.42a1.41,1.41,0,0,1,.8.45A4.67,4.67,0,0,1,10,6.48c0,.35-.21.53-.1,1s.15,2,.23,2.31a4.25,4.25,0,0,0,.66,1.47c.21.14,0-1.8,0-1.8s-.14-2.78-.17-2.87-.72-1.89-.75-2a4.5,4.5,0,0,0-.71-.34Z"/></g><path class="c" d="M10.34,13.49l.27.69.23.35a.91.91,0,0,1,.28.72c0,.12.27.26.53,0a.73.73,0,0,0,.29-.66,5,5,0,0,0-.07-.77,3.66,3.66,0,0,0-.51-.68l-.61-2a1.57,1.57,0,0,0-1.41.31Z"/><g class="bc"><path class="ah" d="M10,10.76a10.12,10.12,0,0,0,.68,1.6,5.06,5.06,0,0,0,.61.83l-.25,1a1.25,1.25,0,0,1,.32.35,1.57,1.57,0,0,1,0,.56l-.31.39L9.81,13.37,9,11.26Z"/></g><path class="bd" d="M8.71,10.26s.08-.37.69-.68a.85.85,0,0,1,1,.13s.07,0,.07-.13a.18.18,0,0,0-.08-.17.2.2,0,0,0,0-.14C10.33,9,9.78,9,9.3,9.16s-.79.52-.79.8A.07.07,0,0,0,8.6,10a.15.15,0,0,0,0,.16C8.65,10.28,8.71,10.26,8.71,10.26Z"/><g class="an"><path class="be" d="M10.37,9.41A1,1,0,0,0,10,9.28a1.31,1.31,0,0,0-1,.29,2.14,2.14,0,0,0-.38.41c0,.07,0,.06,0,.06a1.36,1.36,0,0,1,.47-.55A1.14,1.14,0,0,1,10.37,9.41Z"/></g><path class="bf" d="M10.41,13.74a.76.76,0,0,1,.35-.5.54.54,0,0,1,.64,0s0,0,0-.08-.07-.1-.07-.1a.16.16,0,0,0,0-.09c-.08-.15-.42-.11-.7.06s-.43.41-.4.58.06,0,.06,0a.1.1,0,0,0,0,.1A.07.07,0,0,0,10.41,13.74Z"/><g class="an"><path class="bg" d="M11.34,13a.67.67,0,0,0-.25,0,.84.84,0,0,0-.58.3,1.3,1.3,0,0,0-.18.29l0,0a.92.92,0,0,1,.23-.4A.71.71,0,0,1,11.34,13Z"/></g><path class="d" d="M2.83,4.06C2,6.28,2.66,11,2.75,11.63s.34.6,1.18.65l2.59.15a.81.81,0,0,0,.91-.9A43.44,43.44,0,0,1,7.7,6.15c.17-.75.42-2.1.42-2.1A3.65,3.65,0,0,0,5.85,3.2C4.36,3.12,3.07,3.42,2.83,4.06Z"/><g class="bh"><path class="bi" d="M6.24,12.17,5.56,8a.57.57,0,0,0-.44-.47,10.12,10.12,0,0,0-2-.09A.58.58,0,0,0,2.6,8c0,1.13.11,3.76.16,3.88A28.25,28.25,0,0,0,6.24,12.17Z"/><path class="bj" d="M2.17,11.53s4.22.36,4.34.12c.33-.67-.16-4.54.32-5.83A2.88,2.88,0,0,1,8.16,4.57L7.8,12.93,3.07,13Z"/><path class="bk" d="M3,5.22A11.05,11.05,0,0,0,4.85,5.1C5.33,5,5.93,3.65,6.45,3.6a2.34,2.34,0,0,1,1.68.31l0-.65L5.38,2.87l-1.94.36C2.64,4.09,2.75,5.21,3,5.22Z"/></g><path class="bl" d="M5.65,12.69c0,.19,0,.37,0,.56a2.62,2.62,0,0,0,0,.28.68.68,0,0,0,0,.14l0,.13a1.93,1.93,0,0,0,.2.52,1.44,1.44,0,0,0,.34.43h0l.23.57.22.57.21.57.21.57-.23-.56-.23-.57-.23-.56-.22-.57h0a1.53,1.53,0,0,1-.34-.45,1.87,1.87,0,0,1-.2-.53.59.59,0,0,1,0-.14.59.59,0,0,1,0-.14,2.62,2.62,0,0,1,0-.28Z"/><path class="e" d="M27.62,4a3.11,3.11,0,0,1-.3,2.31,5.51,5.51,0,0,1-.54-1.34C26.83,4.85,27.62,4,27.62,4Z"/><g class="bm"><path class="bn" d="M27.52,4a4.27,4.27,0,0,1-.28,2.25l.34.07.26-2.15Z"/></g><path class="f" d="M24.94,5.9a.71.71,0,0,1-.38-.62c-.47-3,2.53-2.76,3.14-1.31.08.18,0,.26,0,.26a3.48,3.48,0,0,1-.76.68A.11.11,0,0,0,27,5a6.28,6.28,0,0,1,.42,1.11.56.56,0,0,1-.17.48,1.19,1.19,0,0,1-.8.06A5.32,5.32,0,0,1,24.94,5.9Z"/><g class="bo"><path class="ah" d="M25.26,2.75s-1.05,1.43.92,2.15A1.93,1.93,0,0,1,27.3,6.3c.05.19-.17.7-.33.65S24.1,5.88,24.08,5.82s-.33-2.06-.33-2.06Z"/><path class="bp" d="M27,6.6c.05-.1-.05-.26-.37-.6a2.45,2.45,0,0,0-1.48-.66c-.43,0-.6.16-.44.36a2.12,2.12,0,0,0,.78.58c.32.15.47.37.77.39S27,6.69,27,6.6Z"/><path class="ac" d="M24.94,2.82a4.79,4.79,0,0,1,1.9.5c.83.54.79,1.15.79,1.15l.67-.24s.15-.63-.77-1.12A5.37,5.37,0,0,0,24.94,2.82Z"/></g><path class="g" d="M25.74,14.05a13.2,13.2,0,0,1,.49,1.66c0,.33.09,3.16.08,3.28,0,.59.13,3.86.13,3.86s-.22.55-.59.63a.39.39,0,0,1-.49-.23,13.42,13.42,0,0,1-.72-2,16.07,16.07,0,0,0-.34-2c-.1-.31-.79-3-.85-3.22a12.4,12.4,0,0,1-.25-1.5,2.26,2.26,0,0,1,.23-1.08l2.33.1Z"/><g class="bq"><path class="ac" d="M26,18.65c0,.25.2,3.41.2,3.41s.45.15.42,0-.11-3.62-.11-3.62Z"/></g><g class="an"><path class="h" d="M25.74,14.05a13.2,13.2,0,0,1,.49,1.66c0,.33.09,3.16.08,3.28,0,.59.13,3.86.13,3.86s-.22.55-.59.63a.39.39,0,0,1-.49-.23,13.42,13.42,0,0,1-.72-2,16.07,16.07,0,0,0-.34-2c-.1-.31-.79-3-.85-3.22a12.4,12.4,0,0,1-.25-1.5,2.26,2.26,0,0,1,.23-1.08l2.33.1Z"/><g class="br"><path class="bs" d="M26,18.65c0,.25.2,3.41.2,3.41s.45.15.42,0-.11-3.62-.11-3.62Z"/></g></g><path class="bt" d="M24.76,22a2,2,0,0,1,.88-.21c.32,0,.77-.09.77-.09a20.63,20.63,0,0,0,.21,2.62c.13.24.54.31.74.33s.72-.07.87.06.08.53-.21.64c-.72.29-1,.39-1.3.54a1,1,0,0,1-.84.11c-.2,0-.14-.73-.27-1.07s-.52-1.32-.67-1.88A6,6,0,0,1,24.76,22Z"/><path class="bu" d="M25.83,21.84H26l.56,3.4-.06,0A22.75,22.75,0,0,1,25.83,21.84Z"/><path class="i" d="M24.15,13.37a4.44,4.44,0,0,0,0,1.77,1.59,1.59,0,0,0,.64.79c0,.17-.58,3.36-.62,3.58s-.39.83-.54,1.48-.71,3.2-.49,3.24a1.36,1.36,0,0,0,.73-.17c.1-.08,1.85-3.28,2-3.63s1.31-3.76,1.31-3.76a10.16,10.16,0,0,0,.21-2.85C27.35,13.28,24.15,13.37,24.15,13.37Z"/><g class="bv"><path class="ac" d="M25.11,21a8.69,8.69,0,0,1,.54-1.15c.25-.43,1.31-2.79,1.47-2.66A4.64,4.64,0,0,1,27,19.64a14.27,14.27,0,0,0-1.39,1.83Z"/></g><path class="j" d="M23.79,20.46a2.23,2.23,0,0,1,.93.14,2.23,2.23,0,0,1,.72.6,25.44,25.44,0,0,0-1.26,2.95c-.05.48-.08.64.2.93s.46.63.73.63.17.36.12.43a4.17,4.17,0,0,1-1.05.05,1.68,1.68,0,0,1-.85-.36c-.27-.2-1-.44-.93-.65A7.11,7.11,0,0,1,23,23.81c.11-.38.21-1.56.35-2C23.54,21.18,23.79,20.46,23.79,20.46Z"/><g class="bw"><path class="y" d="M22.43,25.47c-.14-.19.07-.41.37-.27s1.17.73,1.34.76a3.08,3.08,0,0,0,.87.14c.48,0,.41,0,.41,0l-.19.22s-1.32,0-1.36,0S22.43,25.47,22.43,25.47Z"/></g><path class="bx" d="M26.8,7.25a4.29,4.29,0,0,1-.38-.83c-.08-.5-1.39-.71-1.38-.66L24.5,6.93Z"/><path class="k" d="M24.05,6.93a1.67,1.67,0,0,0-.71,1.53c0,.68,0,3.82,0,4.18a5.58,5.58,0,0,1-.12,1,7.21,7.21,0,0,1,2.84,0,10.47,10.47,0,0,1,1.32.52s.06-2.66.22-3.94c.12-1,.23-2.23-.14-2.73a1.75,1.75,0,0,0-1-.73c-.35,0-1.82-.19-1.82-.19Z"/><g class="by"><path class="ah" d="M22.56,11.09a4.28,4.28,0,0,1,.36,2.33c-.07.36,1.82.69,2.36.69s.54.51.76-.48,1.82-1.94,1.79-2.76S26.74,6.93,26,6.63s-3.31.14-3.39,1.58S22.56,11.09,22.56,11.09Z"/></g><path class="bz" d="M21.68,11a1,1,0,0,1,.81,0,.7.7,0,0,1,.55.65s.05,0,.12,0a.19.19,0,0,0,.05-.16.13.13,0,0,0,.08-.08c.1-.2-.23-.53-.63-.68a1,1,0,0,0-.94.05c-.06.07,0,.1,0,.1a.14.14,0,0,0-.09.11A.08.08,0,0,0,21.68,11Z"/><g class="an"><path class="ca" d="M23.2,11.37a1,1,0,0,0-.18-.3,1.1,1.1,0,0,0-.77-.36,1.66,1.66,0,0,0-.46,0l-.06,0a1.16,1.16,0,0,1,.6-.07A1,1,0,0,1,23.2,11.37Z"/></g><path class="f" d="M24.61,7.27c-.18-.27-.26-.41-1-.37s-.8.74-1,1.13c-.24.55-1,2.88-1,2.88L21.37,14s.67-.07.81.29c0,0,.72-2.62.88-2.95a17.65,17.65,0,0,1,1-1.88C24.34,9.09,25.05,7.92,24.61,7.27Z"/><g class="cb"><path class="ah" d="M22.06,12.41c-.12-.34-.36-1.35.1-1.48s.11-1.07.68-1.46a1,1,0,0,1,1.1,0l-.34,2.07a13.41,13.41,0,0,0-.91,1.19C22.56,13,22.06,12.41,22.06,12.41Z"/></g><path class="m" d="M21.33,14l0,.31-.17.58a2.67,2.67,0,0,0,.1.84.49.49,0,0,0,.53.18c.3,0,.26-.26.27-.41S22,15,22,15l.21.46c.11.23.22.07.1-.51l-.16-.64.47-1.75a1.34,1.34,0,0,0-1.15-.41Z"/><g class="cc"><path class="ah" d="M22.15,15.42a1.91,1.91,0,0,0,0-.79c-.1-.27-.08-.34-.25-.34s-.34-.09-.41.08-.24.26-.24.48a3.37,3.37,0,0,0,.1,1c.08.2.15.34.25.34s.28-.17.41-.23S22.15,15.42,22.15,15.42Z"/><path class="ah" d="M22,12a9.14,9.14,0,0,0-.19,1.77c.07.23.4.38.55.27A4.72,4.72,0,0,0,23,12.6,5.19,5.19,0,0,0,22,12Z"/></g><path class="cd" d="M21.31,14.15a.67.67,0,0,1,.5-.09.45.45,0,0,1,.41.35s0,0,.07,0a.12.12,0,0,0,0-.1.1.1,0,0,0,.05-.06c0-.13-.19-.31-.46-.37a.63.63,0,0,0-.58.12s0,.06,0,.06a.11.11,0,0,0,0,.08A0,0,0,0,0,21.31,14.15Z"/><g class="an"><path class="ce" d="M22.29,14.27a.49.49,0,0,0-.13-.17.64.64,0,0,0-.52-.16,1.61,1.61,0,0,0-.28.06l0,0a.72.72,0,0,1,.37-.1A.6.6,0,0,1,22.29,14.27Z"/></g><ellipse class="cf" cx="26.76" cy="4.91" rx="0.49" ry="0.27" transform="translate(17.3 30.42) rotate(-80.05)"/><ellipse class="cg" cx="26.79" cy="4.92" rx="0.33" ry="0.19" transform="translate(17.31 30.45) rotate(-80.05)"/><ellipse class="ch" cx="26.81" cy="4.92" rx="0.33" ry="0.17" transform="matrix(0.17, -0.98, 0.98, 0.17, 17.33, 30.48)"/><path class="ci" d="M24.16,19.4a1.3,1.3,0,0,1,1,0,1,1,0,0,1,.79.76s.07,0,.14-.05,0-.17,0-.17a.2.2,0,0,0,.1-.1c.09-.23-.36-.62-.89-.8s-1-.15-1.15.05,0,.11,0,.11a.15.15,0,0,0-.09.12A.11.11,0,0,0,24.16,19.4Z"/><g class="an"><path class="cj" d="M26.11,19.88a1.49,1.49,0,0,0-.26-.35,1.61,1.61,0,0,0-1-.43,2.06,2.06,0,0,0-.57,0l-.07,0a1.6,1.6,0,0,1,.74-.08A1.44,1.44,0,0,1,26.11,19.88Z"/></g><path class="ck" d="M23.45,15.56a1.51,1.51,0,0,0,1.35.4.06.06,0,0,1,0,0s0,.05,0,.05-1.05.42-1.42-.13c-.09-.12,0-.19,0-.19s-.06,0,0-.08A.1.1,0,0,1,23.45,15.56Z"/><path class="cl" d="M23.38,15.73a1.11,1.11,0,0,0,.83.33c.39,0,.4,0,.4,0S23.78,16.25,23.38,15.73Z"/><path class="cm" d="M24.8,16a1.51,1.51,0,0,1-1.35-.4s-.12.06-.08.15v0s-.09.07,0,.19c.37.55,1.42.13,1.42.13s0,0,0-.05A.06.06,0,0,0,24.8,16Z"/><path class="cn" d="M26.08,6.5s1.21.24,1.48.77,0,.8,0,.8L25.7,7.54Z"/><path class="co" d="M27.38,11.42s-2,1.69-1.44,2.19c.06.06,1.88-1.14,1.79-2.11S27.38,11.42,27.38,11.42Z"/><ellipse class="az" cx="29.35" cy="14.34" rx="0.46" ry="0.32" transform="translate(-3.06 18.46) rotate(-33.28)"/><path class="n" d="M27.44,7.08c-.31-.11-.45-.17-1,.28s-.18,1.07-.09,1.49c.14.58.94,3,.94,3L29,14.48s.4-.55.73-.36c0,0-1-2.52-1.09-2.88a18.3,18.3,0,0,1-.33-2.11C28.33,8.68,28.18,7.32,27.44,7.08Z"/><g class="cp"><path class="ah" d="M27.82,13.38s.33-1.75.32-2S28.07,9.91,28,9.54s-.52-.36-.8-.79a2.45,2.45,0,0,1-.11-1.45c0-.14-.21-.26-.57-.11s-.44.24-.56.79a10.19,10.19,0,0,0-.11,1.15l1.75,3.94Z"/><path class="cq" d="M26.68,8a.59.59,0,0,1,.26-.78c.5-.27.87.21,1,.58a4,4,0,0,1,.23.75c-.21-.12-.62-.07-1.24.22Z"/><path class="ac" d="M26.83,7a1.2,1.2,0,0,1,.71.31A4.05,4.05,0,0,1,28.1,8.6c0,.29-.14.46,0,.83s.29,1.62.38,1.92a3.53,3.53,0,0,0,.67,1.17c.19.11-.14-1.5-.14-1.5s-.34-2.32-.37-2.39-.75-1.53-.78-1.58a4.41,4.41,0,0,0-.62-.23Z"/></g><path class="o" d="M28.93,14.43l.28.57.22.27a.75.75,0,0,1,.29.58c0,.1.25.2.45,0a.6.6,0,0,0,.19-.57,4.52,4.52,0,0,0-.12-.64,3,3,0,0,0-.48-.53l-.67-1.63a1.31,1.31,0,0,0-1.16.37Z"/><g class="cr"><path class="ah" d="M28.4,12.18a8.75,8.75,0,0,0,.7,1.29,4.07,4.07,0,0,0,.57.64l-.13.85a1,1,0,0,1,.3.27,1.36,1.36,0,0,1,.06.47l-.23.35-1.2-1.67-.81-1.7Z"/></g><path class="cs" d="M27.31,11.86s0-.31.52-.61a.7.7,0,0,1,.85,0s.06,0,.05-.11a.16.16,0,0,0-.08-.14.16.16,0,0,0,0-.12c-.07-.2-.54-.19-.92,0s-.62.49-.6.73c0,.09.08.06.08.06a.15.15,0,0,0,0,.13C27.26,11.89,27.31,11.86,27.31,11.86Z"/><g class="an"><path class="ct" d="M28.63,11A.7.7,0,0,0,28.3,11a1.08,1.08,0,0,0-.8.32,1.62,1.62,0,0,0-.28.36c0,.06,0,.06,0,.06a1.11,1.11,0,0,1,.35-.5A1,1,0,0,1,28.63,11Z"/></g><path class="cu" d="M29,14.64a.68.68,0,0,1,.26-.44.43.43,0,0,1,.53-.08s0,0,0-.08a.1.1,0,0,0-.07-.08.1.1,0,0,0,0-.07c-.07-.12-.36-.06-.58.1s-.33.38-.29.53.06,0,.06,0a.07.07,0,0,0,0,.08S29,14.64,29,14.64Z"/><g class="an"><path class="cv" d="M29.73,14a1.16,1.16,0,0,0-.21,0,.69.69,0,0,0-.46.29,1.85,1.85,0,0,0-.14.26s0,0,0,0a.71.71,0,0,1,.81-.59Z"/></g><path class="p" d="M21.64,7c-.58,2.11.38,6.41.52,7s.36.54,1.14.51l2.41-.06a.76.76,0,0,0,.77-.91,42.43,42.43,0,0,1-.18-5c.1-.71.23-2,.23-2A3.4,3.4,0,0,0,24.36,6C23,6,21.81,6.41,21.64,7Z"/><g class="cw"><path class="cx" d="M25.43,14.26l-1-3.84A.53.53,0,0,0,24,10a10,10,0,0,0-1.9.07.54.54,0,0,0-.39.6c.12,1.05.4,3.48.46,3.59A26.85,26.85,0,0,0,25.43,14.26Z"/><path class="cy" d="M21.61,14s3.93,0,4-.23c.26-.65-.5-4.19-.16-5.42a2.64,2.64,0,0,1,1.14-1.26l.32,7.76-4.37.4Z"/><path class="cz" d="M21.92,8.08a10,10,0,0,0,1.67-.25C24,7.74,24.47,6.4,25,6.31a2.24,2.24,0,0,1,1.58.16l-.08-.6L23.9,5.72l-1.76.49C21.47,7.06,21.65,8.09,21.92,8.08Z"/></g><path class="da" d="M27.41,14.14S26,16,24.77,15.93c0,0,0,0,0,.07s0,.08,0,.08a3.11,3.11,0,0,0,2.57-1c.23-.33.07-.43.07-.43a.85.85,0,0,0,.11-.21A.31.31,0,0,0,27.41,14.14Z"/><path class="db" d="M27.34,14.76a2.93,2.93,0,0,1-1.51,1c-.72.22-.73.18-.73.18A3,3,0,0,0,27.34,14.76Z"/><path class="dc" d="M24.09,14.83a.88.88,0,0,0,.07.32,1.18,1.18,0,0,0,.16.29.64.64,0,0,0,.1.13l.12.11.24.23h0l-.12.74-.13.74c0,.25-.08.49-.13.74s-.09.49-.14.74c0-.25.07-.5.11-.74l.12-.75.12-.74.12-.74v0l-.24-.23-.11-.12-.11-.13a2.1,2.1,0,0,1-.15-.3A1,1,0,0,1,24.09,14.83Z"/></g></svg>