<svg xmlns="http://www.w3.org/2000/svg" xmlns:xlink="http://www.w3.org/1999/xlink" viewBox="0 0 65.93 73.4"><defs><style>.a{isolation:isolate;}.b{fill:url(#a);}.c{fill:url(#b);}.d{fill:url(#c);}.e{fill:url(#d);}.aa,.ab,.ac,.ad,.ae,.af,.ag,.ah,.ai,.am,.an,.ao,.ap,.aq,.ar,.as,.ay,.az,.ba,.bd,.be,.bf,.bh,.bi,.bz,.ca,.cd,.ce,.cf,.f,.g,.m,.n,.o,.p,.v,.w,.z{fill-rule:evenodd;}.f{fill:url(#e);}.aa,.ac,.ae,.am,.ap,.av,.ba,.bd,.be,.bf,.bg,.bh,.bi,.bj,.bo,.bw,.cb,.cl,.g,.k,.p,.t{mix-blend-mode:multiply;}.g{fill:url(#f);}.h{fill:url(#g);}.i{fill:url(#h);}.j{fill:url(#i);}.k{fill:url(#j);}.bp,.bq,.br,.bs,.bt,.bu,.bv,.cm,.cn,.co,.cp,.cq,.cr,.cs,.l,.u{mix-blend-mode:overlay;opacity:0.37;}.l{fill:url(#k);}.m{fill:url(#l);}.n{fill:#3c2863;}.o{fill:url(#m);}.p{fill:url(#n);}.q{fill:url(#o);}.r{fill:url(#p);}.s{fill:url(#q);}.t{fill:url(#r);}.u{fill:url(#s);}.v{fill:url(#t);}.w{fill:#0d0316;}.x{fill:none;}.y{fill:url(#u);}.z{fill:url(#v);}.aa{fill:url(#w);}.ab{fill:url(#x);}.ac{fill:url(#y);}.ad{fill:url(#z);}.ae{fill:url(#aa);}.af{fill:url(#ab);}.ag{fill:url(#ac);}.ah{fill:url(#ad);}.ai{fill:url(#ae);}.aj{fill:url(#af);}.ak{fill:url(#ag);}.al{fill:url(#ah);}.am{opacity:0.42;fill:url(#ai);}.an{fill:url(#aj);}.ao{fill:url(#ak);}.ap{fill:url(#al);}.aq{fill:url(#am);}.ar{fill:url(#an);}.as{fill:url(#ao);}.at{fill:url(#ap);}.au{fill:url(#aq);}.av{opacity:0.25;}.aw{fill:url(#ar);}.ax{fill:url(#as);}.ay{fill:url(#at);}.az{fill:url(#au);}.ba{fill:url(#av);}.bb{fill:url(#aw);}.bc{fill:url(#ax);}.bd,.be,.bf,.bh,.bi,.bj{opacity:0.31;}.bd{fill:url(#ay);}.be{fill:url(#az);}.bf{fill:url(#ba);}.bh{fill:url(#bb);}.bi{fill:url(#bc);}.bk{fill:url(#bd);}.bl{fill:url(#be);}.bm{fill:#bb99e0;}.bn{fill:#edd9ff;}.bo,.cl{opacity:0.53;}.bo{fill:url(#bf);}.bp{fill:url(#bg);}.bq{fill:url(#bh);}.br{fill:url(#bi);}.bs{fill:url(#bj);}.bt{fill:url(#bk);}.bu{fill:url(#bl);}.bv{fill:url(#bm);}.bw{fill:url(#bn);}.bx{fill:url(#bo);}.by{fill:url(#bp);}.bz{fill:url(#bq);}.ca{fill:url(#bs);}.cb{fill:url(#bt);}.cc{mix-blend-mode:screen;fill:url(#bu);}.cd{fill:url(#bv);}.ce{fill:url(#bw);}.cf{fill:url(#bx);}.cg{fill:#fff;}.ch{fill:url(#by);}.ci{fill:url(#bz);}.cj{fill:url(#ca);}.ck{fill:url(#cb);}.cl{fill:url(#cc);}.cm{fill:url(#cd);}.cn{fill:url(#ce);}.co{fill:url(#cf);}.cp{fill:url(#cg);}.cq{fill:url(#ch);}.cr{fill:url(#ci);}.cs{fill:url(#cj);}</style><radialGradient id="a" cx="86.75" cy="-811.31" r="45.5" gradientTransform="translate(25.6 840.65) rotate(-3.73)" gradientUnits="userSpaceOnUse"><stop offset="0" stop-color="#f4f1ff"/><stop offset="1" stop-color="#d1bde5"/></radialGradient><radialGradient id="b" cx="45.87" cy="27.96" r="44.72" gradientTransform="matrix(1, 0, 0, 1, 0, 0)" xlink:href="#a"/><radialGradient id="c" cx="61.11" cy="43.96" r="38.5" gradientUnits="userSpaceOnUse"><stop offset="0" stop-color="#f4f1ff"/><stop offset="1" stop-color="#c1bdeb"/></radialGradient><radialGradient id="d" cx="67.36" cy="-805.53" r="1.29" gradientTransform="translate(25.6 840.65) rotate(-3.73)" gradientUnits="userSpaceOnUse"><stop offset="0" stop-color="#7d54b8"/><stop offset="1" stop-color="#353567"/></radialGradient><radialGradient id="e" cx="106.22" cy="-919.1" r="28.35" gradientTransform="translate(-61.45 954.88) rotate(-2.09)" xlink:href="#a"/><linearGradient id="f" x1="50.29" y1="-803.67" x2="60.37" y2="-798.43" gradientTransform="translate(25.6 840.65) rotate(-3.73)" gradientUnits="userSpaceOnUse"><stop offset="0" stop-color="#7d54b8" stop-opacity="0"/><stop offset="1" stop-color="#353567"/></linearGradient><radialGradient id="g" cx="-17.06" cy="-770.12" r="20.82" gradientTransform="translate(49.89 801.07) rotate(-1.4)" xlink:href="#a"/><radialGradient id="h" cx="23.06" cy="47.53" r="17.61" gradientUnits="userSpaceOnUse"><stop offset="0" stop-color="#02fffa"/><stop offset="1" stop-color="#7d54b8"/></radialGradient><linearGradient id="i" x1="105.06" y1="-916.31" x2="108.77" y2="-916.31" gradientTransform="translate(-61.45 954.88) rotate(-2.09)" xlink:href="#a"/><radialGradient id="j" cx="318.83" cy="-875.83" r="8.69" gradientTransform="matrix(0.87, -0.12, 0.14, 0.99, -146.58, 938.87)" xlink:href="#a"/><radialGradient id="k" cx="152.49" cy="-876.72" r="5.17" gradientTransform="matrix(0.99, -0.14, 0.14, 0.99, -20.91, 921.41)" gradientUnits="userSpaceOnUse"><stop offset="0.1" stop-color="#f4f1ff"/><stop offset="1" stop-color="#d1bde5"/></radialGradient><radialGradient id="l" cx="10.04" cy="46.51" r="12.69" xlink:href="#h"/><radialGradient id="m" cx="194.61" cy="-894.45" r="22.62" gradientTransform="matrix(0.99, -0.14, 0.14, 0.99, -20.91, 921.41)" xlink:href="#a"/><linearGradient id="n" x1="65.21" y1="-812.73" x2="55.11" y2="-803.44" xlink:href="#f"/><radialGradient id="o" cx="14.25" cy="-784.15" r="9.95" gradientTransform="translate(49.89 801.07) rotate(-1.4)" xlink:href="#a"/><radialGradient id="p" cx="57.36" cy="35.62" r="25.31" xlink:href="#h"/><linearGradient id="q" x1="-36.12" y1="-735.41" x2="-32.4" y2="-735.41" gradientTransform="matrix(-0.56, 0.83, 0.83, 0.56, 635.18, 456.9)" xlink:href="#a"/><radialGradient id="r" cx="137.35" cy="-710.18" r="8.69" gradientTransform="matrix(-0.56, 0.67, 0.77, 0.64, 666.41, 376.1)" xlink:href="#a"/><radialGradient id="s" cx="-6.3" cy="-711.07" r="5.17" gradientTransform="matrix(-0.64, 0.77, 0.77, 0.64, 585.38, 473.73)" xlink:href="#k"/><radialGradient id="t" cx="52.43" cy="20.13" r="10.77" xlink:href="#h"/><radialGradient id="u" cx="170.27" cy="-861.39" r="50.92" gradientTransform="matrix(0.99, -0.14, 0.14, 0.99, -20.91, 921.41)" xlink:href="#a"/><linearGradient id="v" x1="169.15" y1="-847.91" x2="182.09" y2="-848.23" gradientTransform="matrix(0.99, -0.14, 0.14, 0.99, -20.91, 921.41)" xlink:href="#a"/><linearGradient id="w" x1="60.26" y1="-781.71" x2="70.9" y2="-791.04" xlink:href="#f"/><linearGradient id="x" x1="173.53" y1="-863.43" x2="176.73" y2="-875.5" gradientTransform="matrix(0.99, -0.14, 0.14, 0.99, -20.91, 921.41)" xlink:href="#a"/><linearGradient id="y" x1="58.67" y1="-799.28" x2="65.67" y2="-822.8" xlink:href="#f"/><radialGradient id="z" cx="188.91" cy="-855.38" r="45.64" gradientTransform="matrix(0.99, -0.14, 0.14, 0.99, -20.91, 921.41)" xlink:href="#a"/><linearGradient id="aa" x1="72.27" y1="-789.54" x2="59.38" y2="-788" xlink:href="#f"/><radialGradient id="ab" cx="121.56" cy="-925.07" r="5.86" gradientTransform="translate(-61.45 954.88) rotate(-2.09)" xlink:href="#d"/><radialGradient id="ac" cx="43.28" cy="39.28" r="17.7" gradientTransform="matrix(1, 0, 0, 1, 0, 0)" xlink:href="#d"/><radialGradient id="ad" cx="49.85" cy="34.55" r="17.08" xlink:href="#h"/><radialGradient id="ae" cx="18.81" cy="47.74" r="18.01" xlink:href="#h"/><radialGradient id="af" cx="62.81" cy="52.21" r="14.38" xlink:href="#h"/><radialGradient id="ag" cx="24.94" cy="64.72" r="16.12" xlink:href="#h"/><radialGradient id="ah" cx="173.3" cy="-855" r="18.12" gradientTransform="matrix(0.99, -0.14, 0.14, 0.99, -20.91, 921.41)" xlink:href="#a"/><linearGradient id="ai" x1="116.69" y1="-924.22" x2="130.31" y2="-924.22" gradientTransform="translate(-61.45 954.88) rotate(-2.09)" gradientUnits="userSpaceOnUse"><stop offset="0" stop-color="#fff"/><stop offset="1" stop-color="#9579a7"/></linearGradient><radialGradient id="aj" cx="35.83" cy="73.83" r="9.68" xlink:href="#h"/><linearGradient id="ak" x1="174.73" y1="-837.87" x2="189.09" y2="-828.14" gradientTransform="matrix(0.99, -0.14, 0.14, 0.99, -20.91, 921.41)" xlink:href="#a"/><linearGradient id="al" x1="176.15" y1="-839.4" x2="176.15" y2="-834.06" gradientTransform="matrix(0.99, -0.14, 0.14, 0.99, -20.91, 921.41)" xlink:href="#ai"/><radialGradient id="am" cx="126.44" cy="-919.96" r="6.62" gradientTransform="translate(-61.45 954.88) rotate(-2.09)" xlink:href="#d"/><radialGradient id="an" cx="174.17" cy="-873.98" r="1.49" gradientTransform="matrix(0.99, -0.14, 0.14, 0.99, -20.91, 921.41)" xlink:href="#d"/><linearGradient id="ao" x1="172.49" y1="-873.94" x2="175.36" y2="-873.94" gradientTransform="matrix(0.99, -0.14, 0.14, 0.99, -20.91, 921.41)" xlink:href="#a"/><linearGradient id="ap" x1="123.22" y1="-895.18" x2="133.34" y2="-895.18" gradientTransform="translate(-61.45 954.88) rotate(-2.09)" xlink:href="#a"/><linearGradient id="aq" x1="138.5" y1="-903.4" x2="142.71" y2="-903.4" gradientTransform="translate(-61.45 954.88) rotate(-2.09)" xlink:href="#a"/><linearGradient id="ar" x1="177.96" y1="-862.52" x2="187.67" y2="-862.52" gradientTransform="matrix(0.99, -0.14, 0.14, 0.99, -20.91, 921.41)" xlink:href="#ai"/><linearGradient id="as" x1="177.96" y1="-876.04" x2="187.67" y2="-876.04" gradientTransform="matrix(0.99, -0.14, 0.14, 0.99, -20.91, 921.41)" xlink:href="#ai"/><linearGradient id="at" x1="202.46" y1="-846.26" x2="193.15" y2="-830.71" gradientTransform="matrix(0.99, -0.14, 0.14, 0.99, -20.91, 921.41)" xlink:href="#a"/><radialGradient id="au" cx="73.28" cy="63.02" r="19.59" xlink:href="#h"/><linearGradient id="av" x1="195.69" y1="-847.1" x2="199.72" y2="-840.12" gradientTransform="matrix(0.99, -0.14, 0.14, 0.99, -20.91, 921.41)" xlink:href="#ai"/><radialGradient id="aw" cx="189.44" cy="-853.4" r="4.09" gradientTransform="matrix(0.99, -0.14, 0.14, 0.99, -20.91, 921.41)" gradientUnits="userSpaceOnUse"><stop offset="0" stop-color="#fff"/><stop offset="0.87" stop-color="#fff" stop-opacity="0"/></radialGradient><radialGradient id="ax" cx="189.34" cy="-853.47" r="2.74" xlink:href="#aw"/><radialGradient id="ay" cx="171.37" cy="-861.15" r="13.45" gradientTransform="matrix(0.99, -0.14, 0.14, 0.99, -20.91, 921.41)" xlink:href="#d"/><radialGradient id="az" cx="896.2" cy="162.31" r="13.44" gradientTransform="matrix(0.4, -0.86, 0.82, 0.38, -462.26, 767.98)" xlink:href="#d"/><radialGradient id="ba" cx="-578.9" cy="-526.04" r="17.5" gradientTransform="translate(-270.37 753.37) rotate(71.87)" xlink:href="#d"/><radialGradient id="bb" cx="-992.2" cy="359.59" r="13.86" gradientTransform="matrix(-0.61, -0.76, 0.79, -0.6, -878.95, -501.29)" xlink:href="#d"/><radialGradient id="bc" cx="-923.33" cy="-123.89" r="13.86" gradientTransform="matrix(-0.33, -0.92, -0.93, 0.36, -368.71, -785.79)" xlink:href="#d"/><radialGradient id="bd" cx="190.03" cy="-845.78" r="0.08" gradientTransform="matrix(0.99, -0.14, 0.14, 0.99, -20.91, 921.41)" xlink:href="#d"/><radialGradient id="be" cx="173.59" cy="-846.82" r="42.29" gradientTransform="matrix(0.99, -0.14, 0.14, 0.99, -20.91, 921.41)" xlink:href="#d"/><linearGradient id="bf" x1="-2446.37" y1="167.55" x2="-2463.26" y2="164.62" gradientTransform="translate(2458.6 -453.59) rotate(-7)" xlink:href="#ai"/><radialGradient id="bg" cx="459.92" cy="-468.64" r="1.53" gradientTransform="translate(-51.39 662.09) rotate(-35.92)" xlink:href="#k"/><radialGradient id="bh" cx="458.13" cy="-469.31" r="1.17" gradientTransform="translate(-51.39 662.09) rotate(-35.92)" xlink:href="#k"/><radialGradient id="bi" cx="457.3" cy="-471.74" r="0.43" gradientTransform="translate(-51.39 662.09) rotate(-35.92)" xlink:href="#k"/><radialGradient id="bj" cx="462.94" cy="-468.15" r="0.96" gradientTransform="translate(-51.39 662.09) rotate(-35.92)" xlink:href="#k"/><radialGradient id="bk" cx="462.84" cy="-470.62" r="1.3" gradientTransform="translate(-51.39 662.09) rotate(-35.92)" xlink:href="#k"/><radialGradient id="bl" cx="460.82" cy="-472.35" r="1.35" gradientTransform="translate(-51.39 662.09) rotate(-35.92)" xlink:href="#k"/><radialGradient id="bm" cx="462.03" cy="-466.87" r="0.66" gradientTransform="translate(-51.39 662.09) rotate(-35.92)" xlink:href="#k"/><linearGradient id="bn" x1="64.97" y1="-808.48" x2="63.21" y2="-806.19" gradientTransform="translate(25.6 840.65) rotate(-3.73)" xlink:href="#ai"/><linearGradient id="bo" x1="65.68" y1="-805.84" x2="71.29" y2="-800.26" gradientTransform="translate(25.6 840.65) rotate(-3.73)" xlink:href="#a"/><radialGradient id="bp" cx="65.14" cy="-800.31" r="3.15" xlink:href="#a"/><radialGradient id="bq" cx="51.15" cy="32.6" r="27.59" gradientTransform="matrix(1, 0, 0, 1, 0, 0)" xlink:href="#d"/><radialGradient id="bs" cx="46.55" cy="14.68" r="27.57" xlink:href="#h"/><linearGradient id="bt" x1="31.33" y1="6.03" x2="15.16" y2="16.32" gradientTransform="matrix(1, 0, 0, 1, 0, 0)" xlink:href="#f"/><linearGradient id="bu" x1="-11.57" y1="-787.61" x2="-33.27" y2="-785.39" gradientTransform="translate(49.89 801.07) rotate(-1.4)" xlink:href="#f"/><radialGradient id="bv" cx="-11.28" cy="-789.69" r="41.89" gradientTransform="translate(49.89 801.07) rotate(-1.4)" xlink:href="#a"/><radialGradient id="bw" cx="-41.28" cy="-667.01" r="24.69" gradientTransform="matrix(1.03, -0.08, 0.08, 1, 131.18, 676.51)" gradientUnits="userSpaceOnUse"><stop offset="0" stop-color="#f4f1ff"/><stop offset="1" stop-color="#c9b1e3"/></radialGradient><radialGradient id="bx" cx="-49.46" cy="-694.79" r="14.17" gradientTransform="matrix(0.95, 0.02, -0.02, 1, 59.65, 705.29)" xlink:href="#bw"/><radialGradient id="by" cx="26.17" cy="11.45" r="8.95" gradientTransform="translate(0.65 -1.52) rotate(2.64)" xlink:href="#d"/><radialGradient id="bz" cx="28.04" cy="11.66" r="6.8" gradientTransform="translate(0.65 -1.54) rotate(2.64)" xlink:href="#h"/><radialGradient id="ca" cx="-35.17" cy="-726.96" r="7.27" gradientTransform="matrix(1.11, 0, 0, 1.09, 70.44, 805.51)" xlink:href="#a"/><linearGradient id="cb" x1="-82.16" y1="-670.81" x2="-77.79" y2="-670.81" gradientTransform="matrix(1, -0.03, 0.03, 1, 136.39, 681.04)" gradientUnits="userSpaceOnUse"><stop offset="0.28" stop-color="#f4f1ff"/><stop offset="1" stop-color="#d1bde5" stop-opacity="0"/></linearGradient><linearGradient id="cc" x1="-2430.14" y1="190.29" x2="-2447.03" y2="187.36" gradientTransform="matrix(-0.99, -0.12, -0.12, 0.99, -2386.94, -453.59)" xlink:href="#ai"/><radialGradient id="cd" cx="463.13" cy="-440.89" r="1.53" gradientTransform="matrix(-0.81, -0.59, -0.59, 0.81, 123.04, 662.09)" xlink:href="#k"/><radialGradient id="ce" cx="461.34" cy="-441.55" r="1.17" gradientTransform="matrix(-0.81, -0.59, -0.59, 0.81, 123.04, 662.09)" xlink:href="#k"/><radialGradient id="cf" cx="460.51" cy="-443.98" r="0.43" gradientTransform="matrix(-0.81, -0.59, -0.59, 0.81, 123.04, 662.09)" xlink:href="#k"/><radialGradient id="cg" cx="466.15" cy="-440.4" r="0.96" gradientTransform="matrix(-0.81, -0.59, -0.59, 0.81, 123.04, 662.09)" xlink:href="#k"/><radialGradient id="ch" cx="466.05" cy="-442.86" r="1.3" gradientTransform="matrix(-0.81, -0.59, -0.59, 0.81, 123.04, 662.09)" xlink:href="#k"/><radialGradient id="ci" cx="464.03" cy="-444.6" r="1.35" gradientTransform="matrix(-0.81, -0.59, -0.59, 0.81, 123.04, 662.09)" xlink:href="#k"/><radialGradient id="cj" cx="465.24" cy="-439.11" r="0.66" gradientTransform="matrix(-0.81, -0.59, -0.59, 0.81, 123.04, 662.09)" xlink:href="#k"/></defs><g class="a"><path class="b" d="M51.15,42.47,40.22,18.33a1.23,1.23,0,0,0-1-.72H39l-2.84-.19,1.11.88-16.2,7.33a1.25,1.25,0,0,0-.62,1.64L31.43,51.4a1.23,1.23,0,0,0,1.63.62L50.53,44.1A1.23,1.23,0,0,0,51.15,42.47Z"/><path class="c" d="M37.1,17.79l2.61-.18s0,0,0,0h0l-2.54,1.22V18.8l3-.19a0,0,0,0,1,0,0,0,0,0,0,1,0,0L38,20.13l0-.09,2.81-.19a.06.06,0,0,1,.06,0,.08.08,0,0,1,0,.05l-2,1.67,0-.11,2.8.09a.07.07,0,0,1,.06.07.05.05,0,0,1,0,.06l-1.88,1,0-.14,2.49.36a.09.09,0,0,1,.07.09s0,0,0,0l-1.6,1.37-.05-.14,2.38.09a.09.09,0,0,1,.08.09.08.08,0,0,1,0,0L41.77,26l-.05-.13,2,.38a.08.08,0,0,1,.06.1.08.08,0,0,1,0,0l-2,2.24-.07-.14,2.85-.34a.08.08,0,0,1,.1.07.14.14,0,0,1,0,.07l-1.81,2.33-.09-.13L45.31,30a.08.08,0,0,1,.1.06.13.13,0,0,1,0,.06L44.06,32.3,44,32.17,46.31,32a.08.08,0,0,1,.08.08s0,0,0,0L44.89,34l0-.12,2.46.4a.08.08,0,0,1,.06.09l0,0L45.6,36.11,45.55,36h2.5a.07.07,0,0,1,.07.06s0,0,0,0l-1.39,2.08,0-.09L49,37.94a0,0,0,0,1,.06,0,0,0,0,0,1,0,0l-1.15,2.4,0-.06,2.1-.13a0,0,0,0,1,0,0v0l-1.36,2.17,0,0L51,42.5h0L49.2,44.45l1.77-2v0l-2.37-.06s0,0,0,0h0l1.34-2.18,0,0-2.1.15a.07.07,0,0,1,0,0v0L49,38,49,38l-2.34.16a.06.06,0,0,1-.06-.06v0L48,36l0,.09h-2.5a.06.06,0,0,1-.07-.06.08.08,0,0,1,0-.05l1.74-1.7,0,.13L44.82,34a.1.1,0,0,1-.07-.09l0,0,1.48-1.87.07.13L44,32.33a.07.07,0,0,1-.09-.07.09.09,0,0,1,0,0L45.26,30l.08.12-2.6.58a.09.09,0,0,1-.1-.06.06.06,0,0,1,0-.07l1.8-2.34.08.14-2.85.34a.09.09,0,0,1-.1-.07.14.14,0,0,1,0-.07l2-2.24,0,.13-2-.38a.08.08,0,0,1-.06-.09s0,0,0,0l1.22-1.52.06.13-2.37-.09a.08.08,0,0,1-.08-.08.09.09,0,0,1,0-.06L42.1,23l0,.13-2.5-.36a.09.09,0,0,1-.06-.09.1.1,0,0,1,0-.05l1.89-1,0,.13-2.8-.11a.06.06,0,0,1-.06-.06s0,0,0,0l2-1.67,0,.1-2.82.18a.05.05,0,0,1,0-.05.08.08,0,0,1,0,0l2.26-1.43,0,.07-3,.16a0,0,0,0,1,0,0s0,0,0,0l2.55-1.2v0Z"/><path class="d" d="M47.24,42.76,31.29,50a1.05,1.05,0,0,1-1.39-.52L19.33,26.13a1.06,1.06,0,0,1,.53-1.4l16-7.22A1,1,0,0,1,37.2,18L47.77,41.36A1.06,1.06,0,0,1,47.24,42.76Z"/><circle class="e" cx="40.47" cy="32.44" r="1.29"/><path class="f" d="M8.85,36.77c1.56,2.45,8.59,4.45,11.89,3.27.69-.25,1.9-.52,2.77-.89,6.12-2.58,4.34-3,4.77-4.34.26-.83-3.56-1.44-3.56-1.44l-1.36-6.79-.23.11a11.94,11.94,0,0,0-2.38,1.56c-1.21,1-5.7,3-8.24,3s-3.59-.6-4.16-.4-.81,1.3-.81,1.3A7.15,7.15,0,0,0,8.85,36.77Z"/><path class="g" d="M8.85,36.77c1.56,2.45,8,4.2,11.4,3.4,8.21-1.93,5.77-4.6,6.26-6.16.26-.82-1.79-.64-1.79-.64l-1.36-6.79-.23.11a11.94,11.94,0,0,0-2.38,1.56c-1.21,1-5.7,3-8.24,3s-3.59-.6-4.16-.4-.81,1.3-.81,1.3A7.15,7.15,0,0,0,8.85,36.77Z"/><path class="h" d="M23.36,26.58l1.36,6.79S26.66,36.12,26.4,37c-.49,1.56-4.36,2.9-7.14,3.28-3.51.49-9-1.28-10.41-3.46a7.15,7.15,0,0,1-1.31-4.63s.24-1.09.81-1.3l.14,0c.6-.08,1.67.41,4,.43a6.68,6.68,0,0,0,1-.07,18.85,18.85,0,0,0,7.28-2.92,11.94,11.94,0,0,1,2.38-1.56l.23-.11"/><path class="i" d="M15.09,30.63s1.63.82,2.55,4.4a5,5,0,0,1-1.5,5.34s0,.4.54.51a.85.85,0,0,0,.88-.26.81.81,0,0,0,.68.18c1.22-.14,1.89-3.1,1.46-5.88-.39-2.46-1.72-4.78-3-5.06a.34.34,0,0,0-.46.37.71.71,0,0,0-.76-.13A.51.51,0,0,0,15.09,30.63Z"/><path class="j" d="M13.5,39.59c1.91-4.65-3.3-8.51-3.35-8.55L10,31s5.23,4,3.37,8.52Z"/><path class="k" d="M10.36,33.8c.24,1.72-.25,3.09-1.09,3.14S7.9,35.88,7.66,34.16s-.07-3.17.73-3.28C9,30.79,10.12,32.08,10.36,33.8Z"/><path class="l" d="M8.49,30.86c.15-.11,1.89.14,2.23,3.09s-1.46,3.91-2.18,2.68C10.79,38.4,11.17,32,8.49,30.86Z"/><path class="m" d="M7.38,31.75a1.6,1.6,0,0,1,1.56-.06c1,.71,1.75,4.48-.19,4.9-2.18.48-1.37-4.84-1.37-4.84Z"/><path class="n" d="M8,31.87a4.09,4.09,0,0,1,0,4.21S6.32,33.63,8,31.87Z"/><path class="o" d="M46.74,16.64C48,19.26,45.94,27,42.62,30.06c-3.8,3.52-6.06,2.59-6.19,2.67-1.85,1.11-5.62-3-5.62-3l-.49-6.11.22-.14a11.91,11.91,0,0,1,2.57-1.2C34.63,21.8,38.67,19,40,16.85s1.37-3.37,1.85-3.74,1.53,0,1.53,0A7,7,0,0,1,46.74,16.64Z"/><path class="p" d="M46.74,16.64C48,19.26,45.94,27,42.62,30.06c-3.8,3.52-6.28,2.78-6.41,2.87-1.84,1.11-5.4-3.2-5.4-3.2l-.49-6.11.22-.14a11.91,11.91,0,0,1,2.57-1.2C34.63,21.8,38.67,19,40,16.85s1.37-3.37,1.85-3.74,1.53,0,1.53,0A7,7,0,0,1,46.74,16.64Z"/><path class="q" d="M30.32,23.62l.22-.14a11.91,11.91,0,0,1,2.57-1.2,18.91,18.91,0,0,0,6.32-4.65,8.48,8.48,0,0,0,.57-.78c1.22-2,1.36-3.18,1.74-3.64l.11-.1c.48-.38,1.53,0,1.53,0a7.18,7.18,0,0,1,3.24,3.55c1.31,2.41-.13,12.2-7.14,15.65-.12.1-1.18.41-1.31.49-1.85,1.12-2.86-.25-4.44-.66-.84-.22-.63-2.34-.63-2.34l-2.78-6.17m-.15-.13a.22.22,0,0,0-.05.11.23.23,0,0,0,.07.17l5.05,4.73.06,0s-2.46,3.57-1.62,3.78a9.58,9.58,0,0,0,2.75.68c.64.39,7-1.08,9.35-8.08a17.29,17.29,0,0,0,1-3,8.69,8.69,0,0,0,0-5.31,8.55,8.55,0,0,0-2.18-2.88,5.17,5.17,0,0,0-1.17-.78h0a3,3,0,0,0-.62-.15,1.43,1.43,0,0,0-1.1.19l-.13.13a3.49,3.49,0,0,0-.47,1,14,14,0,0,1-1.3,2.69,6.2,6.2,0,0,1-.55.76A17.61,17.61,0,0,1,36,20.38a12.48,12.48,0,0,1-3,1.7,12.06,12.06,0,0,0-2.62,1.23l-.22.14,0,0Z"/><path class="r" d="M38.11,18.72s-.15,1.82,2.41,4.49a5,5,0,0,0,5.34,1.54s.34.18.13.72-.62.64-.62.64a.59.59,0,0,1-.07.69c-.77,1-3.83-.07-6-1.9-1.88-1.63-3.15-4-2.71-5.23a.35.35,0,0,1,.56-.2.73.73,0,0,1,.29-.72A.52.52,0,0,1,38.11,18.72Z"/><path class="s" d="M46.56,22.09c-5-.82-5.49-7.29-5.49-7.35l0-.18c0,.07.66,6.56,5.47,7.35Z"/><path class="t" d="M43.3,16.37c1.34,1.11,2.76,1.42,3.25.73s-.18-1.73-1.52-2.84-2.66-1.73-3.18-1.1S42,15.26,43.3,16.37Z"/><path class="u" d="M41.79,13.23c-.17.07-.88,1.69,1.45,3.53s4.1.81,3.43-.44C47,19.16,41.36,16.12,41.79,13.23Z"/><path class="v" d="M43.13,12.76s-.92.49-.87,1.3c.08,1.2,2.88,3.84,4.26,2.42,1.56-1.61-3.39-3.72-3.39-3.72Z"/><path class="n" d="M42.91,13.34s.18.5.27.67a3.16,3.16,0,0,0,3.32,1.52S45.29,12.85,42.91,13.34Z"/><path class="w" d="M34.37,66.51s2.49-3.69,6.49-3.16C40.86,63.35,39.24,66.64,34.37,66.51Z"/><path class="w" d="M58.68,52.82s-5.92-.45-4.68,5.27a4.38,4.38,0,0,0,3.5-1.26A4.47,4.47,0,0,0,58.68,52.82Z"/><path class="x" d="M30.07,23.47c-.9.66-3.61,2.52-5.88,2.84a3.67,3.67,0,0,1-1,0,2.45,2.45,0,0,0-.06.29s0,.05,0,.07a15.8,15.8,0,0,0,1.22,8.09c.2.51.43,1,.69,1.58l.29.59a36.18,36.18,0,0,0,2.2,10c.2.52.42,1,.65,1.54,0,0,.1.65.27,1.69.49,3,.69,9.19,1.85,11.42,1.56,3,8.39,5.44,8.39,5.44l2.42-1.54s-.19-.67-.45-1.74c-.66-2.72-1.8-8-1.59-11.47l2.31-.82h0s6.4,3.53,8,4.52a17.74,17.74,0,0,0,7.78,1.91h.26a2.72,2.72,0,0,0,2.27-1.59l-.34-.93c-.27-.76-.69-1.89-1.13-3a23.39,23.39,0,0,0-1.61-3.51c-.66-1-7.42-7.13-10.91-10.29l-2-1.85h0a19,19,0,0,1-1.56-1.33l-1.13.43Z"/><path class="y" d="M33.78,47.21a14.42,14.42,0,0,1,.06-3c-.23-.51-.72-.28-.92-.79a22.42,22.42,0,0,1-1.81-8.15c-.1-.2-3.37-.45-3.46-.64-.26-.55,1.69-1.29,1.48-1.8-1.62-4.13-4-4-3.88-5,0,0-.85-.68-.85-.7,0-.19.88.42.88.42.31,0-.5-.07-.15-.11,2.26-.32,4-3.37,4.93-4l-.14-.16c-.35.26-1,.69-1.72,1.15a11.61,11.61,0,0,1-4.05,1.64,3.74,3.74,0,0,1-.94,0h-.05a.19.19,0,0,0-.16.15,1.19,1.19,0,0,0-.06.29v.07h0a12.85,12.85,0,0,0-.06,2.92,18.89,18.89,0,0,0,1.3,5.27c.2.54.44,1.07.69,1.6l.28.55a28.62,28.62,0,0,0,.37,3.09,35.61,35.61,0,0,0,1.66,6.47c.06.16.12.27.18.43.21.54.42,1,.64,1.52,0,.14.12.76.26,1.66s.28,2.18.42,3.51c.3,3,.64,6.41,1.46,8a7,7,0,0,0,2,2.18A20.74,20.74,0,0,0,35,65.58a32.75,32.75,0,0,0,3.64,1.61.16.16,0,0,0,.1,0l.08,0,2.41-1.54a.2.2,0,0,0,.09-.22s-.19-.68-.45-1.74c-.67-2.75-1.76-7.85-1.59-11.27l2.09-.74c.74.4,6.43,3.56,7.88,4.48A14.05,14.05,0,0,0,53,57.54a14.3,14.3,0,0,0,4.12.54l.13,0h.14a3.19,3.19,0,0,0,1.93-.95,2.16,2.16,0,0,0,.5-.77.15.15,0,0,0,0-.13s-.13-.38-.33-.94c-.28-.75-.69-1.87-1.14-3a23.37,23.37,0,0,0-1.63-3.56c-.66-1-7.14-6.87-10.94-10.32l-2-1.84,0,0s-3.67-3.3-4.67-4.22l2.08,3c1.07,1-.77,1.33-.77,1.33L41,38.68s.67,2.31,1.47.55a10,10,0,0,0,1.73,1.9c3.48,3.16,9.3,8.4,10,9.36.39.56,2.28,1.07,2.87,2.56.44,1.11,2,1.52,2.24,2.28l.33.93a2.72,2.72,0,0,1-2.27,1.59h-.14l-.12,0c-2,.15-4.51-3-6.08-4-.8-.51-3.71-1.43-5.54-2.46a20.46,20.46,0,0,0-4-1.59l-.76.1-3.18,1.4c-.21,3.46,1,10,1.7,12.72.26,1.07,1.82,1.4,1.82,1.4L38.69,67"/><path class="z" d="M38.69,67l2.42-1.54a8.66,8.66,0,0,0-.27-1.72c-.67-2.72-1.77-8-1.56-11.45l-.21,0-10.89-3.8s.1.65.27,1.69c.49,3,.69,9.19,1.85,11.42C31.86,64.55,38.69,67,38.69,67Z"/><path class="aa" d="M38.69,67l2.42-1.54a8.66,8.66,0,0,0-.27-1.72c-.67-2.72-1.77-8-1.56-11.45l-.21,0-10.89-3.8s.1.65.27,1.69c.49,3,.69,9.19,1.85,11.42C31.86,64.55,38.69,67,38.69,67Z"/><path class="ab" d="M28.18,48.45A18.5,18.5,0,0,0,38.64,52.4l.43-.15,2.31-.82v-.06a0,0,0,0,1,0,0,.09.09,0,0,1,0-.05,24.8,24.8,0,0,1,2.52-14.7,15.83,15.83,0,0,1-1.78-1.52l-.43-.42c-.57-.55-1.41-1.08-2.23-2-1.79-1.9-4.76-5-6.81-7.11h0L31.08,24l-.39-.39-.32-.34S26,26.63,23.2,26.33a2.45,2.45,0,0,0-.06.29s0,.05,0,.07a12.89,12.89,0,0,0,.69,7.9c.2.51.75,1.24,1,1.79.09.19.22.4.32.6a40.93,40.93,0,0,0,2.38,9.93C27.73,47.43,28,47.94,28.18,48.45Z"/><path class="ac" d="M28.18,48.45A18.5,18.5,0,0,0,38.64,52.4l.43-.15,2.31-.82v-.06a0,0,0,0,1,0,0,.09.09,0,0,1,0-.05,24.8,24.8,0,0,1,2.52-14.7,15.83,15.83,0,0,1-1.78-1.52l-.43-.42c-.57-.55-1.41-1.08-2.23-2-1.79-1.9-4.76-5-6.81-7.11h0L31.08,24l-.39-.39-.32-.34S26,26.63,23.2,26.33a2.45,2.45,0,0,0-.06.29s0,.05,0,.07a14,14,0,0,0,.8,8.1c.21.51.64,1,.9,1.59.09.19.22.4.32.6a40.93,40.93,0,0,0,2.38,9.93C27.73,47.43,28,47.94,28.18,48.45Z"/><path class="ad" d="M41.38,51.44s6.17,3.63,7.74,4.62A18.39,18.39,0,0,0,57,58c.05,0,.21-.15.26-.16a2.75,2.75,0,0,0,2.38-1.6l-.34-.93c-.27-.76-.64-2.11-1.08-3.22a17.58,17.58,0,0,0-1.66-3.29c-.66-1-7.42-7.13-10.91-10.29l-2-1.85c-4.37,5.09-2.55,13.44-2.26,14.61a.09.09,0,0,0,0,.05,0,0,0,0,0,0,0v.07Z"/><path class="ae" d="M41.38,51.44s6.17,3.63,7.74,4.62A18.39,18.39,0,0,0,57,58c.05,0,.21-.15.26-.16a2.75,2.75,0,0,0,2.38-1.6l-.34-.93c-.27-.76-.64-2.11-1.08-3.22a17.58,17.58,0,0,0-1.66-3.29c-.66-1-7.42-7.13-10.91-10.29l-2-1.85c-4.37,5.09-2.55,13.44-2.26,14.61a.09.09,0,0,0,0,.05,0,0,0,0,0,0,0v.07Z"/><path class="af" d="M29.57,24.2a19.9,19.9,0,0,1-3,2.89c-.93.51-3.41-.75-3.41-.75A44.4,44.4,0,0,0,29.57,24.2Z"/><path class="ag" d="M23.78,26.45s-1.54,5.7,1.33,10.47c0,0-5.44-4.89-2.6-10.11l.72-.48Z"/><path class="ah" d="M45.08,37.75s-3.24,3.71-2.64,14.51a.71.71,0,0,1-.65,0,.77.77,0,0,1-.45-.59s-2.68-10.51,2.27-15.24a.56.56,0,0,1,.84.67.4.4,0,0,1,.52.1A.54.54,0,0,1,45.08,37.75Z"/><path class="ai" d="M27.16,46.56s6.58,6,12.1,5.84c0,0,.11.05.11.25s-.11.25-.11.25-8.19.67-11.29-3.25c-.71-.89,0-1.13,0-1.13a2.24,2.24,0,0,1-.76-.78A1.23,1.23,0,0,1,27.16,46.56Z"/><path class="aj" d="M54.59,46.49A5,5,0,0,1,54,52.42a7.86,7.86,0,0,1-6.12,2.92,1.42,1.42,0,0,0,.69.79,1.6,1.6,0,0,0,.88.22s-.06.32.8.64c1.17.43,3.95-.69,5.88-3a6.22,6.22,0,0,0,1.3-4.83,1.28,1.28,0,0,0-.9-.83,2.43,2.43,0,0,0-.69-1.3A2.23,2.23,0,0,0,54.59,46.49Z"/><path class="ak" d="M39.47,56.31a9.94,9.94,0,0,1-3.95,4.39,10.68,10.68,0,0,1-5,1.61,1.06,1.06,0,0,0,1.21,1.25.7.7,0,0,0,.36.78c2.11,1,8.08-4.53,7.84-6.26a.46.46,0,0,0-.28-.4,1.13,1.13,0,0,0,.1-.66A1.11,1.11,0,0,0,39.47,56.31Z"/><path class="al" d="M39.26,52.4l.16-.06s-5.15-3.9-7.27-7.24a21.67,21.67,0,0,1-3-6.91c-.24-.89-.53-1.9-.92-3.08a54.22,54.22,0,0,1-2-7.77l-.18,0a57,57,0,0,0,2,7.8c.39,1.18.68,2.18.92,3.06a21.66,21.66,0,0,0,3,7C34.14,48.56,39.21,52.36,39.26,52.4Z"/><path class="am" d="M34.89,21.14s-3.7,6.69-7.12,10.16-6.28-3.64-6.28-3.64L22.56,27l5.21-2.27Z"/><path class="an" d="M41.87,66l-.56-.63-.43-1.91s-3.55,2.78-6.49,3.11a7.88,7.88,0,0,0,4.09.93,3.9,3.9,0,0,0-1.37,4Z"/><path class="ao" d="M41.87,66s.24,0,.25.13c0,.71-3.84,5.7-4.86,5.6-.11,0-.15-.28-.15-.28Z"/><path class="ap" d="M34.39,66.53a7.88,7.88,0,0,0,4.09.93A18.6,18.6,0,0,1,41.87,66l-.56-.63-.43-1.91S37.33,66.2,34.39,66.53Z"/><path class="aq" d="M29.4,33.07a2.28,2.28,0,1,0,.69-3.15A2.27,2.27,0,0,0,29.4,33.07Z"/><path class="ar" d="M30.09,32.59a1.5,1.5,0,1,0,.46-2.06A1.5,1.5,0,0,0,30.09,32.59Z"/><path class="as" d="M29.9,32.63a1.43,1.43,0,1,0,.44-2A1.44,1.44,0,0,0,29.9,32.63Z"/><path class="at" d="M34.66,56.11a33.77,33.77,0,0,0,4.48-1.32l-.07-.17c-.07,0-7.31,2.78-9.92,1.27l-.09.15C30.33,56.78,32.6,56.56,34.66,56.11Z"/><path class="au" d="M44.65,53.28l.15.08a13.13,13.13,0,0,1-.48-4c.14-3.54,3.65-8.64,3.68-8.69l-.14-.1c0,.05-3.58,5.2-3.72,8.78A11.69,11.69,0,0,0,44.65,53.28Z"/><g class="av"><path class="aw" d="M58.61,53.38h0A5.15,5.15,0,0,1,54,57.26c-3.09.21-9.14-3.83-10.22-7.7-1.34-4.78.8-9.2,2.05-11.2l-.7-.61a.69.69,0,0,0-.15-.59.5.5,0,0,0-.48-.07.63.63,0,0,0-.19-.62.55.55,0,0,0-.65,0s-2.2-1.8-4.51-4.06A10.65,10.65,0,0,0,44.24,28c-.25.34-1.38,1.57-5.15,1.28-2.91-.22-4-1.55-4.45-2.4l-.06-.16c-1.33-3.66.31-5.62.31-5.62a6.71,6.71,0,0,1-2.4,1.08c-.65-.32-1.21,1-1.21,1l-.36.2.15.53a32.36,32.36,0,0,0,2.36,5.83h0c7.7,6.5,10.93,28-4.15,18.23-.83-.54-1.77-1.26-2.13-1.49-.15.43-.28,1.16.81,2a.51.51,0,0,0-.23.78,4.27,4.27,0,0,0,.47.65c1.45,2.92,6.11,3.64,9.4,7.57,1.8,2.16,2.85,6.32,2.85,6.32l.2-.13a44.7,44.7,0,0,1-1.4-11.28l2.08-.74a.83.83,0,0,0,.48.58.76.76,0,0,0,.62,0l5.46,3.08a1.47,1.47,0,0,0,.69.79,1.43,1.43,0,0,0,.91.22s-.06.28.52.54a2.8,2.8,0,0,0,1.28.16,24,24,0,0,0,5.28,1.07c.05,0,.64-.29.68-.29l2.05-2.54C59,54.53,59.05,54.49,58.61,53.38Z"/><path class="ax" d="M44.37,27.93l.06-.08Z"/></g><path class="ay" d="M58.17,58.3s.22,1.41,2.44,2.15c3,1,4.09.07,4.3-.36Z"/><path class="az" d="M54.08,58.1l4.11.21a3.37,3.37,0,0,0,.56.7c1.15,1.08,5.18,2.21,6.1,1.15.38-.45-1.2-2.69-4.74-3.35l-1.43-4a7,7,0,0,1-1.19,3.39A5.09,5.09,0,0,1,54.08,58.1Z"/><path class="ba" d="M54.08,58.1l4.11.21a5.09,5.09,0,0,0,1.92-1.5l-1.44-4a6.9,6.9,0,0,1-1.18,3.38A5.09,5.09,0,0,1,54.08,58.1Z"/><circle class="bb" cx="49.02" cy="50.34" r="4.33"/><circle class="bc" cx="49" cy="50.19" r="2.9"/><path class="bd" d="M28,48.52a13.39,13.39,0,0,0,6.63,3.4c3.14.73,3.17.58,3.17.58S31.23,52.32,28,48.52Z"/><path class="be" d="M31.68,63.59a9.45,9.45,0,0,0,5.38-2.83,13.06,13.06,0,0,0,2.63-3S36.66,63.06,31.68,63.59Z"/><path class="bf" d="M44.26,37.23s-2.4,2.87-2.7,9c-.21,4.26.09,4.82.09,4.82S40.09,42.34,44.26,37.23Z"/><g class="bg"><path class="bh" d="M17.6,40.5a6,6,0,0,0,.93-2,8,8,0,0,0-.5-5.6,10.29,10.29,0,0,0-1.55-2.45c-.28-.3-.26-.25-.26-.25a7.08,7.08,0,0,1,2.14,3.12C19.19,35.37,19.36,38.48,17.6,40.5Z"/></g><path class="bi" d="M45.15,26.17A6.08,6.08,0,0,1,43,25.92a8,8,0,0,1-4.5-3.37A10.25,10.25,0,0,1,37.23,20c-.11-.4-.08-.36-.08-.36a7,7,0,0,0,1.53,3.46C40,24.83,42.51,26.61,45.15,26.17Z"/><g class="bj"><path class="bk" d="M51,57.53v0h0Z"/><path class="bl" d="M55.31,53.32c2.2-2.74,1.24-5,1.24-5s.81,2-1.49,4.91a7.67,7.67,0,0,1-5.76,3.08A8.12,8.12,0,0,0,55.31,53.32Z"/></g><path class="bm" d="M43.84,14.07a1.5,1.5,0,0,0,.85,1.15,1.73,1.73,0,0,0,1,.15c.56-.09,1-.44,1-.89-.06-.72-2.61-1.05-2.61-1.05A.67.67,0,0,0,43.84,14.07Z"/><path class="bn" d="M43.6,14a2,2,0,0,0,.16.29,1.33,1.33,0,0,0,.55.44l.21.09a1.42,1.42,0,0,0,.31.08,1,1,0,0,0,.42,0h0a1.17,1.17,0,0,0,1.68-.14,3,3,0,0,0,.72-1.38,2.26,2.26,0,0,0,0-.72c-.07-.58-1.27-1.28-2-1.42s-1.14-.35-1.33-.14-.14.65-.44,1l0,.05A2.15,2.15,0,0,0,43.6,14Z"/><path class="bn" d="M45.48,13.54c0-.84-.87-1.25-1.72-1.37s-.58-1.05-1.39-1.08-1,.54-1,.77.36.53,1.2.85.62,1.08,1.11,1.58a3.4,3.4,0,0,0,.38.38c.5.34,1.15.38,1.3-.14A3.15,3.15,0,0,0,45.48,13.54Z"/><path class="bn" d="M44.34,11.14l1.25.41a1.5,1.5,0,0,0,.15-.19,3.54,3.54,0,0,0,.26-.52,6.63,6.63,0,0,0,.12-2.57c-.15-.64-.73-1.34-1.32-1.21s-.29.9-.14,2A3.92,3.92,0,0,1,44.34,11.14Z"/><path class="bn" d="M45.44,11.34s1,.77,1.29.64a6.62,6.62,0,0,0,1.66-1.65A2.37,2.37,0,0,0,48.76,8a.71.71,0,0,0-.64-.44c-.2,0-.4.21-.52.64a5.73,5.73,0,0,1-1.42,2.24l-.46.47Z"/><path class="bn" d="M46.85,11.83l.35.77a3.47,3.47,0,0,0,.49,0,5.58,5.58,0,0,0,1.73-.21c.95-.31,1.18-.94,1-1.42a.14.14,0,0,1,0-.06c-.22-.49-.65-.35-1.47,0a4.21,4.21,0,0,1-1.46.39h-.15l0,0h0Z"/><path class="bn" d="M47.07,13.28l.27.16a4.46,4.46,0,0,0,1.41.55c.83.15,1.23-.25,1.26-.68a.57.57,0,0,0,0-.24c-.11-.22-.46-.27-1-.29a3.56,3.56,0,0,1-1.12-.24l-.19-.09-.14,0-.38.1Z"/><path class="bo" d="M49.42,12.42c.95-.31,1.18-.94,1-1.42a1.64,1.64,0,0,1-1.22,1.17c-1.08.31-1.38.26-1.68-.07a.89.89,0,0,1-.27-.5l0,0a7.33,7.33,0,0,0,1.31-1.53,2.54,2.54,0,0,0,.34-1.57c-.05-.39-.3-1-.8-1A2.16,2.16,0,0,1,48.63,9a2.81,2.81,0,0,1-.79,1.57c-.26.32-.66.85-1.12.81s-.66-.53-.54-1a.71.71,0,0,0-.1.14,8.54,8.54,0,0,0,.12-1.22c0-.7-.15-2.32-1.4-2.25.81.09.94,1.51,1,2.11s-.07,1.83-.8,2a2.33,2.33,0,0,1,.82.12,4,4,0,0,1,.83.32c.08,0,.28.22.37.22a1.69,1.69,0,0,1,.72.79h0s0,0,0,.07a2.18,2.18,0,0,1-.09.89,4.26,4.26,0,0,0,1.14.4c.83.15,1.23-.25,1.26-.68a.57.57,0,0,0,0-.24,1.21,1.21,0,0,1-1.27.65.92.92,0,0,1-.88-1.09A5.51,5.51,0,0,0,49.42,12.42Z"/><path class="bm" d="M43.91,12.2h0a1.64,1.64,0,0,0,.28-.65.94.94,0,0,1,.15-.39s0,0,0,0,0,0,0,0a.87.87,0,0,0-.17.4,1.73,1.73,0,0,1-.27.64,0,0,0,0,0,0,0Z"/><path class="bm" d="M46.16,15.24a1.28,1.28,0,0,0,.79-.43,2.8,2.8,0,0,0,.77-2.11c-.07-.61-1.29-1.3-2-1.44l-.26,0h0s0,0,0,0l.27.06c.72.13,1.94.82,2,1.4a2.78,2.78,0,0,1-.76,2.09,1.17,1.17,0,0,1-1.66.13h0a1.77,1.77,0,0,1-.73-.08,1.39,1.39,0,0,1-.81-.58h0s0,0,0,0a1.44,1.44,0,0,0,.83.6,1.88,1.88,0,0,0,.74.07A1.16,1.16,0,0,0,46.16,15.24Z"/><path class="bm" d="M43.78,14.41h0s0,0,0,0l-.07-.1,0,0a1.9,1.9,0,0,1-.33-.67,1.14,1.14,0,0,0-.74-.87c-1-.37-1.17-.68-1.19-.83a.69.69,0,0,1,.18-.5.93.93,0,0,1,.76-.25.71.71,0,0,1,.66.49.93.93,0,0,0,.72.59c.83.12,1.65.32,1.76,1.31a2.1,2.1,0,0,1,0,.56l0,0h0a2.17,2.17,0,0,0,0-.57c-.12-1-.95-1.23-1.79-1.35a.87.87,0,0,1-.69-.56.77.77,0,0,0-.7-.52,1,1,0,0,0-.78.27.72.72,0,0,0-.2.52c0,.28.47.59,1.21.87a1.08,1.08,0,0,1,.73.84,1.71,1.71,0,0,0,.33.68l0,.05.08.1Z"/><path class="bm" d="M45.77,11.31h0a3.45,3.45,0,0,0,.24-.47,6.28,6.28,0,0,0,.12-2.57C46,7.58,45.39,6.91,44.8,7s-.39.64-.26,1.36c0,.2.07.4.1.61a3.54,3.54,0,0,1-.22,1.85c0,.09-.07.18-.1.27a0,0,0,0,0,0,0h0l.09-.28A3.47,3.47,0,0,0,44.67,9c0-.22-.06-.42-.1-.62-.13-.73-.21-1.21.24-1.31S46,7.61,46.1,8.27A6.23,6.23,0,0,1,46,10.83a2.47,2.47,0,0,1-.23.46s0,0,0,0Z"/><path class="bm" d="M47,11.85h0a9.19,9.19,0,0,0,1.41-1.5,2.4,2.4,0,0,0,.38-2.4.73.73,0,0,0-.65-.45c-.17,0-.4.15-.54.65a5.91,5.91,0,0,1-1.51,2.33v0h0a5.76,5.76,0,0,0,1.51-2.34c.14-.48.35-.61.51-.62a.67.67,0,0,1,.61.42,2.36,2.36,0,0,1-.36,2.36A8.78,8.78,0,0,1,47,11.81s0,0,0,0Z"/><path class="bm" d="M48.64,12.6a4.43,4.43,0,0,0,.79-.16,1.54,1.54,0,0,0,1-.76.91.91,0,0,0,0-.74.49.49,0,0,0-.28-.3c-.25-.09-.6,0-1.21.32a4.2,4.2,0,0,1-1.44.39s0,0,0,0a0,0,0,0,0,0,0A4.61,4.61,0,0,0,48.94,11c.58-.28.94-.41,1.18-.33a.48.48,0,0,1,.26.28.88.88,0,0,1,0,.71,1.45,1.45,0,0,1-1,.74,5.55,5.55,0,0,1-1.73.21,0,0,0,0,0,0,0l0,0A6.65,6.65,0,0,0,48.64,12.6Z"/><path class="bm" d="M49.26,14a1,1,0,0,0,.49-.19.77.77,0,0,0,.28-.53.41.41,0,0,0-.09-.32c-.15-.16-.45-.21-1-.23a3.24,3.24,0,0,1-.84-.15,0,0,0,0,0,0,0s0,0,0,0a4.34,4.34,0,0,0,.85.15c.52,0,.83.06,1,.22a.37.37,0,0,1,.08.29.69.69,0,0,1-.26.5,1.18,1.18,0,0,1-1,.16,3.71,3.71,0,0,1-1.12-.4h0a0,0,0,0,0,0,0,4.34,4.34,0,0,0,1.14.4A1.51,1.51,0,0,0,49.26,14Z"/><path class="bp" d="M45.73,11.58c.62.42,1.44.61,1.69,1.14s-.72,2.48-1.2,2,.26-1.42-.06-1.86-1.75-.66-1.64-1.11S45.23,11.24,45.73,11.58Z"/><path class="bq" d="M45.26,14.18c.09-.66,0-1.29-.85-1.52s-1.37-.35-1.49-.21.52.58.7,1.05.66,1.09,1.05,1.12A.52.52,0,0,0,45.26,14.18Z"/><path class="br" d="M42.25,12.2c-.56-.19-.68-.56-.28-.84s.68.39.66.56A.33.33,0,0,1,42.25,12.2Z"/><path class="bs" d="M47.76,11.46c1-.21,1.91-.63,2.16-.62s.13.58-.52.85a2.8,2.8,0,0,1-1.52.23C47.54,11.85,47.54,11.51,47.76,11.46Z"/><path class="bt" d="M46.36,10.47A6.56,6.56,0,0,0,47.84,8c.11-.6.82.15.39,1.16S47.05,11,46.62,10.94A.32.32,0,0,1,46.36,10.47Z"/><path class="bu" d="M44.69,7.35c.22,0,1.13,2.41.17,3.63,0,0-.37.33-.22-.16a4.14,4.14,0,0,0,.14-2.1c-.19-.8-.27-1-.22-1.2S44.69,7.35,44.69,7.35Z"/><path class="bv" d="M48,12.78c0,.16.43.61.91.62s1-.22.81-.39-.51.06-1,0S48.07,12.58,48,12.78Z"/><path class="n" d="M46.48,15.52a2.76,2.76,0,0,1-2.59-.8,3.6,3.6,0,0,1-.9-1.3c0-.1-.07-.06-.07-.06a3.09,3.09,0,0,0,.88,1.48A2.51,2.51,0,0,0,46.48,15.52Z"/><path class="n" d="M8,36.07a3.43,3.43,0,0,0,.53-2.79A4,4,0,0,0,8,32c-.06-.09,0-.09,0-.09a3.81,3.81,0,0,1,.6,1.42A3.32,3.32,0,0,1,8,36.07Z"/><path class="bw" d="M34.52,27.56l4.66,4.86a13.46,13.46,0,0,0,2.89-1.9c.67-.62-2.15-.59-4.43-1.29A10.77,10.77,0,0,1,34.52,27.56Z"/><path class="bx" d="M39.18,32.43s1,1.07,2,2c.73.69,2.41,1.9,2.41,1.9"/><path class="by" d="M39.18,32.42l1.09,1c.35.34,3.29,3,3.29,3h0c-.4-.29-.8-.58-1.19-.88s-.78-.61-1.14-.94-.71-.69-1-1l-1-1.08Z"/><path class="bz" d="M39.07,32.43l1.84-1s.74.79.37,1.54S40,33.3,40,33.3Z"/><path class="ag" d="M39.87,32c-1.66-.14-3.53-2.22-3.53-2.22h0c-4-4.34-3.85-7.58-3.85-7.58l-2.92,2c2.6,8,10.8,9.18,10.8,9.18-.34-.26-.67-.51-1-.77C40,32.45,41.1,32.13,39.87,32Z"/><path class="ca" d="M13.22,23.73s.16.28.19.31a15.47,15.47,0,0,1,1.79,1.08l.31.11a12.86,12.86,0,0,0,6,1.11c3.74-.22,8.8-1.67,11.81-5s2.37-10.66,1-12.89c-.37-.6-.81-.17-1.48-1-1.81-2.29-3.57-5.19-7.79-5.37C21.9,2,17.84,2.39,14.89,4a15,15,0,0,0-2.53,1.64c-.45.36-.83.36-1.11.72l0,.32A3.53,3.53,0,0,0,11,7C8,12.85,11.2,21.05,13.22,23.73Z"/><path class="cb" d="M13.52,23.37a.76.76,0,0,0,.08.11c.93.69,4,2.39,8.47.46a8.77,8.77,0,0,0,5.45-7.67l1.08-.39q-.21-1.12-.3-2.1c-.37-3.61.32-5.5.2-6a8.16,8.16,0,0,0-6.35-4.5A12.68,12.68,0,0,0,15,4.35a13.37,13.37,0,0,0-2.24,1.47,6.57,6.57,0,0,0-1,1l-.1.15a1.66,1.66,0,0,0-.19.3,12.66,12.66,0,0,0-1,7.58A20.09,20.09,0,0,0,13.52,23.37Z"/><path class="cc" d="M19.22,23l-.08-.1A20.28,20.28,0,0,1,16,14.45a12.65,12.65,0,0,1,1-7.58c.06-.1.12-.2.19-.3l.1-.15a6.57,6.57,0,0,1,1-1,14.5,14.5,0,0,1,2.24-1.48,14,14,0,0,1,1.53-.59l-.18,0a12.69,12.69,0,0,0-7.2,1.07,14,14,0,0,0-2.24,1.48,6.16,6.16,0,0,0-1,1l-.1.15a1.66,1.66,0,0,0-.19.3,12.66,12.66,0,0,0-1,7.58,20.29,20.29,0,0,0,3.12,8.49l.09.1c.9.68,3.85,2.31,8.1.62A7.11,7.11,0,0,1,19.22,23Z"/><path class="cd" d="M33.71,6.15a12.13,12.13,0,0,0-9-5.13A21.59,21.59,0,0,0,14.54,3.71a15.46,15.46,0,0,0-2.39,1.57,6.93,6.93,0,0,0-1.08,1.1L11,6.54c-.08.11-.15.22-.21.32C7.68,12.71,11,21.31,13,24a10.75,10.75,0,0,0,2.13,1.54l.15.07a13.87,13.87,0,0,0,6.27,1.16c3.73-.22,9.06-1.69,12.07-5S37.3,10.83,33.71,6.15ZM22,23.9c-4.46,1.94-7.55.24-8.48-.46a1,1,0,0,1-.08-.11,20.22,20.22,0,0,1-3.13-8.49,12.7,12.7,0,0,1,1-7.57c.06-.1.12-.21.19-.31l.11-.14a6.49,6.49,0,0,1,1-1,14.86,14.86,0,0,1,2.25-1.47,12.64,12.64,0,0,1,7.19-1.07,8.16,8.16,0,0,1,6.36,4.49,28.82,28.82,0,0,0-.21,6c.06.64.16,1.34.3,2.09l-1.08.39A8.76,8.76,0,0,1,22,23.9Z"/><path class="ce" d="M15.26,25.6a13.71,13.71,0,0,0,6.27,1.16c3.73-.22,9.14-1.62,12.06-5,5.43-6.23,1.34-17.54-1.86-16S30,16.36,30,16.36l-1.35.15a10,10,0,0,1-5,8.39C19.16,27.41,16,25.89,15.26,25.6Z"/><path class="cf" d="M34.86,19.83c-1.11,1.47-3.31,1.37-4.66-3.3C28,8.76,32.09,5.65,32.09,5.65c-5.32,1.24-3,10.36-3,10.36.13.34.26.65.39.95v0C32.22,23.22,34.66,20.11,34.86,19.83Z"/><path class="cg" d="M24.63,2.54a22.57,22.57,0,0,0-6.44-.32S26.62-.2,24.63,2.54Z"/><polygon class="cg" points="29.62 10.52 28.62 10.41 28.55 11.54 29.5 11.56 29.62 10.52"/><ellipse class="ch" cx="33.42" cy="13.29" rx="2.61" ry="4.82" transform="translate(-0.58 1.55) rotate(-2.64)"/><ellipse class="ci" cx="33.66" cy="13.28" rx="1.88" ry="3.24" transform="translate(-0.58 1.57) rotate(-2.64)"/><ellipse class="cj" cx="33.93" cy="13.24" rx="1.7" ry="3.22" transform="translate(-0.57 1.57) rotate(-2.63)"/><ellipse class="ck" cx="33.93" cy="13.24" rx="1.71" ry="3.24" transform="translate(-0.57 1.57) rotate(-2.63)"/><path class="bm" d="M8.93,34.66a1.55,1.55,0,0,1-.85,1.16,1.72,1.72,0,0,1-1,.14c-.56-.08-1-.44-1-.89.06-.71,2.61-1,2.61-1A.7.7,0,0,1,8.93,34.66Z"/><path class="bn" d="M9.17,34.63a1.57,1.57,0,0,1-.16.29,1.32,1.32,0,0,1-.56.45l-.2.08a1.57,1.57,0,0,1-.32.09,1,1,0,0,1-.41,0h0a1.17,1.17,0,0,1-1.68-.14A2.93,2.93,0,0,1,5.11,34a2.21,2.21,0,0,1,0-.71c.07-.59,1.26-1.29,2-1.43s1.14-.35,1.33-.14.14.65.44,1.06l0,0A2.16,2.16,0,0,1,9.17,34.63Z"/><path class="bn" d="M7.29,34.13c0-.83.87-1.24,1.72-1.37s.57-1,1.38-1.08,1,.55,1,.77-.36.54-1.2.86-.62,1.08-1.11,1.57a3.41,3.41,0,0,1-.38.38c-.5.35-1.16.39-1.3-.13A3.21,3.21,0,0,1,7.29,34.13Z"/><path class="bn" d="M8.43,31.73l-1.25.41A1.84,1.84,0,0,1,7,32a2.9,2.9,0,0,1-.26-.53,6.62,6.62,0,0,1-.12-2.57c.15-.64.72-1.33,1.31-1.2s.3.9.15,1.95A3.88,3.88,0,0,0,8.43,31.73Z"/><path class="bn" d="M7.32,31.93s-1,.77-1.29.65a6.91,6.91,0,0,1-1.65-1.66A2.37,2.37,0,0,1,4,28.54a.71.71,0,0,1,.64-.44c.2,0,.4.22.51.64A5.84,5.84,0,0,0,6.59,31c.15.15.3.31.46.46Z"/><path class="bn" d="M5.92,32.42l-.35.78-.49,0A5.71,5.71,0,0,1,3.34,33c-.95-.31-1.17-.93-1-1.42,0,0,0,0,0-.05.22-.49.65-.35,1.47,0A4.22,4.22,0,0,0,5.29,32h.16l0,0h0Z"/><path class="bn" d="M5.7,33.87a2.81,2.81,0,0,1-.27.16A4.7,4.7,0,0,1,4,34.59c-.83.14-1.23-.25-1.26-.69a.41.41,0,0,1,0-.23c.11-.23.46-.27,1-.3a3.49,3.49,0,0,0,1.11-.24l.2-.09.14,0,.38.1Z"/><path class="cl" d="M3.34,33c-.95-.31-1.17-.93-1-1.42a1.63,1.63,0,0,0,1.22,1.17c1.08.31,1.38.26,1.68-.06a1,1,0,0,0,.27-.5l0,0a7.08,7.08,0,0,1-1.31-1.53,2.51,2.51,0,0,1-.34-1.56c0-.39.3-1,.8-1a2.19,2.19,0,0,0-.51,1.53,2.82,2.82,0,0,0,.79,1.56c.26.32.65.86,1.12.81s.66-.52.54-1a.64.64,0,0,1,.1.13,8.27,8.27,0,0,1-.12-1.22c-.05-.69.15-2.32,1.39-2.24-.8.09-.93,1.51-.94,2.1s.07,1.83.8,2A2.57,2.57,0,0,0,7,31.9a3.17,3.17,0,0,0-.82.32c-.08,0-.28.22-.37.21a1.66,1.66,0,0,0-.72.8h0a.15.15,0,0,0,0,.07,2.31,2.31,0,0,0,.08.88A4.42,4.42,0,0,1,4,34.59c-.83.14-1.23-.25-1.26-.69a.41.41,0,0,1,0-.23,1.21,1.21,0,0,0,1.27.64A.92.92,0,0,0,5,33.23,5.31,5.31,0,0,1,3.34,33Z"/><path class="bm" d="M8.86,32.79h0a1.81,1.81,0,0,1-.27-.66,1,1,0,0,0-.15-.38,0,0,0,0,1,0,0h0a1.05,1.05,0,0,1,.17.4,1.92,1.92,0,0,0,.26.65s0,0,0,0Z"/><path class="bm" d="M6.61,35.83a1.26,1.26,0,0,1-.79-.43,2.8,2.8,0,0,1-.77-2.11c.07-.6,1.29-1.3,2.05-1.43l.26-.06a0,0,0,0,1,0,0s0,0,0,0l-.27.05c-.72.13-1.94.83-2,1.41a2.83,2.83,0,0,0,.77,2.08,1.14,1.14,0,0,0,1.65.13h0a1.77,1.77,0,0,0,.73-.08,1.42,1.42,0,0,0,.81-.57h0a0,0,0,0,1,0,0,1.54,1.54,0,0,1-.83.59,2,2,0,0,1-.74.08A1.15,1.15,0,0,1,6.61,35.83Z"/><path class="bm" d="M9,35H9a0,0,0,0,1,0,0,.39.39,0,0,0,.08-.1l0,0a1.86,1.86,0,0,0,.33-.66,1.11,1.11,0,0,1,.74-.87c1-.37,1.17-.69,1.19-.84a.73.73,0,0,0-.18-.49,1,1,0,0,0-.76-.26.75.75,0,0,0-.67.5.9.9,0,0,1-.71.58c-.83.12-1.65.32-1.76,1.31a2.16,2.16,0,0,0,0,.57s0,0,0,0a0,0,0,0,1,0,0,2.17,2.17,0,0,1,0-.57c.12-1,1-1.22,1.79-1.35a.85.85,0,0,0,.69-.56.77.77,0,0,1,.69-.52,1,1,0,0,1,.79.27.74.74,0,0,1,.2.53c0,.27-.47.58-1.22.86a1.1,1.1,0,0,0-.72.85,1.85,1.85,0,0,1-.33.68l0,0A.44.44,0,0,1,9,35Z"/><path class="bm" d="M7,31.91s0,0,0,0a3.33,3.33,0,0,1-.24-.46,6.34,6.34,0,0,1-.12-2.58c.16-.68.75-1.35,1.34-1.22s.39.63.26,1.36c0,.19-.07.39-.1.61a3.39,3.39,0,0,0,.22,1.84l.1.28,0,0s0,0,0,0l-.09-.27A3.41,3.41,0,0,1,8.1,29.6c0-.21.06-.42.1-.61.12-.73.21-1.22-.24-1.32s-1.14.53-1.29,1.2a6.18,6.18,0,0,0,.12,2.55,2.2,2.2,0,0,0,.23.46,0,0,0,0,1,0,0Z"/><path class="bm" d="M5.79,32.44h0a9.78,9.78,0,0,1-1.42-1.51A2.39,2.39,0,0,1,4,28.53a.74.74,0,0,1,.65-.45c.17,0,.4.15.54.65a5.85,5.85,0,0,0,1.51,2.33v0h0a5.79,5.79,0,0,1-1.51-2.35c-.14-.48-.36-.6-.51-.62a.7.7,0,0,0-.62.43,2.39,2.39,0,0,0,.37,2.36,9.65,9.65,0,0,0,1.41,1.5s0,0,0,0Z"/><path class="bm" d="M4.13,33.2A4.28,4.28,0,0,1,3.34,33a1.54,1.54,0,0,1-1-.76,1,1,0,0,1,0-.74.57.57,0,0,1,.29-.3c.25-.09.6,0,1.2.33A4.57,4.57,0,0,0,5.28,32a0,0,0,0,1,0,0s0,0,0,0a4.35,4.35,0,0,1-1.45-.39c-.58-.28-.94-.41-1.18-.32a.45.45,0,0,0-.26.28.88.88,0,0,0,0,.71,1.44,1.44,0,0,0,1,.73,5.26,5.26,0,0,0,1.73.22s0,0,0,0,0,0,0,0A6.45,6.45,0,0,1,4.13,33.2Z"/><path class="bm" d="M3.51,34.62A.9.9,0,0,1,3,34.43a.7.7,0,0,1-.28-.52.43.43,0,0,1,.09-.33c.15-.16.45-.2,1-.23a3.69,3.69,0,0,0,.84-.14h0s0,0,0,0a3.24,3.24,0,0,1-.85.15c-.52,0-.83.07-1,.22a.39.39,0,0,0-.08.29.69.69,0,0,0,.26.51,1.22,1.22,0,0,0,1,.16,4.35,4.35,0,0,0,1.12-.4s0,0,0,0,0,0,0,0A4.11,4.11,0,0,1,4,34.6,1.51,1.51,0,0,1,3.51,34.62Z"/><path class="cm" d="M7,32.17c-.62.42-1.44.61-1.69,1.14s.72,2.48,1.2,2-.26-1.42.06-1.86,1.75-.66,1.63-1.11S7.54,31.84,7,32.17Z"/><path class="cn" d="M7.51,34.77c-.09-.65,0-1.29.85-1.51s1.37-.35,1.49-.22-.53.59-.7,1.05-.67,1.09-1.05,1.12A.51.51,0,0,1,7.51,34.77Z"/><path class="co" d="M10.52,32.79c.56-.18.67-.56.27-.83s-.67.38-.65.55A.31.31,0,0,0,10.52,32.79Z"/><path class="cp" d="M5,32.05c-1-.21-1.91-.63-2.16-.62s-.13.58.52.85a2.82,2.82,0,0,0,1.52.24C5.23,32.45,5.23,32.1,5,32.05Z"/><path class="cq" d="M6.41,31.06a6.72,6.72,0,0,1-1.49-2.44c-.1-.59-.81.15-.38,1.16s1.18,1.85,1.61,1.76A.33.33,0,0,0,6.41,31.06Z"/><path class="cr" d="M8.07,28c-.22,0-1.12,2.41-.16,3.62,0,0,.37.34.22-.16A3.92,3.92,0,0,1,8,29.31a3.49,3.49,0,0,0,.22-1.19C8.17,27.91,8.07,28,8.07,28Z"/><path class="cs" d="M4.76,33.37c0,.16-.43.62-.91.62s-1-.21-.81-.38.5,0,1,0S4.7,33.17,4.76,33.37Z"/></g></svg>