<svg xmlns="http://www.w3.org/2000/svg" xmlns:xlink="http://www.w3.org/1999/xlink" viewBox="0 0 150 47"><defs><style>.a{opacity:0.5;fill:url(#a);}</style><linearGradient id="a" x1="75.15" y1="-1.89" x2="74.13" y2="73.68" gradientUnits="userSpaceOnUse"><stop offset="0" stop-color="#8853c2"/><stop offset="0.55" stop-color="#4b288c"/><stop offset="1" stop-color="#4568af"/></linearGradient></defs><path class="a" d="M142,28.18a13,13,0,0,0,.16-1.89A12.59,12.59,0,0,0,131,13.79,16.23,16.23,0,0,0,99.16,13a24,24,0,0,0-31.58,6.89,15.86,15.86,0,0,0-21,2.65,15.89,15.89,0,0,0-22.63,7.9A10,10,0,0,0,9.83,35.23,6.95,6.95,0,1,0,12.67,47a9.84,9.84,0,0,0,2.81,1.63,8.54,8.54,0,0,0-.53,3A8.64,8.64,0,0,0,32,53.41,11.29,11.29,0,0,0,46.11,51a11.25,11.25,0,0,0,6.56,2.1A10.84,10.84,0,0,0,54.29,53a11.31,11.31,0,0,0,18.91.36,23.9,23.9,0,0,0,14,4.48l.89,0a8.77,8.77,0,0,0,6.49,2.86,8.93,8.93,0,0,0,1.8-.18A22.19,22.19,0,0,0,134.86,48,10.57,10.57,0,0,0,142,28.18Z"/></svg>