<svg xmlns="http://www.w3.org/2000/svg" viewBox="0 0 491 35"><defs><style>.a{isolation:isolate;}.b{fill:#f2edfa;}.c{fill:#d7d3e0;}.d{fill:#e4dfed;}.e{fill:#fff;mix-blend-mode:overlay;opacity:0.5;}</style></defs><g class="a"><path class="b" d="M438.19,19.6h0l-6.31,2.62h.24l.15,2h0l-2.34.73.35-2-.89-.09.53-3.44L426,15.17l-7.76.71.4-2,1.1-5.5.62-3.07L409.76,1.78,361.11,5.2,320.48,8.05l-.36,0-.67,0L311,2.48l-14.82,1L269.36,5.3,264,8,0,35H491Z"/><polygon class="c" points="310.34 17.12 292.56 21.45 292 21.58 276.71 26.05 276.42 26.37 272.55 30.54 240.22 30.54 238.85 30.28 256.96 28.16 257.39 28.03 270.13 23.93 270.23 23.93 276.48 23.46 291.29 19.47 292.53 19.32 310.34 17.12"/><polygon class="d" points="276.48 23.46 276.46 24.16 276.42 26.37 272.55 30.54 271.04 30.54 270.23 23.93 276.48 23.46"/><polygon class="d" points="257.39 28.03 257.25 30.54 240.22 30.54 238.85 30.28 256.96 28.16 257.39 28.03"/><polygon class="d" points="310.34 17.12 292.56 21.45 292.53 19.32 310.34 17.12"/><polygon class="d" points="264.78 8.12 271.24 11.88 296.17 12.94 269.36 12.94 262.66 13.41 264.78 8.12"/><polygon class="d" points="430.22 22.93 429.87 24.93 415.31 29.45 411.82 30.54 401.35 30.54 415.94 26.69 430.22 22.93"/><polygon class="d" points="429.86 19.4 429.33 22.84 421.81 22.4 429.86 19.4"/><polygon class="d" points="437.62 22.52 432.25 24.19 432.1 22.23 437.62 22.52"/><polygon class="d" points="415.94 26.69 415.31 29.45 411.82 30.54 401.35 30.54 415.94 26.69"/><path class="e" d="M320.12,8.08l.36,0Z"/><polygon class="d" points="420.34 5.3 400.57 11.37 379.88 13.01 347.43 21.24 334.49 21.24 314.03 26.64 334.96 22.41 348.37 23.12 380.82 14.66 401.47 13.46 418.31 15.92 420.34 5.3"/><polygon class="b" points="178 35 457.1 31 486 35 486 35 178 35 178 35"/></g></svg>