<svg xmlns="http://www.w3.org/2000/svg" xmlns:xlink="http://www.w3.org/1999/xlink" viewBox="0 0 195 44"><defs><style>.a{mask:url(#a);filter:url(#aa);}.ai,.b,.d,.f,.h,.j,.l,.t{mix-blend-mode:multiply;}.b{fill:url(#c);}.c{mask:url(#d);filter:url(#ba);}.d{fill:url(#f);}.e{mask:url(#g);filter:url(#af);}.f{fill:url(#i);}.g{mask:url(#j);filter:url(#ak);}.h{fill:url(#l);}.i{mask:url(#m);filter:url(#aq);}.j{fill:url(#o);}.k{mask:url(#p);filter:url(#av);}.l{fill:url(#r);}.m{isolation:isolate;}.n{fill:url(#s);}.o{fill:url(#t);}.p{fill:url(#u);}.q{fill:url(#v);}.r{fill:url(#w);}.s{fill:#fff7cc;opacity:0.3;}.ad,.ah,.an,.ar,.av,.s,.z{mix-blend-mode:overlay;}.t{opacity:0.4;}.u{fill:#6644c6;}.v{fill:#578aa4;}.w{fill:url(#x);}.x{fill:url(#y);}.y{mask:url(#z);}.z{fill:url(#ab);}.aa{fill:url(#ac);}.ab{fill:url(#ad);}.ac{mask:url(#ae);}.ad{fill:url(#ag);}.ae{fill:url(#ah);}.af{fill:url(#ai);}.ag{mask:url(#aj);}.ah{fill:url(#al);}.ai{opacity:0.18;}.aj{fill:url(#am);}.ak{fill:url(#an);}.al{fill:url(#ao);}.am{mask:url(#ap);}.an{fill:url(#ar);}.ao{fill:url(#as);}.ap{fill:url(#at);}.aq{mask:url(#au);}.ar{fill:url(#aw);}.as{fill:url(#ax);}.at{fill:url(#ay);}.au{mask:url(#az);}.av{fill:url(#bb);}.aw{filter:url(#q);}.ax{filter:url(#n);}.ay{filter:url(#k);}.az{filter:url(#h);}.ba{filter:url(#e);}.bb{filter:url(#b);}</style><filter id="b" x="49.24" y="-12020" width="5.78" height="32766" filterUnits="userSpaceOnUse" color-interpolation-filters="sRGB"><feFlood flood-color="#fff" result="bg"/><feBlend in="SourceGraphic" in2="bg"/></filter><mask id="a" x="49.24" y="-12020" width="5.78" height="32766" maskUnits="userSpaceOnUse"><g class="bb"/></mask><linearGradient id="c" x1="-930.74" y1="-13.5" x2="-932.54" y2="-10.3" gradientTransform="matrix(1, 0, -0.26, 1, 980.54, 37.33)" gradientUnits="userSpaceOnUse"><stop offset="0" stop-color="#fff"/><stop offset="1"/></linearGradient><filter id="e" x="36.2" y="-12020" width="4.3" height="32766" filterUnits="userSpaceOnUse" color-interpolation-filters="sRGB"><feFlood flood-color="#fff" result="bg"/><feBlend in="SourceGraphic" in2="bg"/></filter><mask id="d" x="36.2" y="-12020" width="4.3" height="32766" maskUnits="userSpaceOnUse"><g class="ba"/></mask><linearGradient id="f" x1="-6657.72" y1="-3.96" x2="-6659.06" y2="-1.58" gradientTransform="matrix(1, 0, -0.26, -1, 6695.92, 3.64)" xlink:href="#c"/><filter id="h" x="86.48" y="-12020" width="3.86" height="32766" filterUnits="userSpaceOnUse" color-interpolation-filters="sRGB"><feFlood flood-color="#fff" result="bg"/><feBlend in="SourceGraphic" in2="bg"/></filter><mask id="g" x="86.48" y="-12020" width="3.86" height="32766" maskUnits="userSpaceOnUse"><g class="az"/></mask><linearGradient id="i" x1="-225.73" y1="-13.07" x2="-227.14" y2="-10.57" gradientTransform="matrix(1, 0, -0.08, 1, 313.59, 37.33)" xlink:href="#c"/><filter id="k" x="152.5" y="-12020" width="4.3" height="32766" filterUnits="userSpaceOnUse" color-interpolation-filters="sRGB"><feFlood flood-color="#fff" result="bg"/><feBlend in="SourceGraphic" in2="bg"/></filter><mask id="j" x="152.5" y="-12020" width="4.3" height="32766" maskUnits="userSpaceOnUse"><g class="ay"/></mask><linearGradient id="l" x1="-6659.53" y1="-10.96" x2="-6660.87" y2="-8.58" gradientTransform="matrix(-1, 0, 0.26, 1, -6502.92, 37.33)" xlink:href="#c"/><filter id="n" x="137.98" y="-12020" width="5.78" height="32766" filterUnits="userSpaceOnUse" color-interpolation-filters="sRGB"><feFlood flood-color="#fff" result="bg"/><feBlend in="SourceGraphic" in2="bg"/></filter><mask id="m" x="137.98" y="-12020" width="5.78" height="32766" maskUnits="userSpaceOnUse"><g class="ax"/></mask><linearGradient id="o" x1="-928.93" y1="-6.5" x2="-930.73" y2="-3.3" gradientTransform="matrix(-1, 0, 0.26, -1, -787.54, 3.64)" xlink:href="#c"/><filter id="q" x="102.66" y="-12020" width="3.86" height="32766" filterUnits="userSpaceOnUse" color-interpolation-filters="sRGB"><feFlood flood-color="#fff" result="bg"/><feBlend in="SourceGraphic" in2="bg"/></filter><mask id="p" x="102.66" y="-12020" width="3.86" height="32766" maskUnits="userSpaceOnUse"><g class="aw"/></mask><linearGradient id="r" x1="-225.15" y1="-6.07" x2="-226.56" y2="-3.57" gradientTransform="matrix(-1, 0, 0.08, -1, -120.59, 3.64)" xlink:href="#c"/><linearGradient id="s" x1="96.95" y1="20.16" x2="95.76" y2="51.65" gradientUnits="userSpaceOnUse"><stop offset="0" stop-color="#7d54b8"/><stop offset="1" stop-color="#f2edfa"/></linearGradient><radialGradient id="t" cx="96.5" cy="16.5" r="44.21" gradientUnits="userSpaceOnUse"><stop offset="0" stop-color="#02fffa"/><stop offset="1" stop-color="#7d54b8"/></radialGradient><linearGradient id="u" x1="94.48" y1="-10.18" x2="94.5" y2="-1.79" gradientTransform="translate(191 -0.95) rotate(180)" gradientUnits="userSpaceOnUse"><stop offset="0" stop-color="#7c4bb8"/><stop offset="0.12" stop-color="#8152bb"/><stop offset="0.29" stop-color="#8f66c3"/><stop offset="0.5" stop-color="#a786d0"/><stop offset="0.74" stop-color="#c7b2e2"/><stop offset="0.99" stop-color="#f1ebf9"/><stop offset="1" stop-color="#f2edfa"/></linearGradient><linearGradient id="v" x1="97.5" y1="4.49" x2="97.5" y2="39.21" xlink:href="#s"/><radialGradient id="w" cx="102.7" cy="-15.94" r="112.44" gradientUnits="userSpaceOnUse"><stop offset="0" stop-color="#7d54b8"/><stop offset="1" stop-color="#02fffa"/></radialGradient><linearGradient id="x" x1="-934.03" y1="-24.08" x2="-934.03" y2="-9.89" gradientTransform="matrix(1, 0, -0.26, 1, 980.54, 37.33)" gradientUnits="userSpaceOnUse"><stop offset="0" stop-color="#00b8c4"/><stop offset="0.03" stop-color="#15c2c4"/><stop offset="0.08" stop-color="#3cd5c5"/><stop offset="0.14" stop-color="#5be4c6"/><stop offset="0.2" stop-color="#71eec7"/><stop offset="0.25" stop-color="#7ff5c7"/><stop offset="0.3" stop-color="#83f7c7"/><stop offset="0.39" stop-color="#7af3c7"/><stop offset="0.55" stop-color="#63e8c6"/><stop offset="0.75" stop-color="#3cd5c5"/><stop offset="0.97" stop-color="#08bcc4"/><stop offset="1" stop-color="#00b8c4"/></linearGradient><linearGradient id="y" x1="45.41" y1="-12.28" x2="59.75" y2="-12.28" gradientTransform="translate(-2.89 37.33)" gradientUnits="userSpaceOnUse"><stop offset="0" stop-color="#8853c2"/><stop offset="0.57" stop-color="#4b288c"/><stop offset="0.82" stop-color="#4b288c"/><stop offset="1" stop-color="#4568af"/></linearGradient><filter id="aa" x="49.24" y="24.64" width="5.78" height="1.27" filterUnits="userSpaceOnUse" color-interpolation-filters="sRGB"><feFlood flood-color="#fff" result="bg"/><feBlend in="SourceGraphic" in2="bg"/></filter><mask id="z" x="49.24" y="24.64" width="5.78" height="1.27" maskUnits="userSpaceOnUse"><g class="a"><polygon class="b" points="50.24 24.64 49.24 25.9 53.3 25.9 55.02 24.64 50.24 24.64"/></g></mask><linearGradient id="ab" x1="-930.74" y1="-13.5" x2="-932.54" y2="-10.3" gradientTransform="matrix(1, 0, -0.26, 1, 980.54, 37.33)" gradientUnits="userSpaceOnUse"><stop offset="0" stop-color="#fff7cc"/><stop offset="1" stop-color="#fff7cc"/></linearGradient><linearGradient id="ac" x1="-228.08" y1="-23.88" x2="-228.08" y2="-9.67" gradientTransform="matrix(1, 0, -0.08, 1, 313.59, 37.33)" xlink:href="#x"/><linearGradient id="ad" x1="84.46" y1="-12.06" x2="94.35" y2="-12.06" xlink:href="#y"/><filter id="af" x="86.48" y="24.85" width="3.86" height="1.27" filterUnits="userSpaceOnUse" color-interpolation-filters="sRGB"><feFlood flood-color="#fff" result="bg"/><feBlend in="SourceGraphic" in2="bg"/></filter><mask id="ae" x="86.48" y="24.85" width="3.86" height="1.27" maskUnits="userSpaceOnUse"><g class="e"><polygon class="f" points="86.78 24.85 86.48 26.12 89.51 26.12 90.34 24.85 86.78 24.85"/></g></mask><linearGradient id="ag" x1="-225.73" y1="-13.07" x2="-227.14" y2="-10.57" gradientTransform="matrix(1, 0, -0.08, 1, 313.59, 37.33)" xlink:href="#ab"/><linearGradient id="ah" x1="-6661.98" y1="-18.83" x2="-6661.98" y2="-8.28" gradientTransform="matrix(-1, 0, 0.26, 1, -6502.92, 37.33)" xlink:href="#x"/><linearGradient id="ai" x1="154.03" y1="-10.05" x2="164.69" y2="-10.05" xlink:href="#y"/><filter id="ak" x="152.5" y="26.97" width="4.3" height="0.94" filterUnits="userSpaceOnUse" color-interpolation-filters="sRGB"><feFlood flood-color="#fff" result="bg"/><feBlend in="SourceGraphic" in2="bg"/></filter><mask id="aj" x="152.5" y="26.97" width="4.3" height="0.94" maskUnits="userSpaceOnUse"><g class="g"><polygon class="h" points="156.06 26.97 156.8 27.91 153.78 27.91 152.5 26.97 156.06 26.97"/></g></mask><linearGradient id="al" x1="-6659.53" y1="-10.96" x2="-6660.87" y2="-8.58" gradientTransform="matrix(-1, 0, 0.26, 1, -6502.92, 37.33)" xlink:href="#ab"/><radialGradient id="am" cx="120.83" cy="-24.36" r="110.34" xlink:href="#w"/><linearGradient id="an" x1="-932.22" y1="-17.08" x2="-932.22" y2="-2.89" gradientTransform="matrix(-1, 0, 0.26, -1, -787.54, 3.64)" xlink:href="#x"/><linearGradient id="ao" x1="45.41" y1="-5.28" x2="59.75" y2="-5.28" gradientTransform="translate(195.89 3.64) rotate(180)" xlink:href="#y"/><filter id="aq" x="137.98" y="8.07" width="5.78" height="1.27" filterUnits="userSpaceOnUse" color-interpolation-filters="sRGB"><feFlood flood-color="#fff" result="bg"/><feBlend in="SourceGraphic" in2="bg"/></filter><mask id="ap" x="137.98" y="8.07" width="5.78" height="1.27" maskUnits="userSpaceOnUse"><g class="i"><polygon class="j" points="142.76 9.34 143.76 8.07 139.7 8.07 137.98 9.34 142.76 9.34"/></g></mask><linearGradient id="ar" x1="-928.93" y1="-6.5" x2="-930.73" y2="-3.3" gradientTransform="matrix(-1, 0, 0.26, -1, -787.54, 3.64)" xlink:href="#ab"/><linearGradient id="as" x1="-227.5" y1="-16.88" x2="-227.5" y2="-2.67" gradientTransform="matrix(-1, 0, 0.08, -1, -120.59, 3.64)" xlink:href="#x"/><linearGradient id="at" x1="84.46" y1="-5.06" x2="94.35" y2="-5.06" gradientTransform="translate(195.89 3.64) rotate(180)" xlink:href="#y"/><filter id="av" x="102.66" y="7.85" width="3.86" height="1.27" filterUnits="userSpaceOnUse" color-interpolation-filters="sRGB"><feFlood flood-color="#fff" result="bg"/><feBlend in="SourceGraphic" in2="bg"/></filter><mask id="au" x="102.66" y="7.85" width="3.86" height="1.27" maskUnits="userSpaceOnUse"><g class="k"><polygon class="l" points="106.22 9.12 106.52 7.85 103.49 7.85 102.66 9.12 106.22 9.12"/></g></mask><linearGradient id="aw" x1="-225.15" y1="-6.07" x2="-226.56" y2="-3.57" gradientTransform="matrix(-1, 0, 0.08, -1, -120.59, 3.64)" xlink:href="#ab"/><linearGradient id="ax" x1="-6660.17" y1="-11.83" x2="-6660.17" y2="-1.28" gradientTransform="matrix(1, 0, -0.26, -1, 6695.92, 3.64)" xlink:href="#x"/><linearGradient id="ay" x1="154.03" y1="-3.05" x2="164.69" y2="-3.05" gradientTransform="translate(195.89 3.64) rotate(180)" xlink:href="#y"/><filter id="ba" x="36.2" y="6.06" width="4.3" height="0.94" filterUnits="userSpaceOnUse" color-interpolation-filters="sRGB"><feFlood flood-color="#fff" result="bg"/><feBlend in="SourceGraphic" in2="bg"/></filter><mask id="az" x="36.2" y="6.06" width="4.3" height="0.94" maskUnits="userSpaceOnUse"><g class="c"><polygon class="d" points="36.94 7 36.2 6.06 39.22 6.06 40.5 7 36.94 7"/></g></mask><linearGradient id="bb" x1="-6657.72" y1="-3.96" x2="-6659.06" y2="-1.58" gradientTransform="matrix(1, 0, -0.26, -1, 6695.92, 3.64)" xlink:href="#ab"/></defs><g class="m"><polygon class="n" points="170 33 23 33 22 32 170 31 171 32 170 33"/><rect class="o" x="34" y="15" width="125" height="3"/><polygon class="p" points="171 2.05 22 2.05 24.98 0 168.02 0 171 2.05"/><polygon class="q" points="170 33 23 33 0 44 195 44 170 33"/><polygon class="r" points="159.04 17.07 33.96 17.07 22 32 171 32 159.04 17.07"/><path class="s" d="M64.73,17h.63l-7.1,10.67H25.4l.27-.3H57.83Zm7.63,10.58-2.42,4.29h.62l2.26-4H92.67l1.89,4.06h.74l-2.15-4.35Zm93.11-2.51h-17l-3.71-8h-.63l3.73,8H129.08l-4.43-8H124l4.53,8.18.06.11H148l1.75,3.75H111.64l-2.28,2.81H110l2-2.51h38.41l-1.88-4.05h17.14Z"/><g class="t"><polygon class="u" points="57.27 27.07 26.91 27.07 26.68 27.36 57.7 27.36 64.56 17.07 63.93 17.07 57.27 27.07"/><polygon class="v" points="71.81 27.28 69.2 31.89 69.78 31.97 72.26 27.57 91.87 27.57 93.9 31.93 94.51 31.93 92.34 27.28 71.81 27.28"/><polygon class="u" points="164.23 24.77 147.68 24.77 144.09 17.07 143.48 17.07 147.06 24.77 128.29 24.77 124.03 17.07 123.4 17.07 127.77 24.95 127.83 25.06 147.2 25.06 148.95 28.82 111.08 28.82 108.61 31.91 109.36 31.93 111.64 29.12 149.71 29.12 147.82 25.06 164.47 25.07 164.23 24.77"/></g><polygon class="w" points="42.52 26.18 55.68 26.18 56.85 23.92 43.7 23.92 42.52 26.18"/><polygon class="x" points="43.7 23.92 56.85 23.92 55.68 26.18 56.16 24.39 44.86 24.34 43.16 26.18 42.52 26.18 43.7 23.92"/><g class="y"><polygon class="z" points="50.24 24.64 49.24 25.9 53.3 25.9 55.02 24.64 50.24 24.64"/></g><polygon class="aa" points="81.57 26.4 91.38 26.4 91.45 24.14 81.65 24.14 81.57 26.4"/><polygon class="ab" points="81.65 24.14 91.45 24.14 91.38 26.4 91.1 24.6 82.66 24.55 82.05 26.4 81.57 26.4 81.65 24.14"/><g class="ac"><polygon class="ad" points="86.78 24.85 86.48 26.12 89.51 26.12 90.34 24.85 86.78 24.85"/></g><polygon class="ae" points="161.8 28.12 152.01 28.12 151.13 26.44 160.92 26.44 161.8 28.12"/><polygon class="af" points="160.92 26.44 151.13 26.44 152.01 28.12 151.65 26.78 160.06 26.75 161.32 28.12 161.8 28.12 160.92 26.44"/><g class="ag"><polygon class="ah" points="156.06 26.97 156.8 27.91 153.78 27.91 152.5 26.97 156.06 26.97"/></g><path class="s" d="M64.94,41h.63l-7.1-5.4H25.61l.27.15H58Zm7.63-5.35-2.42-2.17h.62l2.26,2H92.88l1.89-2.06h.74l-2.15,2.21Zm93.11,1.27h-17l-3.71,4h-.63l3.73-4H129.28l-4.42,4h-.62l4.53-4.15.06,0h19.33l1.75-1.9H111.84l-2.27-1.43h.65l2,1.28h38.41l-1.88,2.05h17.14Z"/><g class="ai"><polygon class="u" points="57.48 35.9 26.12 35.9 25.89 35.76 57.91 35.76 64.77 40.97 64.14 40.97 57.48 35.9"/><polygon class="v" points="72.01 35.8 69.41 33.46 69.98 33.42 72.47 35.65 92.08 35.65 94.11 33.44 94.72 33.44 92.55 35.8 72.01 35.8"/><polygon class="u" points="165.44 37.07 147.89 37.07 144.3 40.97 143.69 40.97 147.27 37.07 128.5 37.07 124.23 40.97 123.61 40.97 127.98 36.98 128.04 36.92 147.41 36.92 149.16 35.02 111.29 35.02 108.81 33.45 109.57 33.44 111.84 34.87 149.91 34.87 148.03 36.92 165.68 36.92 165.44 37.07"/></g><polygon class="aj" points="33.96 16.91 159.04 16.91 171 2.04 22 2.04 33.96 16.91"/><path class="s" d="M128.27,17h-.63l7.1-10.66H167.6l-.27.29H135.17ZM120.64,6.4l2.42-4.29h-.62l-2.26,4H100.33L98.44,2H97.7L99.85,6.4ZM27.53,8.91h17l3.71,8h.63l-3.73-8H63.92l4.43,8H69L64.44,8.72l-.06-.11H45.05L43.3,4.86H81.36L83.64,2H83L81,4.55l-38.41,0,1.88,4H27.29Z"/><g class="t"><polygon class="u" points="135.73 6.9 167.09 6.9 167.32 6.61 135.3 6.61 128.44 16.91 129.07 16.91 135.73 6.9"/><polygon class="v" points="121.19 6.7 123.8 2.08 123.22 2 120.74 6.4 101.13 6.4 99.1 2.04 98.49 2.04 100.66 6.7 121.19 6.7"/><polygon class="u" points="27.77 9.21 45.32 9.21 48.91 16.91 49.52 16.91 45.94 9.21 64.71 9.21 68.97 16.91 69.6 16.91 65.23 9.02 65.17 8.91 45.8 8.91 44.05 5.15 81.92 5.15 84.39 2.06 83.64 2.04 81.36 4.85 43.29 4.85 45.18 8.91 27.52 8.91 27.77 9.21"/></g><polygon class="ak" points="150.48 7.8 137.32 7.8 136.15 10.05 149.3 10.05 150.48 7.8"/><polygon class="al" points="149.3 10.05 136.15 10.05 137.32 7.8 136.84 9.59 148.14 9.64 149.84 7.8 150.48 7.8 149.3 10.05"/><g class="am"><polygon class="an" points="142.76 9.34 143.76 8.07 139.7 8.07 137.98 9.34 142.76 9.34"/></g><polygon class="ao" points="111.43 7.58 101.62 7.58 101.55 9.83 111.35 9.83 111.43 7.58"/><polygon class="ap" points="111.35 9.83 101.55 9.83 101.62 7.58 101.9 9.37 110.34 9.42 110.95 7.58 111.43 7.58 111.35 9.83"/><g class="aq"><polygon class="ar" points="106.22 9.12 106.52 7.85 103.49 7.85 102.66 9.12 106.22 9.12"/></g><polygon class="as" points="31.2 5.86 40.99 5.86 41.87 7.54 32.08 7.54 31.2 5.86"/><polygon class="at" points="32.08 7.54 41.87 7.54 40.99 5.86 41.35 7.19 32.94 7.23 31.68 5.86 31.2 5.86 32.08 7.54"/><g class="au"><polygon class="av" points="36.94 7 36.2 6.06 39.22 6.06 40.5 7 36.94 7"/></g></g></svg>