<svg xmlns="http://www.w3.org/2000/svg" viewBox="0 0 16.3 13.89"><defs><style>.a{isolation:isolate;}.b,.d{mix-blend-mode:screen;}.b{opacity:0.15;}.c{fill:#4dffff;}.e{opacity:0.37;}</style></defs><g class="a"><g class="b"><path class="c" d="M8.18,13.74A6.64,6.64,0,0,1,1.55,7.11a6.63,6.63,0,1,1,13.26,0,6.64,6.64,0,0,1-6.63,6.63Z"/></g><g class="d"><path class="c" d="M8.54,10.84H7.62a.32.32,0,1,1,0-.63h.92a.32.32,0,1,1,0,.63Zm-.92-.45a.13.13,0,0,0-.14.13.14.14,0,0,0,.14.14h.92a.14.14,0,0,0,.14-.14.13.13,0,0,0-.14-.13Zm1.14-.24H7.4A.7.7,0,0,1,7,8.91V8.48A2.34,2.34,0,0,1,5.72,6.4,2.36,2.36,0,1,1,9.21,8.48v.43a.72.72,0,0,1,.25.54A.7.7,0,0,1,8.76,10.15ZM8.08,4.22a2.19,2.19,0,0,0-1,4.13.08.08,0,0,1,0,.08V9A.09.09,0,0,1,7.1,9a.51.51,0,0,0-.22.42A.52.52,0,0,0,7.4,10H8.76a.53.53,0,0,0,.31-1A.08.08,0,0,1,9,9V8.43a.08.08,0,0,1,.05-.08,2.18,2.18,0,0,0-1-4.13ZM8.76,9.7H7.4a.09.09,0,1,1,0-.18H8.76a.09.09,0,0,1,0,.18Zm-.45-.77a.09.09,0,0,1-.09-.09V7.35a.07.07,0,0,1,0-.06l.68-.69a.15.15,0,0,0,0-.2.14.14,0,0,0-.19,0l-.6.6A.09.09,0,0,1,8,7l-.59-.6a.15.15,0,0,0-.2,0,.14.14,0,0,0,0,.2l.69.69a.09.09,0,0,1,0,.12.09.09,0,0,1-.13,0L7.1,6.73A.32.32,0,0,1,7,6.5a.32.32,0,0,1,.54-.22l.53.53.53-.53a.32.32,0,0,1,.54.22.32.32,0,0,1-.09.23l-.66.66V8.84A.09.09,0,0,1,8.31,8.93Z"/></g><path class="c" d="M1.79,11.19l-.09-.14.4-.25.09.14Zm-.33-.57-.08-.15.43-.21.07.14ZM1.18,10l-.07-.16.45-.17a.47.47,0,0,0,.06.15ZM1,9.4c0-.05,0-.1,0-.16l.46-.13c0,.05,0,.1,0,.15ZM.78,8.77c0-.06,0-.11,0-.17l.47-.09,0,.15Z"/><g class="e"><path class="c" d="M8.18,13A5.91,5.91,0,0,1,4,2.92H4A5.91,5.91,0,1,1,8.18,13Zm-4-9.93a5.68,5.68,0,1,0,8,0,5.65,5.65,0,0,0-8,0Z"/></g><path class="c" d="M8.06,12.65H8v-.24h.1Zm.24,0v-.24h.09v.23Zm-.58,0H7.63l0-.23h.09Zm.92,0,0-.24h.09l0,.23Zm-1.25,0h-.1l0-.24.09,0Zm1.59,0,0-.23.09,0,0,.24Zm-1.92-.06-.1,0,0-.23.09,0Zm2.25,0-.05-.23.09,0,.05.23Zm-2.58-.07-.1,0,.07-.23.09,0Zm2.91,0-.07-.23.09,0,.07.23Zm-3.24-.1-.09,0,.08-.23.09,0Zm3.56,0-.08-.23.09,0,.08.23Zm-3.87-.12L6,12.2,6.09,12l.08,0Zm4.19,0L10.19,12l.08,0,.1.22Zm-4.5-.14-.09,0,.11-.21.08,0Zm4.81,0-.11-.21.09,0,.1.21ZM5.48,12l-.09,0,.12-.21.08.05Zm5.41,0-.12-.21.08-.05.12.21Zm-5.7-.18-.08,0,.13-.2.07.05Zm6,0-.12-.2.07-.05.13.2Zm-6.26-.19-.08-.06L5,11.34l.08.05Zm6.54,0-.14-.19.08-.06.14.19Zm-6.81-.21-.07-.06.15-.18.07.06Zm7.08,0-.15-.18.07-.06.15.18Zm-7.33-.22-.07-.07.16-.17.07.07Zm7.58,0L11.81,11l.07-.07.16.17Zm-7.82-.24-.07-.07.18-.16.06.07Zm8.06,0L12,10.75l.06-.07.18.16Zm.23-.25-.19-.15.06-.08.19.15Zm-8.52,0-.06-.08.19-.15.06.08Zm-.21-.27,0-.08.19-.13.06.07Zm8.93,0-.19-.14.06-.07.19.13Zm-9.12-.28,0-.08.2-.12.05.08Zm9.32,0-.2-.12,0-.08.2.12ZM3.35,9.83,3.3,9.74l.21-.11,0,.08Zm9.66,0-.2-.11,0-.08.21.11ZM3.19,9.53l0-.09.21-.1,0,.08Zm10,0L13,9.42l0-.08.21.1ZM3.05,9.22l0-.09L3.24,9l0,.09Zm10.26,0-.22-.09,0-.09.22.09ZM2.93,8.9l0-.09.23-.07,0,.09Zm10.5,0-.23-.08,0-.09.23.08ZM2.84,8.58l0-.09L3,8.43l0,.09Zm10.69,0-.23-.07,0-.09.23.06ZM2.76,8.25l0-.09L3,8.11,3,8.2Zm10.84,0-.23-.05,0-.09.23,0ZM2.7,7.92l0-.1.24,0v.09Zm11,0-.23,0V7.79l.24,0Zm-11-.33V7.49l.24,0v.09Zm11,0-.23,0V7.47h.24ZM2.64,7.25v-.1h.23v.09Zm11.08,0h-.24v-.1h.23ZM2.88,6.92H2.64v-.1h.24Zm10.6,0V6.82h.23V6.9ZM2.9,6.59l-.24,0v-.1l.24,0Zm10.56,0V6.5l.24,0v.1ZM2.94,6.27l-.23,0V6.14l.23,0Zm10.48,0,0-.09.24,0v.09ZM3,6l-.23,0,0-.09L3,5.86ZM13.36,6l0-.09.23-.06,0,.1ZM3.08,5.64l-.23-.06,0-.1.22.07Zm10.2,0,0-.09.23-.07,0,.09ZM3.18,5.33,3,5.25l0-.09.22.09Zm10,0,0-.09.22-.08,0,.09ZM3.29,5l-.21-.09,0-.09.21.1Zm9.77,0,0-.09.21-.09,0,.08ZM3.43,4.74l-.21-.11,0-.09.21.11Zm9.5,0,0-.08.21-.11,0,.09ZM3.58,4.45l-.2-.12.05-.08.2.12Zm9.19,0,0-.08.2-.12.05.08Zm-9-.27-.19-.13,0-.08.2.13Zm8.85,0,0-.07.2-.14A.56.56,0,0,0,12.8,4ZM3.94,3.91l-.19-.14.06-.08L4,3.84Zm8.48,0-.06-.07.19-.15.06.08Zm-.21-.25-.06-.07.18-.16.06.08Zm-8.07,0L4,3.51,4,3.43l.18.16ZM12,3.42l-.07-.07.17-.16.07.07Zm-7.64,0-.17-.16.07-.07.1.07.07.09Zm7.41-.23-.07-.06L11.85,3l.07.06Zm-7.16,0L4.45,3l.07-.07.15.18ZM11.52,3l-.07-.06.14-.18.08.06ZM4.85,3,4.7,2.79l.08-.06.14.19Zm6.41-.18-.07-.06.13-.19.08,0Zm-6.15,0L5,2.58l.08-.05.13.19ZM11,2.61l-.08,0L11,2.35l.08.06Zm-5.61,0-.13-.2.08,0,.13.2Zm5.33-.16-.08,0,.11-.21.09,0Zm-5.05,0-.11-.21.08,0,.11.21Zm4.76-.14-.08,0,.1-.22.08,0ZM6,2.29l-.1-.21.08,0,.1.21Zm4.18-.12-.09,0,.08-.23.09,0Zm-3.89,0-.08-.22.09,0,.08.22Zm3.58-.1L9.73,2l.07-.22.1,0Zm-3.27,0-.07-.23.09,0L6.64,2Zm3-.09L9.42,2l.06-.23.09,0ZM6.86,2,6.8,1.74l.09,0L7,1.94ZM9.2,1.9l-.09,0,0-.23.09,0Zm-2,0,0-.24h.1l0,.23Zm1.71,0-.09,0,0-.23h.1Zm-1.39,0,0-.23h.1l0,.23Zm1.06,0H8.46l0-.24h.09Zm-.73,0,0-.23h.1v.24Zm.41,0H8.14V1.56h.09Z"/></g></svg>