<svg xmlns="http://www.w3.org/2000/svg" xmlns:xlink="http://www.w3.org/1999/xlink" viewBox="0 0 226 159"><defs><style>.a{opacity:0.5;fill:url(#a);}.b,.d{opacity:0.32;}.c,.d{fill:#9c78ff;}</style><linearGradient id="a" x1="113.25" y1="-20.83" x2="112.02" y2="160.89" gradientUnits="userSpaceOnUse"><stop offset="0" stop-color="#8853c2" stop-opacity="0"/><stop offset="1" stop-color="#4b288c" stop-opacity="0.7"/></linearGradient></defs><polygon class="a" points="29 159 199.53 159 226.21 0 0 0 29 159"/><g class="b"><path class="c" d="M183.5,113.91H163.1v-1.16h20.4Zm9.62-1.16h-7.41v1.16h7.41ZM176,129.5H163.1v1.15H176Zm15.81,0h-13.6v1.15h13.6ZM170.37,117H163.1v1.15h7.27Zm18.41,0h-7.27v1.15h7.27Zm-9.07,0h-7.13v1.15h7.13Zm4.72,16.74H163.1v1.15h21.33Zm10,0h-7.83v1.15h7.83Zm-11-12.55H163.1v1.16h20.4Zm8.34,0h-6.13v1.16h6.13ZM176,137.89H163.1V139H176Zm16.82,0H178.23V139h14.61Zm-22.47-12.55H163.1v1.15h7.27Zm22.47,0H188.2v1.15h4.64Zm-6.45,0H172.58v1.15h13.81Zm-7.65,16.74H163.1v1.16h15.64Zm13.09,0H181v1.16h10.88Z"/><path class="d" d="M182.62,67.55H203V68.7h-20.4ZM173,68.7h7.4V67.55H173Zm22.74,4.19H203V71.74h-7.27Zm-18.41,0h7.27V71.74h-7.27Zm9.08,0h7.12V71.74h-7.12ZM171.06,25.48h21.33V24.33H171.06Zm-10,0h7.82V24.33H161Zm21.59,51.61H203V75.94h-20.4Zm-8.34,0h6.13V75.94h-6.13Zm5.19-47.41h12.92V28.53H179.47Zm-16.82,0h14.61V28.53H162.65Zm14.1,4.19h15.64V32.72H176.75Zm-13.09,0h10.88V32.72H163.66Z"/><path class="d" d="M40.5,19.4H20.1V18.25H40.5Zm9.62-1.15H42.71V19.4h7.41ZM33,35H20.1v1.15H33Zm15.81,0H35.23v1.15h13.6ZM27.37,22.44H20.1v1.15h7.27Zm18.41,0H38.51v1.15h7.27Zm-9.07,0H29.58v1.15h7.13Zm4.72,16.75H20.1v1.15H41.43Zm10,0H43.64v1.15h7.83Zm-11-12.55H20.1v1.15H40.5Zm8.34,0H42.71v1.15h6.13ZM33,43.38H20.1v1.15H33Zm16.82,0H35.23v1.15H49.84ZM27.37,30.83H20.1V32h7.27Zm22.47,0H45.2V32h4.64Zm-6.45,0H29.58V32H43.39ZM35.74,47.58H20.1v1.15H35.74Zm13.09,0H38v1.15H48.83Z"/><path class="c" d="M53.59,101.32a18.19,18.19,0,1,0,18.07,18.19A18.14,18.14,0,0,0,53.59,101.32ZM71,119.51a16.68,16.68,0,0,1-.19,2.56H58.63l-5.51,5.55H38.23a17.38,17.38,0,0,1-2-7.87H47.38l3.35-3.38h15.6l1.49,1.5h3.05C70.92,118.41,71,119,71,119.51ZM68,117.39l-1.48-1.49h-16l-3.36,3.38H36.24a17.62,17.62,0,0,1,.73-4.79H47L43.52,111H38.46A18,18,0,0,1,41,107.53H57l1.71,2.29H68a17.33,17.33,0,0,1,2.79,7.57ZM37.12,114a16.88,16.88,0,0,1,1.09-2.59h5.11L45.89,114Zm30.58-4.67H58.91l-1.7-2.29H41.43a17.24,17.24,0,0,1,26.27,2.29ZM53.59,137a17.36,17.36,0,0,1-15.11-8.89H53.31l5.52-5.56H70.69A17.43,17.43,0,0,1,69,127.62h-7.8l-3.87,3.91h8.89A17.23,17.23,0,0,1,53.59,137ZM68.7,128.1a17,17,0,0,1-2.09,3H58.42l2.94-3ZM38,101.21A6.05,6.05,0,1,0,32,107.3,6.09,6.09,0,0,0,38,101.21Zm-.81-1.07H34.83l-2.77-2.79H28.24a5.33,5.33,0,0,1,9,2.79Zm-9.4-2.31h4.06l2.77,2.78h2.64a5.88,5.88,0,0,1,0,.6c0,.18,0,.36,0,.54H31.06L28.88,104h-1.5a5.32,5.32,0,0,1-.76-2.74A5.39,5.39,0,0,1,27.81,97.83Zm-.12,6.6h1.38l2.19-2.2h5.95a5.32,5.32,0,0,1-.84,2H32.79l-2.15,2.16A5.35,5.35,0,0,1,27.69,104.43ZM32,106.59a6.48,6.48,0,0,1-.77-.06L33,104.72h3A5.31,5.31,0,0,1,32,106.59Zm43.19,24.86A3.87,3.87,0,1,0,79,135.31,3.85,3.85,0,0,0,75.16,131.45Zm0,.71a3.13,3.13,0,0,1,2.67,1.51H76.41l-2.67,2.69H72.21a3.31,3.31,0,0,1-.18-1.05A3.15,3.15,0,0,1,75.16,132.16Zm0,6.31a3.11,3.11,0,0,1-2.74-1.64h1.51l2.67-2.69h1.47a3.25,3.25,0,0,1,.23,1.17A3.16,3.16,0,0,1,75.16,138.47Z"/></g></svg>